<?xml version="1.0" encoding="utf-8"?>
<!-- Svg Vector Icons : http://www.onlinewebfonts.com/icon -->
<!DOCTYPE svg PUBLIC "-//W3C//DTD SVG 1.1//EN" "http://www.w3.org/Graphics/SVG/1.1/DTD/svg11.dtd">
<svg version="1.1" 
  xmlns="http://www.w3.org/2000/svg" 
  xmlns:xlink="http://www.w3.org/1999/xlink" x="0px" y="0px" viewBox="0 0 1000 1000" enable-background="new 0 0 1000 1000" xml:space="preserve">
  <metadata> Svg Vector Icons : http://www.onlinewebfonts.com/icon </metadata>
  <g fill="#fff">
    <path d="M403.9,840.9c-100,2-200.1,0.3-300.1,1.2c-19.5,0.2-26.7-4.9-26.7-25.4c0.6-211.9,0.5-423.8,0.1-635.8c0-18.2,4.6-25.3,24.5-25.2c162,0.8,324.1,0.8,486.1,0c8.5,0,15.3,6.8,15.2,15.3c-0.9,118.9-0.5,237.8-0.5,356.7v11.7c0,8.4,6.8,15.2,15.2,15.2h4.9c8.4,0,15.2-6.8,15.2-15.2v-8.8c0-127.2,0-254.3,0-381.5c0-28.1-0.1-28.1-27.3-28.1c-179.3,0-358.5,0-537.8,0c-29.6,0-29.7,0-29.7,29.6c0,224.4,0,448.9,0,673.3c0,53.3,0,53.3,52.4,53.3h334.4c13.9,0,20.7-17.4,10.1-26.5C431.3,843.2,419.5,840.6,403.9,840.9z"/>
    <path d="M800,792.1c-8.7-19-23-35.7-36.4-52.1c-7.4-9.1-17.8-11.6-29.3-2.7c-3.8,2.9-13.8,2.8-17.5-0.2c-14-11.4-23.3-8.1-32.3,6c-2.2,3.4-10.4,7.2-12.6,5.8c-21.5-13.9-30.1-3.7-33.2,18.6c-1.9,0.1-3.7,0.2-5.6,0.3c-3.5-6.8-8.1-13.2-10.3-20.3c-5.4-17.1-9-34.8-14.5-51.8c-4.5-13.7-9.4-27.6-17-39.7c-3.2-5.1-14.1-8.4-20.6-7.2c-3.6,0.7-7.2,12.2-7.2,18.9c0,8.7,3.3,17.6,5.8,26.1c13.7,47.1,27.9,94,41.1,141.2c9.9,35.2-1.8,48.2-38.9,44.9c-4.8-0.4-9.5-3.1-14.2-2.8c-14.9,0.9-30.2,1.1-44.2,5.2c-4.7,1.4-7.8,13.4-8.4,20.9c-0.2,2.2,10.4,6.4,16.4,7.7c22.2,5,46.5,5,66.3,14.5c37.7,18.1,72.8,41.7,109.3,62.5c4.1,2.3,10.8,2.8,15.2,1.2c29.8-10.9,59.5-22.3,88.9-34.3c4.9-2,11.1-7.3,11.9-11.9C821.4,891.5,822,840.3,800,792.1z"/>
    <path d="M535.2,361.9c-64.6,0.2-129.2,0.1-193.7,0.1c-65.3,0-130.6,0.1-195.8-0.1c-12.2,0-23.4-1.5-23,17.3c0.4,17.4,10.9,16.4,22.3,16.4c129.9,0,259.7,0,389.6,0c11.7,0,22,0.2,22.2-16.7C556.9,362.1,547.4,361.8,535.2,361.9z"/>
    <path d="M536.6,481.8c-131.2,0.1-262.5,0.1-393.7,0c-11.6,0-19.7,1.2-20.1,16.5c-0.4,16.6,8.5,17.4,20.9,17.3c65.3-0.3,130.5-0.1,195.8-0.1c65.3,0,130.6-0.1,195.8,0.1c12.2,0,21.7-0.4,21.4-17.1C556.4,483.5,548.3,481.8,536.6,481.8z"/>
    <path d="M553.2,711.1c-7.6-12.5-11.8-21.3-17.8-28.7c-15.6-19-18.5-40-6.8-59.4c11.1-18.4,32.7-28.5,51.2-24c22.7,5.5,38.9,25.7,40.6,49.4c0.7,9.8,3.2,19.5,5.4,32.2c22.1-33,10.2-74.1-23.6-92.3c-33.8-18.2-77.3-3.4-92.9,31.8C493,656.7,509.5,695.4,553.2,711.1z"/>
    <path d="M536,244.1c-64.6,0.2-129.2,0.1-193.7,0.1c-65.3,0-130.6,0.1-195.8-0.1c-12.2,0-23.4-1.5-23,17.3c0.4,17.4,10.9,16.4,22.3,16.4c129.9,0,259.7,0,389.6,0c11.7,0,22,0.2,22.2-16.7C557.7,244.3,548.1,244,536,244.1z"/>
    <path d="M137.9,744.9c47.4-0.3,94.9-0.1,142.3-0.1c47.4,0,94.9-0.1,142.3,0.1c8.9,0,15.8-0.4,15.5-17.1c-0.2-15-6.1-16.7-14.6-16.7c-95.4,0.1-190.8,0.1-286.1,0c-8.4,0-14.4,1.2-14.6,16.5C122.5,744.2,128.9,745,137.9,744.9z"/>
    <path d="M462.6,592.2c-107.6,0.1-215.1,0.1-322.7,0c-9.5,0-16.2,1.2-16.5,16.5c-0.3,16.6,7,17.4,17.1,17.3c53.5-0.3,107-0.1,160.5-0.1c53.5,0,107-0.1,160.5,0.1c10,0,17.8-0.4,17.5-17.1C478.9,593.9,472.2,592.2,462.6,592.2z"/>
    <path d="M753.2,553.5V412.9l-0.2-343l0,0c0.1-9.6,0.2-19.7,0.2-30.3c0-29.6-0.1-29.6-29.7-29.6c-179.3,0-358.5,0-537.8,0c-25.8,0-27.2,0.1-27.3,23.7l0,0v23.4v26.5v16.2c0,5.1,4.1,9.2,9.1,9.2l0,0h17.3c5.1,0,9.2-4.1,9.2-9.2V81.8c0-0.6,0-1.2,0.2-1.8c3.9-20.1,21.7-35.2,42.9-35.1c152.5,0.7,304.9,0.7,457.4-0.1c19.9-0.1,24.5,6.9,24.5,25.2v565.7c0,0.8,0.1,27.5,0.3,28.2c0.6,2.5,9.1,9.7,17.5,9.5c8.3-0.1,16.4-7.6,16.4-12.6"/>
    <path d="M957,704.8"/>
  </g>
</svg>