<svg xmlns="http://www.w3.org/2000/svg" width="24" height="24" viewBox="0 0 24 24">
    <g fill="none" fill-rule="evenodd">
        <ellipse cx="12" cy="10" stroke="#fff" rx="3.5" ry="4.5"/>
        <path fill="#fff" d="M19.635 20.125v-.011c0-.032-.003-.063-.003-.098-.022-.773-.07-2.58-1.655-3.157l-.036-.012c-1.647-.448-3.016-1.463-3.031-1.475a.473.473 0 0 0-.687.13.55.55 0 0 0 .12.733c.063.047 1.516 1.128 3.335 1.627.85.324.946 1.295.971 2.185 0 .035 0 .067.004.098.004.35-.018.893-.077 1.205-.591.36-2.91 1.6-6.438 1.6-3.513 0-5.846-1.244-6.442-1.603-.058-.313-.084-.855-.076-1.206 0-.031.003-.063.003-.098.026-.89.12-1.861.972-2.185 1.818-.5 3.272-1.584 3.334-1.627a.55.55 0 0 0 .12-.734.473.473 0 0 0-.686-.128c-.015.011-1.377 1.026-3.031 1.475a.438.438 0 0 0-.037.011c-1.585.582-1.632 2.388-1.654 3.157 0 .035 0 .066-.004.098v.011c-.003.203-.007 1.245.187 1.768a.495.495 0 0 0 .19.246C5.122 22.213 7.748 24 12.141 24c4.393 0 7.019-1.791 7.128-1.865a.516.516 0 0 0 .19-.246c.183-.519.179-1.56.175-1.764z"/>
        <circle cx="12" cy="12" r="11" stroke="#fff" stroke-width="2"/>
    </g>
</svg>
