<svg xmlns="http://www.w3.org/2000/svg" width="32" height="32" viewBox="0 0 32 32">
    <g fill="none" fill-rule="evenodd">
        <path fill="#FFF" d="M4 .889h24.444v29.778H4z"/>
        <rect width="32" height="32" fill="#E42B28" rx="1.778"/>
        <path fill="#FFFFFE" d="M27.203 10.546c.148.595.353 3.853.353 5.096v.272c0 1.243-.205 4.5-.353 5.095-.44 1.768-1.266 2.45-2.787 2.696-.876.129-5.084.295-8.423.295h.014c-3.339 0-7.547-.166-8.423-.295-1.521-.247-2.347-.928-2.787-2.696-.148-.595-.353-3.852-.353-5.095v-.272c0-1.243.205-4.5.353-5.096.44-1.768 1.266-2.449 2.787-2.695.876-.13 5.084-.295 8.423-.295h-.014c3.339 0 7.547.166 8.423.295 1.521.246 2.347.927 2.787 2.695zm-13.603 1.9v6.588l6.14-3.372-6.14-3.216z"/>
    </g>
</svg>
