<svg xmlns="http://www.w3.org/2000/svg" width="24" height="20" viewBox="0 0 24 20">
    <path fill="#666" fill-rule="evenodd" d="M22.65 8.085l.038.008H6.628l5.05-5.06c.246-.246.382-.581.382-.932a1.31 1.31 0 0 0-.383-.931l-.785-.786A1.303 1.303 0 0 0 9.964 0c-.35 0-.68.136-.927.383L.383 9.036a1.3 1.3 0 0 0-.383.93 1.3 1.3 0 0 0 .383.931l8.654 8.655c.247.246.576.382.927.382.352 0 .68-.136.928-.382l.785-.786a1.3 1.3 0 0 0 .383-.928c0-.35-.136-.663-.383-.91l-5.105-5.087h16.097c.723 0 1.331-.624 1.331-1.347V9.383c0-.723-.626-1.298-1.35-1.298z"/>
</svg>
