<svg xmlns="http://www.w3.org/2000/svg" width="19" height="24" viewBox="0 0 19 24">
    <g fill="#666" fill-rule="evenodd">
        <path d="M18.05 16.8a1.433 1.433 0 0 1-1.425-1.44v-4.668c.113-3.766-2.509-7.054-6.175-7.742V.96c0-.53-.425-.96-.95-.96-.525 0-.95.43-.95.96v1.99c-3.666.688-6.288 3.976-6.175 7.742v4.668c0 .795-.638 1.44-1.425 1.44-.525 0-.95.43-.95.96s.425.96.95.96h17.1c.525 0 .95-.43.95-.96s-.425-.96-.95-.96zM11.624 20.4H7.376a.238.238 0 0 0-.236.213 2.25 2.25 0 0 0-.015.267c0 1.325 1.063 2.4 2.375 2.4s2.375-1.075 2.375-2.4c0-.09-.005-.178-.015-.267a.237.237 0 0 0-.236-.213z"/>
    </g>
</svg>
