<svg xmlns="http://www.w3.org/2000/svg" width="20" height="24" viewBox="0 0 20 24">
    <path fill="#666" fill-rule="nonzero" d="M17.285 0H2.035C.914 0 .003.91.003 2.033v20.333c-.032.591.27 1.15.782 1.448.53.261 1.158.212 1.641-.127l7.097-4.593a.255.255 0 0 1 .277 0l7.098 4.593a1.508 1.508 0 0 0 2.421-1.321V2.033C19.318.91 18.408 0 17.285 0zM4.577 8.372c0-2.913 3.607-3.971 4.85-1.032a.253.253 0 0 0 .467 0c1.242-2.939 4.85-1.88 4.85 1.032 0 2.428-4.083 5.62-4.93 6.256a.255.255 0 0 1-.305 0c-.848-.636-4.932-3.828-4.932-6.256z"/>
</svg>
