<svg xmlns="http://www.w3.org/2000/svg" width="20" height="25" viewBox="0 0 20 25">
    <path fill="#1D1F24" fill-rule="nonzero" d="M19.578 11.135a.5.5 0 0 0-.8-.237 8.621 8.621 0 0 1-1.947 1.248.249.249 0 0 1-.354-.21A13.149 13.149 0 0 0 5.758.005a.5.5 0 0 0-.509.748A9.609 9.609 0 0 1 6.5 5.5a9.07 9.07 0 0 1-.629 3.322.251.251 0 0 1-.443.045A8.774 8.774 0 0 1 4.38 6.58a.5.5 0 0 0-.8-.242A9.964 9.964 0 0 0 0 14a10 10 0 0 0 20 0 9.851 9.851 0 0 0-.422-2.865zM10 21.25a4.019 4.019 0 0 1-4-4.113 7.56 7.56 0 0 1 4.65-6.884.251.251 0 0 1 .292.385 4.28 4.28 0 0 0-.47 4.161c.034.071.1.122.177.138a.251.251 0 0 0 .216-.06 2.3 2.3 0 0 0 .735-1.055c.02-.07.07-.128.138-.158a.251.251 0 0 1 .211 0A3.7 3.7 0 0 1 14 17.25a3.922 3.922 0 0 1-4 4z"/>
</svg>
