<svg xmlns="http://www.w3.org/2000/svg" width="19" height="28" viewBox="0 0 19 28">
    <path fill="#F5A623" fill-rule="evenodd" d="M17.414 15.882a3.942 3.942 0 0 0-2.326-.757h-5.03c-.925 0-1.676.756-1.676 1.688 0 .931.75 1.687 1.677 1.687h3.912a.56.56 0 0 1 .558.563.56.56 0 0 1-.558.562c-2.16 0-3.912 1.763-3.912 3.938a.56.56 0 0 1-.559.562.56.56 0 0 1-.559-.563 5.062 5.062 0 0 1 1.365-3.463.283.283 0 0 0-.204-.474h-.043a2.794 2.794 0 0 1-2.57-1.717c-.075 0-.148.028-.224.028a2.803 2.803 0 0 1-2.794-2.811V11.75c0-.31.25-.563.558-.563a.56.56 0 0 1 .56.563v3.375c-.002.525.24 1.02.654 1.339.208.16.45.269.709.315a.284.284 0 0 0 .33-.249 2.813 2.813 0 0 1 1.51-2.218.284.284 0 0 0 .151-.251V11.75c0-.31.25-.563.56-.563a.56.56 0 0 1 .558.563v1.968a.28.28 0 0 0 .28.28h2.235a.28.28 0 0 0 .28-.28V11.68c0-.31.25-.562.558-.562a.56.56 0 0 1 .559.562v2.038a.28.28 0 0 0 .28.28h.835c1.276 0 2.505.482 3.444 1.35.081.076.2.096.3.051a.281.281 0 0 0 .168-.257V3.312A2.803 2.803 0 0 0 16.206.5a2.803 2.803 0 0 0-2.794 2.813V8.95a2.743 2.743 0 0 0-3.912.563 2.743 2.743 0 0 0-3.912-.563V5.562A2.803 2.803 0 0 0 2.794 2.75 2.803 2.803 0 0 0 0 5.563v12.375c.006 5.278 4.256 9.556 9.5 9.562 5.513 0 9.469-4.695 9.469-8.8a3.606 3.606 0 0 0-1.555-2.818z"/>
</svg>
