<svg xmlns="http://www.w3.org/2000/svg" width="20" height="24" viewBox="0 0 20 24">
    <path fill="#666" fill-rule="nonzero" d="M19.495 11.088a.498.498 0 0 0-.796-.236c-.588.5-1.24.918-1.94 1.243a.248.248 0 0 1-.352-.21A13.093 13.093 0 0 0 5.734.006a.498.498 0 0 0-.507.745 9.568 9.568 0 0 1 1.246 4.726 9.032 9.032 0 0 1-.627 3.308.25.25 0 0 1-.44.045A8.737 8.737 0 0 1 4.36 6.55a.498.498 0 0 0-.796-.24A9.922 9.922 0 0 0 0 13.94a9.958 9.958 0 0 0 19.915 0 9.81 9.81 0 0 0-.42-2.853zM9.958 21.16a4.002 4.002 0 0 1-3.983-4.095 7.528 7.528 0 0 1 4.63-6.855.25.25 0 0 1 .29.383 4.262 4.262 0 0 0-.467 4.144c.034.07.1.121.176.137a.25.25 0 0 0 .215-.06 2.29 2.29 0 0 0 .732-1.05c.02-.07.07-.128.137-.158a.25.25 0 0 1 .21 0 3.684 3.684 0 0 1 2.043 3.571 3.905 3.905 0 0 1-3.983 3.983z"/>
</svg>
