<svg xmlns="http://www.w3.org/2000/svg" width="24" height="24" viewBox="0 0 24 24">
    <path fill="#666" fill-rule="nonzero" d="M23.924 10.668c-.038-.338-.431-.591-.771-.591-1.1 0-2.076-.646-2.485-1.645a2.673 2.673 0 0 1 .671-2.967.666.666 0 0 0 .073-.905 11.874 11.874 0 0 0-1.9-1.92.668.668 0 0 0-.913.074c-.715.792-2 1.086-2.993.672a2.666 2.666 0 0 1-1.62-2.605.666.666 0 0 0-.59-.701 11.98 11.98 0 0 0-2.7-.007.668.668 0 0 0-.593.686 2.67 2.67 0 0 1-1.644 2.56c-.98.401-2.256.11-2.97-.676a.67.67 0 0 0-.906-.076 11.92 11.92 0 0 0-1.941 1.92.668.668 0 0 0 .071.912 2.66 2.66 0 0 1 .671 2.994c-.414.986-1.438 1.622-2.61 1.622a.652.652 0 0 0-.694.589c-.105.901-.107 1.82-.005 2.729.038.339.443.59.787.59 1.045-.027 2.048.62 2.47 1.644a2.668 2.668 0 0 1-.672 2.968.667.667 0 0 0-.073.904c.558.71 1.198 1.356 1.899 1.92.274.222.675.19.913-.072.718-.794 2.003-1.088 2.991-.673a2.661 2.661 0 0 1 1.624 2.605c-.02.353.238.66.589.7a11.928 11.928 0 0 0 2.7.008.668.668 0 0 0 .594-.687 2.667 2.667 0 0 1 1.641-2.56c.988-.403 2.258-.107 2.972.677a.67.67 0 0 0 .906.076 11.947 11.947 0 0 0 1.941-1.92.666.666 0 0 0-.071-.912 2.66 2.66 0 0 1-.673-2.993 2.687 2.687 0 0 1 2.455-1.627l.149.004a.668.668 0 0 0 .702-.588c.106-.903.107-1.82.005-2.73zm-11.905 5.36a4.007 4.007 0 0 1-4.003-4.003 4.007 4.007 0 0 1 4.003-4.002 4.007 4.007 0 0 1 4.002 4.002 4.007 4.007 0 0 1-4.002 4.003z"/>
</svg>
