<?xml version="1.0" encoding="utf-8"?>
<!-- Generator: Adobe Illustrator 22.1.0, SVG Export Plug-In . SVG Version: 6.00 Build 0)  -->
<svg version="1.1" id="Layer_1" xmlns="http://www.w3.org/2000/svg" xmlns:xlink="http://www.w3.org/1999/xlink" x="0px" y="0px"
	 viewBox="0 0 24 24" style="enable-background:new 0 0 24 24;" xml:space="preserve">
<style type="text/css">
	.st0{fill:none;stroke:#666666;}
	.st1{fill:#666666;}
	.st2{fill:none;stroke:#666666;stroke-width:2;}
</style>
<g>
	<ellipse class="st0" cx="12" cy="10" rx="3.5" ry="4.5"/>
	<path class="st1" d="M19.6,20.1L19.6,20.1c0,0,0-0.1,0-0.1c0-0.8-0.1-2.6-1.7-3.2l0,0c-1.6-0.4-3-1.5-3-1.5
		c-0.2-0.2-0.5-0.1-0.7,0.1c0,0,0,0,0,0c-0.2,0.2-0.1,0.6,0.1,0.7c0.1,0,1.5,1.1,3.3,1.6c0.9,0.3,0.9,1.3,1,2.2c0,0,0,0.1,0,0.1
		c0,0.4,0,0.9-0.1,1.2C18,21.7,15.7,23,12.1,23c-3.5,0-5.8-1.2-6.4-1.6c-0.1-0.3-0.1-0.9-0.1-1.2c0,0,0-0.1,0-0.1
		c0-0.9,0.1-1.9,1-2.2c1.8-0.5,3.3-1.6,3.3-1.6c0.2-0.2,0.3-0.5,0.1-0.7c-0.1-0.2-0.4-0.3-0.7-0.2c0,0,0,0,0,0c0,0-1.4,1-3,1.5
		c0,0,0,0,0,0c-1.6,0.6-1.6,2.4-1.7,3.2c0,0,0,0.1,0,0.1v0c0,0.2,0,1.2,0.2,1.8c0,0.1,0.1,0.2,0.2,0.2c0.1,0.1,2.7,1.9,7.1,1.9
		s7-1.8,7.1-1.9c0.1-0.1,0.2-0.1,0.2-0.2C19.6,21.4,19.6,20.3,19.6,20.1L19.6,20.1z"/>
	<circle class="st2" cx="12" cy="12" r="11"/>
</g>
</svg>
