<svg xmlns="http://www.w3.org/2000/svg" width="28" height="28" viewBox="0 0 28 28">
    <g fill="none" fill-rule="evenodd" transform="translate(2 2)">
        <circle cx="11.636" cy="11.636" r="12.636" stroke="#666" stroke-width="2"/>
        <path fill="#666" fill-rule="nonzero" d="M11.49 15.273h.132c1.204-.021 2.179-.453 2.898-1.279 1.582-1.82 1.32-4.939 1.29-5.237-.102-2.234-1.138-3.303-1.993-3.802-.637-.373-1.381-.575-2.211-.591h-.07c-.456 0-1.352.075-2.211.574-.864.499-1.916 1.568-2.019 3.82-.028.297-.291 3.416 1.291 5.236.715.826 1.69 1.258 2.894 1.279zm-3.086-6.41c0-.013.004-.026.004-.034.136-3.006 2.228-3.33 3.124-3.33h.049c1.11.026 2.996.487 3.124 3.33 0 .012 0 .025.004.033.004.03.292 2.88-1.015 4.382-.518.595-1.209.888-2.117.897h-.041c-.904-.009-1.6-.302-2.113-.897C8.12 11.75 8.4 8.887 8.403 8.862z"/>
        <path fill="#666" d="M19.635 20.125v-.011c0-.032-.004-.063-.004-.098-.023-.773-.074-2.58-1.764-3.157l-.04-.012c-1.756-.448-3.217-1.463-3.232-1.475a.527.527 0 0 0-.604.862c.066.048 1.617 1.129 3.556 1.628.908.324 1.01 1.295 1.037 2.185 0 .035 0 .067.003.098.004.35-.019.893-.081 1.205-.631.36-3.105 1.6-6.868 1.6-3.747 0-6.236-1.244-6.87-1.603-.063-.313-.09-.855-.083-1.206 0-.031.004-.063.004-.098.027-.89.129-1.861 1.036-2.185 1.94-.5 3.49-1.584 3.557-1.627a.527.527 0 0 0-.604-.862c-.016.011-1.469 1.026-3.233 1.475a.49.49 0 0 0-.04.011c-1.69.582-1.74 2.388-1.764 3.157 0 .035 0 .066-.004.098v.011c-.003.203-.007 1.245.2 1.768a.5.5 0 0 0 .202.246C4.155 22.213 6.956 24 11.642 24s7.487-1.791 7.604-1.865a.522.522 0 0 0 .202-.246c.195-.519.191-1.56.187-1.764z"/>
    </g>
</svg>
