<?xml version="1.0" encoding="utf-8"?>
<!-- Generator: Adobe Illustrator 22.1.0, SVG Export Plug-In . SVG Version: 6.00 Build 0)  -->
<svg version="1.1" id="Layer_1" xmlns="http://www.w3.org/2000/svg" xmlns:xlink="http://www.w3.org/1999/xlink" x="0px" y="0px"
	 viewBox="0 0 31 31" style="enable-background:new 0 0 31 31;" xml:space="preserve">
<style type="text/css">
	.st0{fill:#FFFFFF;stroke:#000000;stroke-miterlimit:10;}
</style>
<path class="st0" d="M23,2"/>
<path class="st0" d="M7,2"/>
<g>
	<path d="M22.4,27.7L22,29.4c-1.3,0.5-2.3,0.9-3.1,1.2c-0.8,0.3-1.7,0.4-2.7,0.4c-1.6,0-2.8-0.4-3.7-1.2c-0.9-0.8-1.3-1.7-1.3-2.9
		c0-0.5,0-0.9,0.1-1.4c0.1-0.5,0.2-1,0.3-1.6l1.6-5.7c0.1-0.5,0.3-1.1,0.4-1.6c0.1-0.5,0.1-0.9,0.1-1.3c0-0.7-0.2-1.2-0.5-1.5
		c-0.3-0.3-0.9-0.4-1.7-0.4c-0.4,0-0.9,0.1-1.3,0.2c-0.4,0.1-0.8,0.3-1.1,0.4l0.4-1.8c1.1-0.4,2.1-0.8,3.1-1.1
		c1-0.3,1.9-0.5,2.8-0.5c1.6,0,2.8,0.4,3.6,1.1c0.8,0.8,1.3,1.7,1.3,2.9c0,0.3,0,0.7-0.1,1.3c-0.1,0.6-0.2,1.2-0.3,1.7l-1.6,5.7
		c-0.1,0.5-0.3,1-0.4,1.6c-0.1,0.6-0.2,1-0.2,1.3c0,0.8,0.2,1.3,0.5,1.6c0.3,0.3,0.9,0.4,1.8,0.4c0.4,0,0.8-0.1,1.3-0.2
		C21.9,27.9,22.2,27.8,22.4,27.7L22.4,27.7z M22.8,3.6c0,1-0.4,1.8-1.1,2.5C21,6.9,20.1,7.2,19,7.2c-1.1,0-2-0.4-2.7-1.1
		c-0.8-0.7-1.1-1.6-1.1-2.5c0-1,0.4-1.8,1.1-2.6C17,0.4,17.9,0,19,0c1.1,0,2,0.4,2.7,1.1C22.5,1.8,22.8,2.6,22.8,3.6L22.8,3.6z
		 M22.8,3.6"/>
</g>
</svg>
