<svg xmlns="http://www.w3.org/2000/svg" width="24" height="24" viewBox="0 0 24 24">
    <path fill="#666" fill-rule="evenodd" d="M21 21.75H3a.75.75 0 0 1-.75-.75V9.75h3c-.39.563-.523 1.612-.523 2.278 0 4.016 3.275 7.284 7.3 7.284 4.027 0 7.302-3.268 7.302-7.284 0-.666-.095-1.7-.579-2.278h3V21a.75.75 0 0 1-.75.75M12.028 7.424a4.61 4.61 0 0 1 4.615 4.604 4.61 4.61 0 0 1-4.615 4.605 4.61 4.61 0 0 1-4.615-4.605 4.61 4.61 0 0 1 4.615-4.605M18 3h2.25a.75.75 0 0 1 .75.75V6a.75.75 0 0 1-.75.75H18a.75.75 0 0 1-.75-.75V3.75A.75.75 0 0 1 18 3m3.147-3H2.853A2.85 2.85 0 0 0 0 2.846v18.308A2.85 2.85 0 0 0 2.853 24h18.294A2.85 2.85 0 0 0 24 21.154V2.846A2.85 2.85 0 0 0 21.147 0"/>
</svg>
