<svg xmlns="http://www.w3.org/2000/svg" width="26" height="26" viewBox="0 0 26 26">
    <path fill="#275A85" fill-rule="evenodd" d="M22.75 23.563H3.25a.813.813 0 0 1-.813-.813V10.562h3.25c-.423.61-.566 1.747-.566 2.468 0 4.351 3.548 7.891 7.91 7.891 4.36 0 7.909-3.54 7.909-7.89 0-.722-.103-1.842-.628-2.469h3.25V22.75a.813.813 0 0 1-.812.813m-9.72-15.52c2.762 0 5 2.233 5 4.987a4.994 4.994 0 0 1-5 4.989c-2.76 0-5-2.234-5-4.989a4.994 4.994 0 0 1 5-4.988M19.5 3.25h2.438c.448 0 .812.364.812.813V6.5a.813.813 0 0 1-.813.813H19.5a.813.813 0 0 1-.813-.813V4.062c0-.448.364-.812.813-.812M22.91 0H3.09A3.087 3.087 0 0 0 0 3.083v19.834A3.087 3.087 0 0 0 3.09 26h19.82c1.706 0 3.09-1.38 3.09-3.083V3.083A3.087 3.087 0 0 0 22.91 0"/>
</svg>
