<svg xmlns="http://www.w3.org/2000/svg" width="24" height="24" viewBox="0 0 24 24">
    <g fill="#666" fill-rule="nonzero">
        <path d="M23.877 10.597a1.01 1.01 0 0 0-.217-.325l-2.993-2.993a.999.999 0 0 0-1.411 1.41l1.29 1.291h-5.575a.998.998 0 1 0 0 1.996h5.575l-1.29 1.29a.997.997 0 1 0 1.411 1.412l2.993-2.993a1 1 0 0 0 .217-1.088z"/>
        <path d="M16.967 13.973a.998.998 0 0 0-.998.998v4.99h-3.992V3.992a1 1 0 0 0-.711-.956l-3.467-1.04h8.17v4.99a.998.998 0 1 0 1.997 0V2a2 2 0 0 0-2-2H2a2 2 0 0 0-2 2L0 20.29a2 2 0 0 0 1.64 1.968l9.144 1.675a.997.997 0 0 0 1.194-.978v-.998h4.99a.998.998 0 0 0 .998-.998v-5.988a.998.998 0 0 0-.999-.998z"/>
    </g>
</svg>
