<?xml version="1.0" encoding="utf-8"?>
<!-- Generator: Adobe Illustrator 19.0.0, SVG Export Plug-In . SVG Version: 6.00 Build 0)  -->
<svg version="1.1" id="Layer_1" xmlns="http://www.w3.org/2000/svg" xmlns:xlink="http://www.w3.org/1999/xlink" x="0px" y="0px"
	 viewBox="0 0 96 96" style="enable-background:new 0 0 96 96;" xml:space="preserve">
<style type="text/css">
	.st0{fill:#333333;}
</style>
<g id="XMLID_2_">
	<path id="XMLID_6_" class="st0" d="M46.5,18c-5.1,0-9.1,3.8-9.1,8.5v24.2c0,4.7,4.1,8.5,9.1,8.5h3.1c5.1,0,9.1-3.8,9.1-8.5V26.5
		c0-4.7-4.1-8.5-9.1-8.5H46.5z M28,50c0,9.7,7,17.7,16.2,19.6V78h7.7v-8.4C61,67.7,68,59.7,68,50h-5.3v0.8c0,7-6.1,12.5-13.1,12.5
		h-3.1c-7.1,0-13.1-5.5-13.1-12.5V50H28z"/>
</g>
</svg>
