<svg xmlns="http://www.w3.org/2000/svg" width="24" height="24" viewBox="0 0 24 24">
    <path fill="#666" fill-rule="evenodd" d="M21.493 4.998A2.5 2.5 0 1 0 18.994 2.5c0 .26.043.52.126.766a.25.25 0 0 1-.06.255L16.394 6.19a.25.25 0 0 1-.307.037 4.97 4.97 0 0 0-6.558 1.24.248.248 0 0 1-.3.075l-4.158-1.93A.128.128 0 0 1 5 5.498a2.5 2.5 0 1 0-2.5 2.5 2.462 2.462 0 0 0 1.51-.523.252.252 0 0 1 .26-.03L8.43 9.379c.103.048.16.159.141.27a4.934 4.934 0 0 0 .66 3.448.25.25 0 0 1-.038.307l-5.672 5.655a.25.25 0 0 1-.255.061 2.436 2.436 0 0 0-.767-.125 2.5 2.5 0 1 0 2.5 2.5c-.001-.26-.043-.519-.125-.766a.25.25 0 0 1 .06-.255l5.679-5.664a.25.25 0 0 1 .306-.037c.43.263.897.458 1.386.58a.25.25 0 0 1 .19.242v3.473a.22.22 0 0 1-.12.2 2.5 2.5 0 1 0 2.255.007.249.249 0 0 1-.135-.222v-3.457a.25.25 0 0 1 .19-.243 4.98 4.98 0 0 0 2.426-1.436.25.25 0 0 1 .29-.055l1.477.708a.254.254 0 0 1 .141.2 2.491 2.491 0 1 0 .809-2.131.249.249 0 0 1-.275.039l-1.134-.543a.25.25 0 0 1-.132-.3c.133-.433.203-.884.207-1.337 0-.91-.25-1.804-.725-2.581a.25.25 0 0 1 .036-.307l2.669-2.676a.252.252 0 0 1 .255-.06c.246.082.504.125.764.125z"/>
</svg>
