<svg xmlns="http://www.w3.org/2000/svg" width="32" height="33" viewBox="0 0 32 33">
    <g fill="#E6BA14" fill-rule="nonzero">
        <path d="M22.301 24.713a1.333 1.333 0 0 0-.224 2.658c1.692.124 3.373.357 5.035.697a.333.333 0 0 1 0 .65A53.333 53.333 0 0 1 16 29.668a53.341 53.341 0 0 1-11.11-.948.333.333 0 0 1 0-.651 39.401 39.401 0 0 1 4.98-.693 1.333 1.333 0 0 0-.226-2.656C0 25.533 0 27.533 0 28.392c0 3.557 11.09 3.941 16 3.941s16-.384 16-3.941c0-.859 0-2.859-9.699-3.679z"/>
        <path d="M16 29.133c.455 0 .878-.231 1.123-.614 2.61-4.084 8.682-14.048 8.682-18.382 0-5.416-4.39-9.806-9.806-9.806-5.416 0-9.807 4.39-9.807 9.806 0 4.334 6.072 14.299 8.684 18.382.244.384.669.616 1.124.614zM11.333 9.667a4.667 4.667 0 1 1 9.334 0 4.667 4.667 0 0 1-9.334 0z"/>
    </g>
</svg>
