<svg xmlns="http://www.w3.org/2000/svg" width="17" height="24" viewBox="0 0 17 24">
    <path fill="#666" fill-rule="evenodd" d="M15.48 13.673A3.504 3.504 0 0 0 13.411 13h-4.47c-.824 0-1.491.672-1.491 1.5s.667 1.5 1.49 1.5h3.477c.275 0 .497.224.497.5s-.222.5-.497.5c-1.92 0-3.477 1.567-3.477 3.5 0 .276-.222.5-.497.5a.498.498 0 0 1-.496-.5 4.5 4.5 0 0 1 1.213-3.079A.251.251 0 0 0 8.98 17H8.94a2.483 2.483 0 0 1-2.285-1.526c-.065 0-.13.025-.198.025A2.492 2.492 0 0 1 3.974 13v-3c0-.276.222-.5.497-.5.274 0 .496.224.496.5v3c-.001.466.214.907.582 1.19.185.143.401.24.63.28a.252.252 0 0 0 .293-.221 2.5 2.5 0 0 1 1.343-1.972.252.252 0 0 0 .135-.223V10c0-.276.222-.5.496-.5.275 0 .497.224.497.5v1.749c0 .138.111.25.249.25h1.986a.25.25 0 0 0 .249-.25V9.938c0-.276.222-.5.497-.5.274 0 .496.224.496.5v1.811c0 .138.111.25.249.25h.743c1.133 0 2.226.428 3.06 1.2a.247.247 0 0 0 .268.045.25.25 0 0 0 .149-.229V2.5c0-1.38-1.112-2.5-2.484-2.5a2.492 2.492 0 0 0-2.483 2.5v5.012a2.438 2.438 0 0 0-3.478.5 2.438 2.438 0 0 0-3.477-.5V4.5c0-1.38-1.112-2.5-2.483-2.5A2.492 2.492 0 0 0 0 4.5v11c.005 4.692 3.783 8.495 8.444 8.5 4.901 0 8.417-4.173 8.417-7.822a3.205 3.205 0 0 0-1.382-2.505z"/>
</svg>
