<svg xmlns="http://www.w3.org/2000/svg" viewBox="0 0 58 58"><defs><style>.a{fill:#ff13dc;opacity:0;}.b{fill:#2c2c2c;}</style></defs><rect class="a" width="58" height="58"/><path class="b" d="M3.611,2A1.611,1.611,0,0,0,2,3.611v9.667a1.611,1.611,0,0,0,1.611,1.611H6.833a1.611,1.611,0,0,0,1.611-1.611V8.444H21.333V40.667H16.5a1.611,1.611,0,0,0-1.611,1.611V45.5A1.611,1.611,0,0,0,16.5,47.111H32.611A1.611,1.611,0,0,0,34.222,45.5V42.278a1.611,1.611,0,0,0-1.611-1.611H27.778V8.444H40.667v4.833a1.611,1.611,0,0,0,1.611,1.611H45.5a1.611,1.611,0,0,0,1.611-1.611V3.611A1.611,1.611,0,0,0,45.5,2Z" transform="translate(4.444 4.444)"/></svg>