<svg xmlns="http://www.w3.org/2000/svg" width="27" height="23" viewBox="0 0 27 23">
    <path fill="#00AAEC" fill-rule="evenodd" d="M26.8 2.644a10.74 10.74 0 0 1-3.157.887A5.626 5.626 0 0 0 26.06.413a10.83 10.83 0 0 1-3.494 1.366A5.422 5.422 0 0 0 18.554 0c-3.034 0-5.496 2.524-5.496 5.638 0 .442.047.87.141 1.284-4.57-.236-8.62-2.478-11.333-5.893a5.74 5.74 0 0 0-.744 2.838c0 1.955.97 3.68 2.446 4.692a5.398 5.398 0 0 1-2.492-.703v.07c0 2.732 1.895 5.011 4.412 5.527-.46.133-.947.199-1.448.199-.354 0-.7-.034-1.035-.1.7 2.239 2.729 3.87 5.136 3.913A10.857 10.857 0 0 1 0 19.802a15.308 15.308 0 0 0 8.428 2.531c10.115 0 15.644-8.59 15.644-16.04 0-.245-.004-.49-.014-.731A11.285 11.285 0 0 0 26.8 2.644"/>
</svg>
