<svg xmlns="http://www.w3.org/2000/svg" width="24" height="17" viewBox="0 0 24 17">
    <path fill="#666" fill-rule="evenodd" d="M12 0C6.545 0 1.887 3.393 0 8.182c1.887 4.789 6.545 8.182 12 8.182s10.113-3.393 12-8.182C22.113 3.392 17.455 0 12 0zm0 13.636a5.457 5.457 0 0 1-5.455-5.454A5.457 5.457 0 0 1 12 2.727a5.457 5.457 0 0 1 5.455 5.455A5.457 5.457 0 0 1 12 13.636zm0-8.727a3.268 3.268 0 0 0-3.273 3.273A3.268 3.268 0 0 0 12 11.455a3.268 3.268 0 0 0 3.273-3.273A3.268 3.268 0 0 0 12 4.909z"/>
</svg>
