<svg xmlns="http://www.w3.org/2000/svg" width="24" height="14" viewBox="0 0 24 14">
    <path fill="#666" fill-rule="evenodd" d="M23.873 12.366a1.644 1.644 0 0 0-.082-.156c-.416-.75-1.212-1.67-2.386-2.762l-.025-.025-.013-.012-.012-.012h-.013c-.533-.509-.87-.85-1.012-1.025-.258-.334-.316-.67-.175-1.013.1-.258.475-.803 1.125-1.636.341-.442.612-.796.812-1.062 1.441-1.917 2.066-3.141 1.874-3.674l-.074-.125c-.05-.075-.18-.143-.387-.206-.209-.062-.475-.073-.8-.031l-3.599.025a.467.467 0 0 0-.25.006l-.163.038-.062.03-.05.038a.555.555 0 0 0-.137.132.857.857 0 0 0-.125.218 20.404 20.404 0 0 1-1.337 2.812 26.62 26.62 0 0 1-.85 1.343c-.258.379-.475.658-.65.837-.175.18-.333.323-.475.431-.141.109-.25.154-.324.138a9.156 9.156 0 0 1-.213-.05.83.83 0 0 1-.281-.306 1.37 1.37 0 0 1-.144-.488 5.373 5.373 0 0 1-.044-.506c-.003-.141-.002-.342.007-.6.008-.258.012-.433.012-.525 0-.316.007-.66.019-1.03l.031-.881c.009-.217.013-.446.013-.688 0-.241-.015-.43-.044-.568a1.945 1.945 0 0 0-.131-.4.673.673 0 0 0-.256-.3 1.444 1.444 0 0 0-.419-.169c-.441-.1-1.004-.154-1.687-.162-1.55-.017-2.545.083-2.986.3a1.683 1.683 0 0 0-.475.375c-.15.183-.171.283-.063.3.5.074.854.253 1.062.537l.075.15c.059.108.117.3.175.575a5.8 5.8 0 0 1 .113.912 9.727 9.727 0 0 1 0 1.562c-.042.433-.081.77-.119 1.012a2.027 2.027 0 0 1-.169.587c-.075.15-.125.242-.15.275a.215.215 0 0 1-.062.062.936.936 0 0 1-.337.063c-.117 0-.259-.058-.425-.175a2.998 2.998 0 0 1-.519-.481A6.431 6.431 0 0 1 7.06 5.2c-.225-.367-.458-.8-.7-1.3l-.2-.362a31.172 31.172 0 0 1-.512-1.019 19.636 19.636 0 0 1-.575-1.293.824.824 0 0 0-.3-.4L4.712.79a.855.855 0 0 0-.2-.107 1.326 1.326 0 0 0-.287-.08L.8.625c-.35 0-.587.08-.712.238l-.05.075a.404.404 0 0 0-.038.2c0 .091.025.204.075.337a41.238 41.238 0 0 0 1.63 3.399c.588 1.091 1.098 1.97 1.531 2.636.433.667.875 1.296 1.325 1.887.45.592.748.97.893 1.137.146.167.26.292.344.375l.312.3c.2.2.494.44.881.718.388.28.817.554 1.287.825.471.27 1.019.492 1.644.662.624.171 1.233.24 1.824.207h1.437c.292-.025.512-.117.662-.275l.05-.063a.828.828 0 0 0 .094-.23 1.27 1.27 0 0 0 .044-.344c-.009-.359.018-.681.08-.969.063-.287.134-.504.213-.65a1.597 1.597 0 0 1 .482-.55.815.815 0 0 1 .1-.043c.2-.066.434-.002.705.194.271.196.525.437.763.725.237.287.522.61.856.968.333.358.625.625.874.8l.25.15c.167.1.384.192.65.275.266.083.5.104.7.062l3.199-.05c.316 0 .562-.052.737-.156.175-.104.279-.219.312-.344a.968.968 0 0 0 .007-.425 1.568 1.568 0 0 0-.088-.33z"/>
</svg>
