<svg xmlns="http://www.w3.org/2000/svg" width="32" height="19" viewBox="0 0 32 19">
    <path fill="#006DF0" fill-rule="evenodd" d="M31.755 16.493a2.187 2.187 0 0 0-.108-.208c-.554-.997-1.612-2.222-3.175-3.673l-.033-.034-.016-.016-.017-.017h-.017c-.709-.676-1.158-1.13-1.346-1.363-.344-.443-.421-.892-.233-1.346.133-.344.632-1.07 1.496-2.178.454-.587.814-1.058 1.08-1.412 1.917-2.55 2.749-4.178 2.494-4.887l-.1-.166c-.066-.1-.238-.19-.514-.274-.278-.083-.632-.097-1.065-.042L25.415.91c-.078-.027-.189-.025-.333.009l-.216.05-.084.041-.066.05a.739.739 0 0 0-.183.175 1.14 1.14 0 0 0-.165.29 27.141 27.141 0 0 1-1.78 3.74c-.41.688-.786 1.283-1.13 1.787-.343.504-.631.876-.864 1.114a6.03 6.03 0 0 1-.631.573c-.189.145-.333.205-.432.183a12.18 12.18 0 0 1-.283-.066c-.155-.1-.28-.236-.374-.408a1.824 1.824 0 0 1-.191-.648 7.147 7.147 0 0 1-.058-.673c-.006-.188-.003-.455.008-.798.011-.344.017-.576.017-.698 0-.421.008-.878.024-1.371.017-.494.03-.884.042-1.172.011-.288.017-.593.017-.914 0-.322-.02-.574-.059-.757A2.587 2.587 0 0 0 18.5.885a.896.896 0 0 0-.34-.399 1.92 1.92 0 0 0-.557-.224c-.588-.133-1.336-.205-2.244-.216-2.061-.022-3.386.11-3.973.399a2.24 2.24 0 0 0-.632.498c-.199.244-.227.377-.083.4.665.099 1.136.337 1.413.714l.1.2c.077.144.155.399.233.764.077.366.127.77.15 1.213.054.81.054 1.502 0 2.078a24.754 24.754 0 0 1-.159 1.346c-.05.322-.125.582-.224.782-.1.2-.166.321-.2.365a.286.286 0 0 1-.083.083 1.245 1.245 0 0 1-.449.084c-.155 0-.343-.078-.565-.233a3.987 3.987 0 0 1-.69-.64c-.238-.272-.506-.651-.806-1.139-.299-.487-.61-1.063-.93-1.728l-.266-.483c-.167-.31-.394-.761-.682-1.354a26.12 26.12 0 0 1-.764-1.72 1.096 1.096 0 0 0-.4-.532l-.082-.05A1.138 1.138 0 0 0 6 .95a1.764 1.764 0 0 0-.383-.108L1.064.876c-.465 0-.781.106-.947.316l-.067.1a.538.538 0 0 0-.05.266c0 .122.033.272.1.449a54.855 54.855 0 0 0 2.169 4.52c.781 1.453 1.46 2.622 2.036 3.508a41.41 41.41 0 0 0 1.762 2.51c.598.787.994 1.29 1.188 1.512.194.222.347.388.457.499l.416.399c.266.266.656.584 1.172.956.515.37 1.086.736 1.712 1.097.626.36 1.355.653 2.186.88.83.228 1.64.32 2.426.275h1.912c.388-.033.681-.155.881-.366l.066-.083c.045-.066.086-.169.125-.307.039-.139.058-.291.058-.457a5.477 5.477 0 0 1 .108-1.288c.083-.382.177-.67.283-.865.105-.193.224-.357.357-.49.133-.133.227-.213.283-.24.055-.029.1-.048.132-.059.266-.089.58-.003.94.258.36.26.698.582 1.014.964.316.382.695.812 1.138 1.288.444.477.831.83 1.164 1.064l.332.2c.222.132.51.254.865.365.354.11.664.139.93.083l4.255-.066c.421 0 .749-.07.981-.208.233-.139.371-.291.416-.457.044-.166.046-.355.008-.566a2.086 2.086 0 0 0-.117-.44z"/>
</svg>
