<svg xmlns="http://www.w3.org/2000/svg" width="25" height="17" viewBox="0 0 25 17">
    <path fill="#666" fill-rule="evenodd" d="M10.322 11.635V4.844l6.484 3.407-6.484 3.384zM24.56 3.667s-.235-1.665-.954-2.399C22.693.305 21.67.301 21.201.245 17.843 0 12.805 0 12.805 0h-.01S7.757 0 4.399.245c-.47.056-1.492.06-2.406 1.023-.719.734-.953 2.4-.953 2.4S.8 5.622.8 7.577v1.835c0 1.956.24 3.912.24 3.912s.234 1.665.953 2.399c.914.963 2.113.932 2.647 1.033 1.92.186 8.16.243 8.16.243s5.043-.008 8.401-.252c.47-.057 1.492-.061 2.405-1.024.72-.734.954-2.4.954-2.4s.24-1.955.24-3.911V7.579c0-1.956-.24-3.912-.24-3.912z"/>
</svg>
