<svg xmlns="http://www.w3.org/2000/svg" width="35" height="24" viewBox="0 0 35 24">
    <path fill="#CE1312" fill-rule="evenodd" d="M14.243 16.426l-.001-9.588 9.154 4.81-9.153 4.778zm20.1-11.249s-.33-2.351-1.346-3.387C31.708.43 30.264.424 29.602.345 24.861 0 17.75 0 17.75 0h-.015S10.622 0 5.88.345c-.663.08-2.106.086-3.395 1.445-1.016 1.036-1.346 3.387-1.346 3.387S.8 7.94.8 10.7v2.589c0 2.761.339 5.522.339 5.522s.33 2.351 1.346 3.387c1.29 1.36 2.982 1.317 3.736 1.459 2.71.262 11.52.343 11.52.343s7.12-.01 11.861-.356c.662-.08 2.106-.087 3.395-1.446 1.015-1.036 1.347-3.387 1.347-3.387s.338-2.76.338-5.522v-2.59c0-2.76-.338-5.522-.338-5.522z"/>
</svg>
