<?xml version="1.0" encoding="utf-8"?>
<!-- Svg Vector Icons : http://www.onlinewebfonts.com/icon -->
<!DOCTYPE svg PUBLIC "-//W3C//DTD SVG 1.1//EN" "http://www.w3.org/Graphics/SVG/1.1/DTD/svg11.dtd">
<svg version="1.1" xmlns="http://www.w3.org/2000/svg" xmlns:xlink="http://www.w3.org/1999/xlink" x="0px" y="0px" viewBox="0 0 1000 1000" enable-background="new 0 0 1000 1000" xml:space="preserve">
<metadata> Svg Vector Icons : http://www.onlinewebfonts.com/icon </metadata>
<g><path d="M616.5,382.9"/><path d="M915,539.7h-17.7V809c0,78.6,17.7,145.7,17.7,145.7c0,19.4-15.9,35.3-35.3,35.3H120.4c-19.4,0-35.3-15.9-35.3-35.3c0,0,17.7-64.5,17.7-142.1V539.7H85c-19.4,0-35.3-15.9-35.3-35.3V327.8c0-19.4,15.9-35.3,35.3-35.3h300.2V98.3c0-48.6,39.7-88.3,88.3-88.3h53c48.6,0,88.3,39.7,88.3,88.3v194.2H915c19.4,0,35.3,15.9,35.3,35.3v176.6C950.3,523.8,934.4,539.7,915,539.7L915,539.7L915,539.7z M305.8,954.7v-234c0-7.1,6.2-13.2,13.2-13.2h8.8c7.1,0,13.3,6.2,13.3,13.2v234h150.1v-234c0-7.1,6.2-13.2,13.2-13.2h8.8c7.1,0,13.3,6.2,13.3,13.2v234h141.3v-234c0-7.1,6.2-13.2,13.2-13.2h8.8c7.1,0,13.2,6.2,13.2,13.2v234h176.6c0,0-17.7-63.6-17.7-142.1V539.7H138v272.8c0,78.6-17.7,142.1-17.7,142.1H305.8L305.8,954.7L305.8,954.7z M915,345.5c0-9.7-7.9-17.7-17.7-17.7H579.5V107.1c0-34.4-27.4-61.8-61.8-61.8h-35.3c-34.4,0-61.8,27.4-61.8,61.8v220.7H102.7c-9.7,0-17.7,7.9-17.7,17.7v141.3c0,9.7,7.9,17.7,17.7,17.7H138h724h35.3c9.7,0,17.7-7.9,17.7-17.7L915,345.5L915,345.5L915,345.5z"/><path d="M915,539.7h-17.7V809c0,78.6,17.7,145.7,17.7,145.7c0,19.4-15.9,35.3-35.3,35.3H120.4c-19.4,0-35.3-15.9-35.3-35.3c0,0,17.7-64.5,17.7-142.1V539.7H85c-19.4,0-35.3-15.9-35.3-35.3V327.8c0-19.4,15.9-35.3,35.3-35.3h300.2V98.3c0-48.6,39.7-88.3,88.3-88.3h53c48.6,0,88.3,39.7,88.3,88.3v194.2H915c19.4,0,35.3,15.9,35.3,35.3v176.6C950.3,523.8,934.4,539.7,915,539.7L915,539.7L915,539.7z M305.8,943.3V720.7c0-7.1,6.2-13.2,13.2-13.2h8.8c7.1,0,13.3,6.2,13.3,13.2v222.6h150.1V720.7c0-7.1,6.2-13.2,13.2-13.2h8.8c7.1,0,13.3,6.2,13.3,13.2v222.6h141.3V720.7c0-7.1,6.2-13.2,13.2-13.2h8.8c7.1,0,13.2,6.2,13.2,13.2v222.6h165.2c0,0-17.7-52.2-17.7-130.8V539.7H149.4v272.8c0,78.6-17.7,130.8-17.7,130.8H305.8v11.3V943.3z M903.6,356.8c0-9.7-7.9-17.7-17.7-17.7H568.1V107.1c0-34.4-27.4-50.5-61.8-50.5h-12.6c-34.4,0-61.8,16-61.8,50.5v232.1H114c-9.7,0-17.7,7.9-17.7,17.7v118.6c0,9.7,7.9,17.7,17.7,17.7h35.3h701.3H886c9.7,0,17.7-7.9,17.7-17.7L903.6,356.8H915H903.6z"/></g>
</svg>