<svg xmlns="http://www.w3.org/2000/svg" width="32" height="32" viewBox="0 0 32 32">
    <g fill="none" fill-rule="evenodd">
        <rect width="32" height="32" fill="#54ACEE" rx="1.778"/>
        <path fill="#FFF" d="M27.556 8.929a9.308 9.308 0 0 1-2.724.76 4.82 4.82 0 0 0 2.085-2.67 9.393 9.393 0 0 1-3.01 1.171 4.698 4.698 0 0 0-3.462-1.523c-2.618 0-4.74 2.16-4.74 4.824 0 .378.041.746.122 1.1-3.94-.202-7.435-2.122-9.773-5.041a4.865 4.865 0 0 0-.642 2.426c0 1.673.837 3.15 2.109 4.015a4.666 4.666 0 0 1-2.148-.603v.06c0 2.338 1.634 4.287 3.804 4.731a4.69 4.69 0 0 1-2.142.083c.604 1.916 2.355 3.312 4.43 3.35a9.408 9.408 0 0 1-7.02 1.998 13.25 13.25 0 0 0 7.268 2.168c8.722 0 13.49-7.352 13.49-13.728 0-.209-.004-.417-.013-.624a9.698 9.698 0 0 0 2.366-2.497z"/>
    </g>
</svg>
