<svg xmlns="http://www.w3.org/2000/svg" width="16" height="10" viewBox="0 0 16 10">
    <path fill="#006DF0" fill-rule="evenodd" d="M15.878 8.68a1.173 1.173 0 0 0-.055-.109c-.276-.525-.806-1.17-1.587-1.933l-.016-.018-.009-.008-.008-.01h-.008c-.355-.355-.58-.594-.673-.717-.173-.233-.211-.47-.117-.708.066-.181.316-.563.748-1.146.227-.31.407-.557.54-.744.959-1.341 1.374-2.199 1.247-2.572l-.05-.087c-.033-.053-.119-.1-.257-.144A1.245 1.245 0 0 0 15.1.462l-2.394.017a.296.296 0 0 0-.166.005l-.108.026-.042.022-.033.026a.378.378 0 0 0-.091.092.61.61 0 0 0-.083.153 14.63 14.63 0 0 1-.89 1.968 18.8 18.8 0 0 1-.565.94c-.172.266-.316.462-.432.587a3.075 3.075 0 0 1-.316.302c-.094.076-.166.108-.216.096a5.835 5.835 0 0 1-.141-.035.572.572 0 0 1-.187-.214.997.997 0 0 1-.096-.342 3.955 3.955 0 0 1-.029-.354c-.002-.1-.001-.24.004-.42.006-.18.009-.303.009-.367 0-.222.004-.463.012-.722l.021-.617c.006-.151.008-.312.008-.481 0-.17-.01-.302-.029-.398a1.413 1.413 0 0 0-.087-.28.466.466 0 0 0-.17-.21A.934.934 0 0 0 8.8.138 5.263 5.263 0 0 0 7.68.024C6.65.013 5.987.083 5.693.234a1.13 1.13 0 0 0-.316.263c-.1.128-.113.198-.041.21.332.052.567.177.706.376l.05.105c.039.075.077.21.116.402.039.193.064.405.075.639.028.425.028.79 0 1.093-.028.303-.054.54-.079.709a1.476 1.476 0 0 1-.212.603.147.147 0 0 1-.041.044.595.595 0 0 1-.225.044c-.077 0-.172-.041-.282-.123a2.037 2.037 0 0 1-.345-.336 4.507 4.507 0 0 1-.403-.6c-.15-.256-.305-.56-.466-.91L4.097 2.5a22.294 22.294 0 0 1-.34-.713A14.123 14.123 0 0 1 3.374.88a.575.575 0 0 0-.2-.28l-.04-.026A.848.848 0 0 0 2.81.444L.531.46c-.233 0-.39.056-.474.167L.025.68A.296.296 0 0 0 0 .82c0 .064.017.143.05.236.332.823.694 1.616 1.084 2.38.391.764.73 1.38 1.018 1.845.289.467.582.908.881 1.321.3.415.498.68.595.797.097.116.173.204.228.262l.208.21c.133.14.328.308.586.503.258.195.543.388.856.578.313.189.677.343 1.093.463a3.6 3.6 0 0 0 1.213.145h.956c.194-.018.34-.082.44-.193l.034-.044a.597.597 0 0 0 .062-.162.933.933 0 0 0 .029-.24 3.03 3.03 0 0 1 .054-.678c.041-.201.089-.353.141-.455a1.117 1.117 0 0 1 .32-.385.529.529 0 0 1 .067-.03c.133-.047.29-.002.47.135s.348.307.506.508c.158.201.348.427.57.678.221.25.415.437.581.56l.167.105c.11.07.255.134.432.192a.887.887 0 0 0 .465.044l2.128-.035c.21 0 .374-.037.49-.11.116-.072.186-.153.208-.24a.712.712 0 0 0 .004-.298c-.02-.11-.04-.188-.058-.231z"/>
</svg>
