<svg xmlns="http://www.w3.org/2000/svg" width="16" height="11" viewBox="0 0 16 11">
    <path fill="#CE1312" fill-rule="evenodd" d="M6.511 7.529V3.134l4.184 2.205-4.184 2.19zM15.7 2.373s-.152-1.078-.616-1.552c-.589-.624-1.25-.626-1.552-.663C11.365 0 8.114 0 8.114 0h-.007S4.856 0 2.688.158c-.303.037-.963.04-1.552.663C.672 1.295.52 2.373.52 2.373S.366 3.639.366 4.904v1.187c0 1.265.155 2.53.155 2.53s.15 1.078.615 1.553c.59.623 1.363.604 1.708.669 1.24.12 5.266.157 5.266.157s3.255-.005 5.422-.163c.303-.037.963-.04 1.552-.663.464-.475.616-1.552.616-1.552s.155-1.266.155-2.531V4.904c0-1.265-.155-2.531-.155-2.531z"/>
</svg>
