<svg xmlns="http://www.w3.org/2000/svg" width="32" height="32" viewBox="0 0 32 32">
    <g fill="none" fill-rule="evenodd">
        <rect width="32" height="32" fill="#265D89" rx="1.778"/>
        <path fill="#FFF" d="M9.063 6.667h13.874c1.318 0 2.396 1.103 2.396 2.453v14.205c0 1.349-1.078 2.453-2.396 2.453H9.063c-1.318 0-2.396-1.104-2.396-2.453V9.119c0-1.349 1.078-2.452 2.396-2.452zM20.265 8.79a.853.853 0 0 0-.84.86v2.06c0 .473.377.86.84.86h2.11c.461 0 .84-.387.84-.86V9.65a.853.853 0 0 0-.84-.86h-2.11zm2.959 5.958H21.58c.155.52.24 1.07.24 1.64 0 3.179-2.599 5.756-5.803 5.756-3.204 0-5.802-2.577-5.802-5.756 0-.57.084-1.12.24-1.64H8.74v8.073c0 .418.334.76.742.76h12.999a.753.753 0 0 0 .742-.76v-8.073zm-7.206-2.286c-2.07 0-3.75 1.665-3.75 3.719 0 2.053 1.68 3.719 3.75 3.719 2.07 0 3.749-1.666 3.749-3.72 0-2.053-1.679-3.718-3.75-3.718z"/>
    </g>
</svg>
