<svg xmlns="http://www.w3.org/2000/svg" width="24" height="24" viewBox="0 0 24 24">
    <g fill="none" fill-rule="evenodd">
        <path fill="#EA4335" d="M11.886 4.596c2.232 0 3.737.964 4.596 1.77l3.354-3.276C17.776 1.175 15.095 0 11.886 0 7.237 0 3.222 2.668 1.268 6.55L5.11 9.535c.964-2.866 3.632-4.94 6.775-4.94z"/>
        <path fill="#4285F4" d="M23.296 12.15c0-.977-.08-1.69-.25-2.43h-11.16v4.41h6.55c-.132 1.097-.845 2.748-2.43 3.857l3.75 2.905c2.246-2.073 3.54-5.124 3.54-8.742z"/>
        <path fill="#FBBC05" d="M5.124 14.236a7.317 7.317 0 0 1-.396-2.35c0-.82.145-1.611.383-2.351L1.268 6.55A11.896 11.896 0 0 0 0 11.886C0 13.8.462 15.61 1.268 17.22l3.856-2.985z"/>
        <path fill="#34A853" d="M11.886 23.771c3.209 0 5.903-1.056 7.87-2.879l-3.75-2.905c-1.004.7-2.35 1.189-4.12 1.189-3.143 0-5.811-2.074-6.762-4.94l-3.843 2.985c1.955 3.883 5.956 6.55 10.605 6.55z"/>
        <path d="M0 0h23.771v23.771H0z"/>
    </g>
</svg>
