<svg xmlns="http://www.w3.org/2000/svg" viewBox="0 0 38 46"><defs><style>.a{fill:#e8b7a7;}.b{fill:#fff;}.c{fill:#cb928b;}.d{fill:#f4d3c1;}.e{fill:#fbefda;}</style></defs><path class="a" d="M30,24.93h0l2.32-4.28,4.86-9h0v0L20.34,10.11h0L21.54,12,30,24.93Zm-1.67-5-4.15-6.31a.59.59,0,0,1,0-.6l.44-.83a.58.58,0,0,1,.56-.3l7.59.7a.63.63,0,0,1,.44.26L34,14a.59.59,0,0,1,0,.6l-3.1,5.71a.58.58,0,0,1-.51.31h0l-1-.09A1.34,1.34,0,0,1,28.37,19.94Z"/><path class="b" d="M5.64,20.65,8,24.93H8l8.46-12.87,1.28-2h0L.77,11.65v0h0ZM4,14l.75-1.15a.63.63,0,0,1,.44-.26l7.59-.7a.58.58,0,0,1,.56.3l.44.83a.59.59,0,0,1,0,.6L9.63,19.94a1.34,1.34,0,0,1-1,.6l-1,.09h0a.58.58,0,0,1-.51-.31L4,14.61A.59.59,0,0,1,4,14Z"/><path class="a" d="M23.84,31.89a.38.38,0,0,0,0,.1.4.4,0,0,0,.43.3h0l.34,0,.95-.09c.21,0,.64-.07,1-.08l2.6-4.82.23-.41v0H8.58v0l.23.42,2.6,4.81c.38,0,.81.06,1,.08l1,.09.34,0h0a.4.4,0,0,0,.43-.3.38.38,0,0,0,0-.1c-.07-.23-.13-.48-.16-.61a10,10,0,0,1-.39-1.94.42.42,0,0,1,0-.1.33.33,0,0,1,.29-.24.46.46,0,0,1,.29.13.68.68,0,0,1,.11.16c.18.32.48,1,.76,1.73.07.19.15.38.22.55a1.38,1.38,0,0,0,.43.58,1.43,1.43,0,0,0,.81.29l1.12,0h0a.87.87,0,0,0,.42-.23.85.85,0,0,0,.25-.56c0-.1,0-.21,0-.32A17.25,17.25,0,0,1,18.61,29a1.11,1.11,0,0,1,.06-.26.38.38,0,0,1,.66,0,1.11,1.11,0,0,1,.06.26,17.25,17.25,0,0,1,.21,2.41c0,.11,0,.22,0,.32a.85.85,0,0,0,.25.56.87.87,0,0,0,.42.23h0l1.12,0a1.43,1.43,0,0,0,.81-.29,1.38,1.38,0,0,0,.43-.58c.07-.17.15-.36.22-.55.28-.7.58-1.41.76-1.73a.68.68,0,0,1,.11-.16.46.46,0,0,1,.29-.13.33.33,0,0,1,.29.24.42.42,0,0,1,0,.1A10,10,0,0,1,24,31.28C24,31.41,23.91,31.66,23.84,31.89Z"/><polygon class="c" points="32.76 22.66 30.89 26.09 31.17 26.38 38 33.57 38 33.56 38 33.56 38 23.27 38 12.97 32.76 22.66"/><path class="d" d="M8.67,37.27l-.17-6.2c0-.9-.69-2.64-1.59-2.68a.54.54,0,0,0-.41.2.52.52,0,0,0-.1.27l-.19,8.47c0,.22,0,.4,0,.49v0a1.13,1.13,0,0,0,.53.92L17,45.09,14.8,41h0Z"/><polygon class="d" points="36.39 10.28 19.66 -0.01 19.66 0 19.65 -0.01 19.66 4.37 19.65 8.73 36.39 10.28"/><path class="e" d="M11.21,22.3,9.79,24.39,9,25.53H29l-.77-1.14L26.79,22.3,24,18.1l-5-7.65h0L14,18.1Zm3.66-1.9h0c0-.06,0-.12.05-.18a18.25,18.25,0,0,1,1.44-3,28.65,28.65,0,0,1,2.32-3.43.35.35,0,0,1,.31-.15h0a.35.35,0,0,1,.31.15,29.89,29.89,0,0,1,2.32,3.43,17.88,17.88,0,0,1,1.44,3c0,.06,0,.12.05.18h0a2.53,2.53,0,0,1,.06.53,2.64,2.64,0,0,1-.05.6c0,.1-.05.19-.08.29l0,.1-.13.2a2.75,2.75,0,0,1-1.33.9l-.37.08H20.7c-.48-.1-1.19-.79-1.62-.9h-.16c-.43.11-1.14.8-1.62.9h-.49L16.44,23a2.75,2.75,0,0,1-1.33-.9l-.13-.2,0-.1c0-.1-.06-.19-.08-.29a2.64,2.64,0,0,1,0-.6A2.53,2.53,0,0,1,14.87,20.4Z"/><polygon class="d" points="0 33.56 0 33.57 6.83 26.38 7.11 26.09 5.24 22.66 0 12.97 0 23.27 0 33.56 0 33.56"/><path class="a" d="M26,33.23h0l-.26,0-1,.14c-.21,0-.43.06-.64.09h0a2.05,2.05,0,0,0-.46.25h0a1.79,1.79,0,0,0-.56.77c-.05.15-.11.31-.17.47l-.35.91-.17.46c-.07.14-.09.31-.25.43a.38.38,0,0,1-.18.09.3.3,0,0,1-.13,0h-.07a.55.55,0,0,1-.4-.22.51.51,0,0,1-.09-.18c-.06-.19,0-.33.07-.49l.13-.47.26-.94c0-.09.06-.22.1-.35a.4.4,0,0,0-.41-.51h0l-1,0a.78.78,0,0,0-.47.23.82.82,0,0,0-.24.54c0,.39,0,1,0,1l0,.65a1,1,0,0,1-.1.49.47.47,0,0,1-.14.14.56.56,0,0,1-.64,0,.47.47,0,0,1-.14-.14,1,1,0,0,1-.1-.49l0-.65s0-.59,0-1a.82.82,0,0,0-.24-.54.78.78,0,0,0-.47-.23l-1,0h0a.4.4,0,0,0-.41.51c0,.13.08.26.1.35l.26.94.13.47c0,.16.13.3.07.49a.51.51,0,0,1-.09.18.55.55,0,0,1-.4.22h-.07a.3.3,0,0,1-.13,0,.38.38,0,0,1-.18-.09c-.16-.12-.18-.29-.25-.43l-.17-.46L15.17,35c-.06-.16-.12-.32-.17-.47a1.79,1.79,0,0,0-.56-.77h0a2.05,2.05,0,0,0-.46-.25h-.05c-.21,0-.43,0-.64-.09l-1-.14-.26,0h0L19,46l7-12.78Z"/><path class="c" d="M31.79,37.87v0c0-.09,0-.27,0-.49l-.19-8.47a.52.52,0,0,0-.1-.27.54.54,0,0,0-.41-.2c-.9,0-1.6,1.78-1.59,2.68l-.17,6.2L23.2,41h0L21,45.09l10.26-6.3A1.13,1.13,0,0,0,31.79,37.87Z"/><polygon class="e" points="18.34 0 18.34 -0.01 1.61 10.28 18.35 8.73 18.34 4.36 18.35 -0.01 18.34 0"/></svg>