<svg xmlns="http://www.w3.org/2000/svg" viewBox="0 0 147.1 54"><defs><style>.a{fill:#fff;}.b{fill:#e8b7a7;}.c{fill:#cb928b;}.d{fill:#f4d3c1;}.e{fill:#fbefda;}</style></defs><path class="a" d="M10.6,10.07V10a4,4,0,0,0,3.25-4C13.85,2.58,11.7,1,7.47,1H.55v.05c.9.63.8,2,.8,4.21V16.09c0,2.65-.1,3.92-.8,4.46v.06H8.26c4.33,0,6.6-2.15,6.6-5.78A4.76,4.76,0,0,0,10.6,10.07ZM5.22,4.32h2c1.66,0,2.62.44,2.62,2.05,0,1.8-1,2-2.62,2h-2ZM7.7,17.24H5.22V11.79H7.7c2.11,0,3.13.8,3.13,2.66S9.81,17.24,7.7,17.24Z"/><path class="a" d="M101.41,1.06c.68.48.58,1.84.58,4.18V8.31H93.84V5.24c0-2.31-.07-3.7.58-4.18V1h-5v.05c.73.48.51,1.84.51,4.18V16.38c0,2.31.2,3.69-.51,4.17v.06h5v-.06c-.68-.48-.58-1.83-.58-4.17V12H102v4.52c0,2.2.07,3.58-.58,4.06v.06h5.1v-.06c-.73-.48-.66-1.83-.66-4.06V5.24c0-2.31,0-3.7.66-4.18V1h-5.1Z"/><path class="a" d="M128.69,16.38V0L115.15,13l0-8.28c0-1.78,0-3.16.6-3.64V1h-5.15v.06c.73.48.66,1.83.66,4.17V21.69l13.46-13-.07,7.67c0,2.31,0,3.69-.66,4.17v.06h5.32v-.06C128.62,20.07,128.69,18.72,128.69,16.38Z"/><path class="a" d="M79.29,1h-7v.06C73,1.55,73,2.9,73,5.13V16.37c0,2.32.05,3.7-.66,4.18v.06h5.19v-.06c-.73-.48-.66-1.84-.66-4.06v-3h2.48c4.48,0,7.09-1.63,7.09-6.23C86.4,3.17,83.78,1,79.29,1Zm3.13,8.46a3.77,3.77,0,0,1-2.54.8h-3V4.36h3a3.87,3.87,0,0,1,2.54.77,2.28,2.28,0,0,1,.93,2A2.84,2.84,0,0,1,82.42,9.47Z"/><path class="a" d="M133.28,1.07c.73.48.66,1.83.66,4.17V16.37c0,2.32.05,3.7-.66,4.18v.06h13.27V15.45c-1.21,1.72-3.19,1.79-5.67,1.79h-3.07V11.79h1.34c1.58,0,3.61-.2,4.06.92h0l1-4.28s-3.06,0-5.32,0h-1.09v-4h3.72c2.2,0,4.29-.15,5,1.23l.05,0V1H133.28Z"/><path class="a" d="M54.68,1.07c.73.48.66,1.83.66,4.17V16.37c0,2.32,0,3.7-.66,4.18v.06H68V15.45c-1.21,1.72-3.19,1.79-5.67,1.79H59.21V11.79h1.34c1.58,0,3.61-.2,4.06.92h0l1-4.28s-3.06,0-5.32,0H59.21v-4h3.72c2.2,0,4.29-.15,5,1.23l0,0V1H54.68Z"/><path class="a" d="M17.66,1.07c.73.48.66,1.83.66,4.17V16.37c0,2.32,0,3.7-.66,4.18v.06H30.93V15.45c-1.21,1.72-3.19,1.79-5.67,1.79H22.19V11.79h1.34c1.58,0,3.61-.2,4.06.92h.05l1-4.28s-3.06,0-5.32,0H22.19v-4h3.72c2.2,0,4.29-.15,5,1.23l.05,0V1H17.66Z"/><path class="a" d="M49.39,16.11v-13c0-1.06.22-1.75.7-2.07V1H44.74v.06c.48.32.54,1,.54,2.07v7.13H41.86a3.4,3.4,0,0,1-2.92-1.64,4.09,4.09,0,0,1-.41-1.89V3.08c0-1,.22-1.7.68-2V1H34v.06c.47.31.53,1,.53,2V7.16a7.76,7.76,0,0,0,.65,3.59,4.43,4.43,0,0,0,1.84,2,7.72,7.72,0,0,0,3.86.74h4.37v2.64c0,2.46-.14,3.93-.89,4.44v.06h5.7v-.06C49.31,20,49.39,18.6,49.39,16.11Z"/><path class="b" d="M58.68,42.39h0L60,40l2.69-4.94h0l-9.31-.85h0l.69,1,4.68,7.12Zm-.92-2.75-2.29-3.47a.34.34,0,0,1,0-.34l.25-.45a.31.31,0,0,1,.3-.17l4.19.39a.31.31,0,0,1,.23.14l.42.64a.3.3,0,0,1,0,.33l-1.7,3.14a.32.32,0,0,1-.28.17h0L58.31,40A.72.72,0,0,1,57.76,39.64Z"/><path class="a" d="M45.24,40l1.28,2.36h0l4.66-7.09.7-1.07h0l-9.3.85h0Zm-.9-3.65.42-.64A.32.32,0,0,1,45,35.6l4.18-.39a.33.33,0,0,1,.31.17l.25.45a.34.34,0,0,1,0,.34l-2.28,3.47a.75.75,0,0,1-.56.33l-.54.05h0a.3.3,0,0,1-.28-.17l-1.71-3.14A.32.32,0,0,1,44.34,36.38Z"/><path class="b" d="M55.27,46.23a.07.07,0,0,0,0,.05.23.23,0,0,0,.23.17h0l.19,0,.52,0,.56-.05,1.44-2.65.12-.23H46.86l.13.24,1.43,2.64.56.05.53,0,.18,0h0a.23.23,0,0,0,.24-.17.43.43,0,0,0,0-.05c0-.13-.07-.27-.09-.34a6,6,0,0,1-.21-1.07.08.08,0,0,1,0,0c0-.08.08-.14.16-.14a.25.25,0,0,1,.16.07.29.29,0,0,1,.06.1c.1.17.26.56.42.94l.12.31a.75.75,0,0,0,.24.32.79.79,0,0,0,.44.16l.62,0h0a.49.49,0,0,0,.23-.13.49.49,0,0,0,.14-.3,1.09,1.09,0,0,1,0-.18,8.86,8.86,0,0,1,.11-1.33.29.29,0,0,1,0-.14.2.2,0,0,1,.36,0,.61.61,0,0,1,0,.14,10.17,10.17,0,0,1,.12,1.33c0,.06,0,.12,0,.18a.41.41,0,0,0,.14.3.41.41,0,0,0,.23.13h0l.62,0a.73.73,0,0,0,.68-.48c0-.1.09-.2.13-.31.15-.38.32-.77.41-.94l.07-.1a.23.23,0,0,1,.15-.07.19.19,0,0,1,.17.14l0,0a5.87,5.87,0,0,1-.22,1.07C55.34,46,55.3,46.1,55.27,46.23Z"/><polygon class="c" points="60.18 41.14 59.15 43.03 59.3 43.19 63.06 47.15 63.06 47.15 63.06 47.15 63.06 41.48 63.06 35.8 60.18 41.14"/><path class="d" d="M46.91,49.19l-.09-3.42c0-.49-.38-1.45-.88-1.47a.27.27,0,0,0-.23.11.25.25,0,0,0-.05.15l-.11,4.66v.3a.63.63,0,0,0,.3.51L51.5,53.5l-1.22-2.24h0Z"/><polygon class="d" points="62.18 34.32 52.96 28.66 52.96 28.66 52.96 28.66 52.96 31.07 52.96 33.47 62.18 34.32"/><path class="e" d="M48.3,40.94l-.77,1.16-.43.62h11l-.43-.62-.78-1.16-1.54-2.31L52.6,34.42h0l-2.76,4.21Zm2-1h0l0-.11a10.23,10.23,0,0,1,.79-1.65,16.48,16.48,0,0,1,1.28-1.89.22.22,0,0,1,.17-.09h0a.24.24,0,0,1,.18.09,16.41,16.41,0,0,1,1.27,1.89,9.85,9.85,0,0,1,.79,1.65l0,.11h0a1,1,0,0,1,0,.29,1.94,1.94,0,0,1,0,.33,1.42,1.42,0,0,1-.05.16s0,0,0,0a.41.41,0,0,1-.07.11,1.49,1.49,0,0,1-.74.5l-.19,0h-.27c-.27-.06-.66-.43-.9-.49h-.08c-.24.06-.64.43-.9.49h-.27l-.2,0a1.58,1.58,0,0,1-.74-.5.39.39,0,0,1-.06-.11l0,0c0-.06,0-.11,0-.16a1.38,1.38,0,0,1,0-.33A1.5,1.5,0,0,1,50.32,39.9Z"/><polygon class="d" points="42.13 47.15 42.13 47.15 45.9 43.19 46.05 43.03 45.02 41.14 42.13 35.8 42.13 41.48 42.13 47.15 42.13 47.15"/><path class="b" d="M56.42,47h0l-.15,0-.53.07-.36,0h0a.94.94,0,0,0-.26.14h0a1,1,0,0,0-.31.43l-.09.25-.2.5-.09.26a.63.63,0,0,1-.13.24l-.11.05h-.11a.35.35,0,0,1-.22-.12,1.17,1.17,0,0,1-.05-.11.45.45,0,0,1,0-.26l.07-.26.15-.52s0-.12,0-.2a.21.21,0,0,0-.22-.27h0l-.55,0a.42.42,0,0,0-.26.12.43.43,0,0,0-.13.3c0,.21,0,.54,0,.54l0,.36a.54.54,0,0,1,0,.27.19.19,0,0,1-.08.07.27.27,0,0,1-.17.06.32.32,0,0,1-.18-.06.27.27,0,0,1-.08-.07.54.54,0,0,1-.05-.27v-.36s0-.33,0-.54a.49.49,0,0,0-.14-.3.42.42,0,0,0-.25-.12l-.55,0h0a.21.21,0,0,0-.23.27,1.67,1.67,0,0,0,.06.2l.14.52.07.26a.45.45,0,0,1,0,.26.37.37,0,0,1,0,.11.32.32,0,0,1-.22.12H51l-.1-.05a.44.44,0,0,1-.13-.24l-.1-.26-.19-.5-.1-.25a.94.94,0,0,0-.3-.43h0a.89.89,0,0,0-.25-.14h0l-.35,0L48.91,47l-.14,0h0l3.83,7,3.83-7Z"/><path class="c" d="M59.64,49.52v0c0-.05,0-.15,0-.27l-.1-4.66a.34.34,0,0,0-.06-.15.25.25,0,0,0-.23-.11c-.49,0-.87,1-.87,1.47l-.09,3.42-3.38,2.07h0L53.7,53.5,59.35,50A.62.62,0,0,0,59.64,49.52Z"/><polygon class="e" points="52.24 28.66 52.24 28.66 43.02 34.32 52.24 33.47 52.24 31.06 52.24 28.66 52.24 28.66"/><path class="a" d="M84.34,45.25a9.46,9.46,0,0,1-3,2.33,8,8,0,0,1-2.57.47h-.55a6.23,6.23,0,0,1-2.69-.7A5.83,5.83,0,0,1,73.23,45a7.57,7.57,0,0,1-.88-3.52c0-.22,0-.43,0-.64A7.47,7.47,0,0,1,73,37.92a6,6,0,0,1,2.13-2.49,6.23,6.23,0,0,1,3.14-1,7.12,7.12,0,0,1,.8,0,7.88,7.88,0,0,1,1.79.28,6.65,6.65,0,0,1,2.05,1,5.91,5.91,0,0,1,1.24,1.4h0V32.37a11.55,11.55,0,0,0-2.42-1,13.36,13.36,0,0,0-7.42.34A9.65,9.65,0,0,0,71,33.81a9.28,9.28,0,0,0-2.18,3.29,11.22,11.22,0,0,0-.76,4.2,11.08,11.08,0,0,0,.74,4.1,9.31,9.31,0,0,0,5.37,5.35,11.35,11.35,0,0,0,4.12.73A12.84,12.84,0,0,0,81.75,51a11.41,11.41,0,0,0,2.65-1.11V45.25Z"/><path class="a" d="M36.78,47.67,31.07,40l4.63-5.46a11.72,11.72,0,0,1,3.64-3.05v-.05H33.47c0,.53-.07,1-1,2.06l-5,5.23V35c0-1.64-.13-3,.52-3.49v-.05H22.93v.05c.74.48.67,1.82.67,4.05V46.83c0,2.31,0,3.69-.67,4.17v.06H28V51c-.65-.48-.52-1.83-.52-4.82V41.62l5.7,7.3c.65.95,1.08,1.46,1.11,2.14h6.09V51C38.84,50.43,37.84,49,36.78,47.67Z"/><path class="a" d="M123.5,46.83V30.45L110,43.44l0-8.28c0-1.78,0-3.16.61-3.64v-.05h-5.16v.05c.73.48.66,1.83.66,4.17V52.15l13.46-13-.06,7.67c0,2.31,0,3.69-.66,4.17v.06h5.32V51C123.43,50.52,123.5,49.17,123.5,46.83Z"/><path class="a" d="M87.14,35.72l0,0c.64-1.11,1.48-.92,3.15-.92h2.82V46.66c0,2.36,0,3.87-.85,4.34v.06h5.56V51c-.92-.47-.85-2-.85-4.34V34.82h1.36c1.67,0,4-.19,4.59.92l0,0V31.47H87.14Z"/></svg>