<svg xmlns="http://www.w3.org/2000/svg" width="115" height="24" viewBox="0 0 115 24">
    <g fill="none" fill-rule="evenodd">
        <path d="M60 13.655L67.034 13.655 63.465 3.724z"/>
        <g>
            <path d="M5.15 12.923L12.024 12.923 8.536 2.87z" transform="translate(55.034 .828)"/>
            <path fill="#76A62D" fill-rule="nonzero" d="M10.633 1.098C10.44.523 10.188.035 9.644.013H8.283C8.244.01 8.202.004 8.159.004h-.437c-.043 0-.085.005-.124.01-.454.069-.68.53-.852 1.07l-6.72 19.11c0 .252.2.456.45.456h1.403c.557 0 .843-.466 1.01-1.027l1.34-3.982c.094-.274.347-.457.634-.457h7.474c.282 0 .535.183.629.453l1.395 4.025c.172.562.471 1.028 1.054 1.028h1.468c.26 0 .47-.205.47-.458l-6.72-19.134zM5.15 12.923L8.54 2.87l3.489 10.053h-6.88z" transform="translate(55.034 .828)"/>
        </g>
        <g fill="#76A62D" fill-rule="nonzero">
            <path d="M14.393.84c-.181-.068-1.23-.06-1.23-.06-.704.018-1.153 0-1.468.436-.047.065-.082.134-.116.203l-4.201 9.077-4.326-9.073c-.034-.069-.069-.138-.116-.203C2.62.785 2.172.798 1.468.785c0 0-1.05-.009-1.23.06-.432.164-.147.694.056 1.13l5.305 10.573c.242.483.367 1.013.367 1.552v6.382c0 .432.35.78.782.78h1.11c.43 0 .78-.348.78-.78v-6.351c0-.54.126-1.07.368-1.553l5.327-10.607c.207-.436.492-.966.06-1.13zM34.675 10.716L21.94.06c-.095-.077-.233-.073-.32.018l-1.882 1.957 10.4 8.68-10.4 8.68 1.882 1.958c.087.09.225.095.32.018l12.735-10.655z" transform="translate(71.172)"/>
            <path d="M43.828 10.802L31.092.147c-.095-.078-.233-.074-.32.017L28.89 2.122l10.4 8.68-10.4 8.68 1.883 1.958c.086.09.224.094.319.017l12.736-10.655z" transform="translate(71.172)"/>
        </g>
        <g fill="#76A62D" fill-rule="nonzero">
            <path d="M15.558.292h-1.601c-.336 0-.603.27-.603.6v19.105c0 .347.284.634.637.634h1.541c.35 0 .638-.283.638-.634V.897c-.005-.335-.276-.605-.612-.605zM9.828 18.209h-7.15V.896c0-.334-.272-.6-.603-.6H.615c-.335 0-.602.27-.602.6v18.899c0 .395.318.712.715.712H9.832c.345 0 .62-.274.62-.617v-1.064c-.004-.339-.284-.617-.624-.617zM52.99 1.415C52.1.815 50.868.39 48.513.39h-4.559c-.542 0-.986.438-.986.982v18.252c0 .557.452 1.012 1.016 1.012h.784c.56 0 1.016-.45 1.016-1.012v-6.857h4.107c.4 0 5.54-.802 5.54-6.377-.004-2.428-1.253-4.169-2.44-4.975zm-4.034 9.25H45.78V2.492h2.265c1.554 0 2.367.278 2.957.677.788.532 1.61 1.681 1.61 3.285.005 3.684-3.388 4.211-3.655 4.211zM40.364 21.086c-.112-.081-.237-.141-.37-.193-1.06-.403-2.605-1.47-3.466-2.024-.667-.429-.564-.768-.474-.91.018-.02.039-.046.056-.068l.005-.004c1.463-1.788 2.311-4.336 2.311-7.552 0-5.686-2.44-10.296-9.066-10.296-6.096 0-9.023 4.61-9.023 10.296 0 5.686 1.967 10.554 9.023 10.554 1.434 0 2.75-.275 3.909-.806h.004c.34-.146.672-.142 1.128.188 3.272 2.415 4.895 3.302 6.057 3.302.56 0 .46-1.715.46-1.715s-.08-.433-.554-.772zM23.23 10.378v-.043c.008-3.86 1.42-7.955 6.139-7.955 5.346 0 6.164 4.095 6.169 7.955v.043c0 4.593-1.494 8.084-6.17 8.084-5.368 0-6.138-4.212-6.138-8.084z" transform="translate(0 .414)"/>
        </g>
    </g>
</svg>
