<svg id="Слой_1" data-name="Слой 1" xmlns="http://www.w3.org/2000/svg" viewBox="0 0 38 46"><defs><style>.cls-1{fill:#f4d3c1;}.cls-2{fill:#cc928b;}.cls-3{fill:#fcefd9;}.cls-4{fill:#e8b8a7;}.cls-5{fill:#fff;}</style></defs><path class="cls-1" d="M17.24,42.54,8.18,37a1,1,0,0,1-.47-.82v0a3.43,3.43,0,0,1,0-.43l.16-7.47A.5.5,0,0,1,8,28a.45.45,0,0,1,.36-.18c.8,0,1.41,1.57,1.41,2.37l.15,5.46L15.29,39h0Z"/><path class="cls-2" d="M30.29,36.12v0a1,1,0,0,1-.47.82l-9.06,5.56L22.71,39h0l5.4-3.32.15-5.46c0-.8.61-2.34,1.41-2.37A.45.45,0,0,1,30,28a.5.5,0,0,1,.09.24l.16,7.47A3.43,3.43,0,0,1,30.29,36.12Z"/><polygon class="cls-1" points="8.5 25.77 8.26 26.02 2.23 32.37 2.23 14.19 6.86 22.74 8.5 25.77"/><polygon class="cls-2" points="35.77 14.19 35.77 32.37 29.74 26.02 29.5 25.77 31.14 22.74 35.77 14.19"/><polygon class="cls-3" points="27.81 25.27 10.19 25.27 10.87 24.27 12.12 22.42 14.59 18.72 19 11.97 19 11.97 19 11.97 23.41 18.72 25.88 22.42 27.13 24.27 27.81 25.27"/><path class="cls-4" d="M25.14,32.07,19,43.35,12.86,32.07h0l.22,0,.86.12.57.08h0a1.81,1.81,0,0,1,.41.22h0a1.53,1.53,0,0,1,.49.68c0,.13.09.27.15.41l.31.81.15.4c.06.13.07.28.22.38a.3.3,0,0,0,.16.08.2.2,0,0,0,.11,0h.07a.54.54,0,0,0,.35-.19.89.89,0,0,0,.08-.17c.05-.16,0-.29-.06-.43l-.12-.41-.23-.84a3.08,3.08,0,0,0-.09-.3.35.35,0,0,1,.36-.45h0l.88,0a.71.71,0,0,1,.62.68c0,.34,0,.87,0,.87l0,.57c0,.14,0,.28.08.43a.37.37,0,0,0,.13.12.48.48,0,0,0,.56,0,.37.37,0,0,0,.13-.12c.1-.15.06-.29.08-.43l0-.57s0-.53,0-.87a.71.71,0,0,1,.62-.68l.88,0h0a.35.35,0,0,1,.36.45,3.08,3.08,0,0,0-.09.3l-.23.84-.12.41c0,.14-.11.27-.06.43a.89.89,0,0,0,.08.17.54.54,0,0,0,.35.19h.07a.2.2,0,0,0,.11,0,.3.3,0,0,0,.16-.08c.15-.1.16-.25.22-.38l.15-.4.31-.81c.06-.14.1-.28.15-.41a1.53,1.53,0,0,1,.49-.68h0a1.81,1.81,0,0,1,.41-.22h0l.57-.08.86-.12.22,0h0Z"/><path class="cls-4" d="M28.2,26.42v0l-.2.36-2.3,4.25c-.34,0-.71.06-.9.07l-.84.09-.3,0h0a.36.36,0,0,1-.38-.26s0-.06,0-.09c.06-.2.12-.43.15-.54a9.71,9.71,0,0,0,.34-1.71.36.36,0,0,0,0-.09.29.29,0,0,0-.26-.21.39.39,0,0,0-.25.11.93.93,0,0,0-.1.15c-.15.28-.42.9-.67,1.52-.06.17-.13.33-.2.49a1.24,1.24,0,0,1-.37.51,1.27,1.27,0,0,1-.72.26l-1,0h0a.75.75,0,0,1-.37-.2.79.79,0,0,1-.22-.5c0-.09,0-.18,0-.28a17.36,17.36,0,0,0-.18-2.13.77.77,0,0,0-.06-.22.32.32,0,0,0-.58,0,.77.77,0,0,0-.06.22,17.36,17.36,0,0,0-.18,2.13c0,.1,0,.19,0,.28a.79.79,0,0,1-.22.5.75.75,0,0,1-.37.2h0l-1,0a1.27,1.27,0,0,1-.72-.26,1.24,1.24,0,0,1-.37-.51c-.07-.16-.14-.32-.2-.49-.25-.62-.52-1.24-.67-1.52a.93.93,0,0,0-.1-.15.39.39,0,0,0-.25-.11.29.29,0,0,0-.26.21.36.36,0,0,0,0,.09,9.71,9.71,0,0,0,.34,1.71l.14.54a.29.29,0,0,1,0,.09.36.36,0,0,1-.38.26h0l-.3,0-.84-.09c-.19,0-.56-.06-.9-.07L10,26.82l-.21-.37v0Z"/><polygon class="cls-5" points="17.86 11.66 17.86 11.66 16.73 13.38 9.26 24.75 9.26 24.74 9.26 24.75 7.21 20.97 2.92 13.05 2.92 13.04 2.91 13.03 17.82 11.67 17.86 11.66"/><polygon class="cls-4" points="35.08 13.04 35.08 13.05 30.79 20.97 28.74 24.75 28.74 24.74 28.74 24.75 21.25 13.34 20.14 11.66 20.18 11.67 35.09 13.03 35.08 13.04"/><polygon class="cls-3" points="18.42 6.59 18.42 10.45 3.65 11.82 18.42 2.74 18.42 2.74 18.42 2.74 18.42 6.59"/><polygon class="cls-1" points="19.58 10.45 19.58 6.61 19.58 2.74 19.58 2.74 19.58 2.74 34.35 11.82 19.58 10.45"/><path d="M15.42,22a.36.36,0,0,0,0,.09,1.62,1.62,0,0,0,.1.18,2.53,2.53,0,0,0,1.19.79,1.73,1.73,0,0,0,.31.07h.38l.06,0c.42-.09,1.05-.69,1.43-.79h.14c.38.1,1,.7,1.43.79l.06,0h.38a1.73,1.73,0,0,0,.31-.07,2.53,2.53,0,0,0,1.19-.79,1.62,1.62,0,0,0,.1-.18.36.36,0,0,0,0-.09c0-.09.06-.17.08-.25a3.07,3.07,0,0,0,0-.53,2,2,0,0,0-.06-.47h0c0-.05,0-.11,0-.16a16.1,16.1,0,0,0-1.27-2.66,26.26,26.26,0,0,0-2-3,.32.32,0,0,0-.27-.14h0a.32.32,0,0,0-.27.14,25.54,25.54,0,0,0-2,3,15.69,15.69,0,0,0-1.27,2.65c0,.05,0,.11,0,.16h0a2,2,0,0,0-.06.47,3.07,3.07,0,0,0,0,.53C15.36,21.83,15.39,21.91,15.42,22Z"/><path d="M31.56,14.1a.52.52,0,0,0-.39-.23l-6.7-.63a.55.55,0,0,0-.49.27l-.39.73a.53.53,0,0,0,0,.53l3.66,5.57a1.18,1.18,0,0,0,.88.53L29,21h0a.5.5,0,0,0,.45-.27l2.73-5a.49.49,0,0,0,0-.53Z"/><path d="M8.49,20.68a.5.5,0,0,0,.45.27H9l.88-.08a1.18,1.18,0,0,0,.88-.53l3.66-5.57a.53.53,0,0,0,0-.53L14,13.51a.55.55,0,0,0-.49-.27l-6.7.63a.52.52,0,0,0-.39.23l-.66,1a.49.49,0,0,0,0,.53Z"/><path d="M19,0,.2,11.53V34.47L19,46,37.8,34.47V11.53ZM35.08,13.05,30.79,21l-2.05,3.78h0L21.25,13.34l-1.11-1.68h0L35.09,13h0ZM23.76,28.64a.36.36,0,0,0,0-.09.29.29,0,0,0-.26-.21.39.39,0,0,0-.25.11.93.93,0,0,0-.1.15c-.15.28-.42.9-.67,1.52-.06.17-.13.33-.2.49a1.24,1.24,0,0,1-.37.51,1.27,1.27,0,0,1-.72.26l-1,0h0a.75.75,0,0,1-.37-.2.79.79,0,0,1-.22-.5c0-.09,0-.18,0-.28a17.36,17.36,0,0,0-.18-2.13.77.77,0,0,0-.06-.22.32.32,0,0,0-.58,0,.77.77,0,0,0-.06.22,17.36,17.36,0,0,0-.18,2.13c0,.1,0,.19,0,.28a.79.79,0,0,1-.22.5.75.75,0,0,1-.37.2h0l-1,0a1.27,1.27,0,0,1-.72-.26,1.24,1.24,0,0,1-.37-.51c-.07-.16-.14-.32-.2-.49-.25-.62-.52-1.24-.67-1.52a.93.93,0,0,0-.1-.15.39.39,0,0,0-.25-.11.29.29,0,0,0-.26.21.36.36,0,0,0,0,.09,9.71,9.71,0,0,0,.34,1.71l.14.54a.29.29,0,0,1,0,.09.36.36,0,0,1-.38.26h0l-.3,0-.84-.09c-.19,0-.56-.06-.9-.07L10,26.82l-.21-.37v0H28.2v0l-.2.36-2.3,4.25c-.34,0-.71.06-.9.07l-.84.09-.3,0h0a.36.36,0,0,1-.38-.26s0-.06,0-.09c.06-.2.12-.43.15-.54A9.71,9.71,0,0,0,23.76,28.64ZM19.58,2.74h0l14.77,9.08L19.58,10.45V2.74ZM19,12h0l4.41,6.75,2.47,3.7,1.25,1.85.68,1H10.19l.68-1,1.25-1.85,2.47-3.7L19,12Zm-.58-9.23h0v7.71L3.65,11.82Zm-.6,8.93h0l-1.12,1.72L9.26,24.75h0L7.21,21,2.92,13.05h0ZM2.23,14.19l4.63,8.55,1.64,3L8.26,26l-6,6.35ZM8.18,37a1,1,0,0,1-.47-.82v0a3.43,3.43,0,0,1,0-.43l.16-7.47A.5.5,0,0,1,8,28a.45.45,0,0,1,.36-.18c.8,0,1.41,1.57,1.41,2.37l.15,5.46L15.29,39h0l1.95,3.59Zm4.68-4.91h0l.22,0,.86.12.57.08h0a1.81,1.81,0,0,1,.41.22h0a1.53,1.53,0,0,1,.49.68c0,.13.09.27.15.41l.31.81.15.4c.06.13.07.28.22.38a.3.3,0,0,0,.16.08.2.2,0,0,0,.11,0h.07a.54.54,0,0,0,.35-.19.89.89,0,0,0,.08-.17c.05-.16,0-.29-.06-.43l-.12-.41-.23-.84a3.08,3.08,0,0,0-.09-.3.35.35,0,0,1,.36-.45h0l.88,0a.71.71,0,0,1,.62.68c0,.34,0,.87,0,.87l0,.57c0,.14,0,.28.08.43a.37.37,0,0,0,.13.12.48.48,0,0,0,.56,0,.37.37,0,0,0,.13-.12c.1-.15.06-.29.08-.43l0-.57s0-.53,0-.87a.71.71,0,0,1,.62-.68l.88,0h0a.35.35,0,0,1,.36.45,3.08,3.08,0,0,0-.09.3l-.23.84-.12.41c0,.14-.11.27-.06.43a.89.89,0,0,0,.08.17.54.54,0,0,0,.35.19h.07a.2.2,0,0,0,.11,0,.3.3,0,0,0,.16-.08c.15-.1.16-.25.22-.38l.15-.4.31-.81c.06-.14.1-.28.15-.41a1.53,1.53,0,0,1,.49-.68h0a1.81,1.81,0,0,1,.41-.22h0l.57-.08.86-.12.22,0h0L19,43.35Zm17.43,4v0a1,1,0,0,1-.47.82l-9.06,5.56L22.71,39h0l5.4-3.32.15-5.46c0-.8.61-2.34,1.41-2.37A.45.45,0,0,1,30,28a.5.5,0,0,1,.09.24l.16,7.47A3.43,3.43,0,0,1,30.29,36.12Zm5.48-3.75-6-6.35-.24-.25,1.64-3,4.63-8.55Z"/></svg>