<svg xmlns="http://www.w3.org/2000/svg" width="35" height="24" viewBox="0 0 35 24">
    <g fill="none">
        <rect width="34.909" height="24" fill="#F5F5F5" rx="1.5"/>
        <path fill="#333" d="M10.488 20.629v-1.161c0-.436-.255-.725-.69-.73-.23-.003-.466.07-.63.329-.124-.205-.32-.328-.593-.328-.191 0-.394.054-.54.27v-.224h-.36v1.844h.364v-1.057c0-.32.187-.49.453-.49.26 0 .405.173.405.486v1.06h.364v-1.056c0-.32.195-.49.454-.49.266 0 .409.173.409.486v1.06h.364zm5.843-1.844h-.653v-.56h-.364v.56h-.378v.335h.378v.872c0 .428.147.683.608.683.169 0 .364-.054.487-.143l-.112-.328c-.116.07-.244.104-.345.104-.195 0-.274-.123-.274-.308v-.88h.653v-.335zm3.326-.046c-.225 0-.386.108-.487.27v-.224h-.357v1.844h.36V19.59c0-.305.143-.501.398-.501.079 0 .161.011.244.046l.12-.347c-.086-.035-.199-.05-.278-.05zm-5.029.193c-.187-.128-.446-.193-.731-.193-.454 0-.732.22-.732.586 0 .3.203.482.604.54l.184.027c.214.03.33.108.33.212 0 .143-.158.235-.424.235-.281 0-.465-.088-.596-.193l-.184.29c.266.2.585.239.776.239.518 0 .803-.247.803-.598 0-.324-.218-.49-.611-.548l-.184-.027c-.169-.023-.319-.077-.319-.2 0-.135.143-.228.356-.228.229 0 .45.089.559.158l.169-.3zm5.438.775c0 .559.364.968.942.968.27 0 .45-.062.645-.22l-.188-.29c-.146.109-.3.167-.469.167-.31-.004-.555-.255-.555-.625s.244-.621.555-.625c.17 0 .323.058.47.166l.187-.29c-.195-.158-.375-.22-.645-.22-.578 0-.942.41-.942.969zm-2.52-.968c-.525 0-.885.39-.885.964 0 .586.375.972.911.972.27 0 .518-.07.735-.258l-.191-.274c-.15.123-.341.193-.521.193-.252 0-.507-.147-.552-.479h1.34c.003-.05.007-.1.007-.154-.004-.575-.342-.964-.844-.964zm-.008.343c.267 0 .447.177.473.467h-.968c.034-.27.207-.467.495-.467zm-4.853.625v-.922h-.36v.224c-.124-.166-.326-.27-.581-.27-.503 0-.885.405-.885.968s.382.968.885.968c.255 0 .457-.104.581-.27v.224h.36v-.922zm-1.451 0c0-.347.214-.625.559-.625.33 0 .547.266.547.625s-.217.625-.547.625c-.345 0-.56-.278-.56-.625zm13.839-.968c-.225 0-.386.108-.488.27v-.224h-.356v1.844h.36V19.59c0-.305.143-.501.398-.501.079 0 .161.011.244.046l.12-.347c-.087-.035-.2-.05-.278-.05zm2.889 1.622c.025 0 .048.005.07.015.022.01.041.022.058.039.016.016.03.036.039.058.009.022.014.046.014.071 0 .025-.005.049-.014.071-.01.022-.023.042-.04.058-.016.017-.035.03-.057.04-.022.01-.045.014-.07.014-.026 0-.05-.005-.072-.014-.022-.01-.041-.023-.058-.04-.016-.016-.029-.036-.038-.058-.01-.022-.014-.046-.014-.07 0-.026.004-.05.014-.072.009-.022.022-.042.038-.058.017-.017.036-.03.058-.04.022-.009.046-.014.072-.014zm0 .326c.019 0 .037-.004.053-.011.017-.008.032-.018.044-.031.012-.013.022-.028.03-.045.007-.018.01-.036.01-.056 0-.02-.003-.038-.01-.056-.008-.017-.018-.032-.03-.045-.012-.013-.027-.023-.044-.03-.016-.007-.034-.011-.053-.011-.02 0-.038.004-.055.011-.017.007-.032.017-.044.03-.013.013-.023.028-.03.045-.007.018-.01.036-.01.056 0 .02.003.038.01.056.007.017.017.032.03.045.012.013.027.023.044.03.017.008.035.012.055.012zm.01-.228c.021 0 .038.004.05.014.01.01.016.023.016.04 0 .014-.004.026-.013.035-.01.009-.022.015-.04.017l.055.064h-.042l-.05-.064h-.017v.064h-.035v-.17h.076zm-4.28-.752v-.922h-.36v.224c-.123-.166-.325-.27-.58-.27-.503 0-.886.405-.886.968s.383.968.885.968c.256 0 .458-.104.582-.27v.224h.36v-.922zm-1.45 0c0-.347.213-.625.558-.625.33 0 .548.266.548.625s-.218.625-.548.625c-.345 0-.559-.278-.559-.625zm5.07 0v-1.662h-.36v.964c-.124-.166-.326-.27-.582-.27-.502 0-.885.405-.885.968s.383.968.885.968c.255 0 .458-.104.582-.27v.224h.36v-.922zm-1.451 0c0-.347.213-.625.558-.625.33 0 .548.266.548.625s-.218.625-.548.625c-.345 0-.558-.278-.558-.625z"/>
        <path fill="#F16122" d="M14.182 4.67L20.727 4.67 20.727 14.961 14.182 14.961z"/>
        <path fill="#E91D25" d="M14.88 9.818c0-2.088 1.006-3.947 2.575-5.146-1.147-.876-2.595-1.4-4.167-1.4-3.724 0-6.743 2.931-6.743 6.546s3.02 6.546 6.743 6.546c1.572 0 3.02-.523 4.167-1.4-1.569-1.198-2.576-3.058-2.576-5.146z"/>
        <path fill="#F79E1D" d="M27.72 14.504v-.223h.088v-.046h-.223v.046h.088v.223h.048zm.433 0v-.27h-.068l-.079.186-.078-.185h-.069v.269h.049V14.3l.073.175h.05l.074-.176v.204h.048zM28.364 9.818c0 3.615-3.019 6.546-6.743 6.546-1.572 0-3.02-.523-4.166-1.4 1.568-1.198 2.575-3.058 2.575-5.146s-1.007-3.947-2.575-5.146c1.147-.876 2.594-1.4 4.166-1.4 3.724 0 6.743 2.931 6.743 6.546z"/>
    </g>
</svg>
