<svg xmlns="http://www.w3.org/2000/svg" width="35" height="24" viewBox="0 0 35 24">
    <g fill="none">
        <rect width="34.909" height="24" fill="#F5F5F5" rx="1.5"/>
        <path fill="#F7B600" d="M0 22.364v-.546h34.91v.546c0 .903-.734 1.636-1.637 1.636H1.636C.733 24 0 23.267 0 22.364z"/>
        <path fill="#1A1F71" d="M0 1.636v.546h34.91v-.546C34.91.733 34.175 0 33.272 0H1.636C.733 0 0 .733 0 1.636zM13.627 7.79l-3.57 8.44h-2.33L5.97 9.496c-.106-.414-.2-.567-.523-.742-.53-.285-1.405-.552-2.174-.718l.052-.244h3.75c.477 0 .907.314 1.016.86l.929 4.884 2.292-5.744h2.315zm9.128 5.685c.01-2.227-3.108-2.35-3.087-3.346.006-.302.297-.624.934-.707.316-.04 1.186-.073 2.173.378l.387-1.79c-.53-.19-1.213-.374-2.062-.374-2.178 0-3.711 1.147-3.723 2.79-.014 1.216 1.094 1.893 1.928 2.298.86.413 1.148.679 1.143 1.048-.006.567-.685.817-1.317.827-1.11.017-1.752-.297-2.264-.534l-.4 1.85c.516.235 1.466.438 2.45.449 2.316 0 3.83-1.134 3.838-2.889zm5.753 2.756h2.037l-1.78-8.44h-1.88c-.423 0-.78.243-.938.618l-3.307 7.822h2.314l.46-1.26h2.827l.267 1.26zm-2.46-2.99l1.16-3.17.667 3.17h-1.827zm-9.272-5.45l-1.822 8.44h-2.203l1.822-8.44h2.203z"/>
    </g>
</svg>
