<svg xmlns="http://www.w3.org/2000/svg" width="32" height="32" viewBox="0 0 32 32">
    <g fill="none" fill-rule="evenodd">
        <rect width="32" height="32" fill="#4A76A8" rx="1.778"/>
        <path fill="#FFF" fill-rule="nonzero" d="M26.877 20.937a1.483 1.483 0 0 0-.074-.14c-.375-.677-1.094-1.508-2.154-2.493l-.022-.022-.011-.011-.011-.012h-.012c-.48-.458-.786-.767-.913-.925-.234-.3-.286-.605-.158-.913.09-.233.428-.725 1.015-1.477.308-.399.552-.718.733-.959 1.3-1.729 1.864-2.834 1.691-3.315l-.067-.112c-.045-.068-.162-.13-.35-.186-.188-.057-.428-.066-.721-.029l-3.248.023a.421.421 0 0 0-.226.006l-.146.033-.057.029-.045.034a.501.501 0 0 0-.124.118.774.774 0 0 0-.112.197c-.354.91-.756 1.756-1.207 2.537-.278.467-.534.87-.767 1.213a5.833 5.833 0 0 1-.586.755 4.09 4.09 0 0 1-.429.39c-.128.097-.225.138-.293.123a8.264 8.264 0 0 1-.192-.045.75.75 0 0 1-.253-.276 1.237 1.237 0 0 1-.13-.44 4.848 4.848 0 0 1-.04-.457 9.54 9.54 0 0 1 .006-.541c.008-.233.012-.391.012-.474 0-.285.005-.595.016-.93l.029-.795c.007-.195.01-.402.01-.62 0-.218-.012-.39-.039-.513a1.755 1.755 0 0 0-.118-.361.608.608 0 0 0-.23-.27 1.303 1.303 0 0 0-.379-.153c-.398-.09-.905-.139-1.522-.147-1.398-.015-2.297.076-2.695.271a1.52 1.52 0 0 0-.429.338c-.135.166-.154.256-.056.27.451.068.77.23.958.486l.068.135c.053.098.105.27.158.519.053.248.087.522.101.823a8.778 8.778 0 0 1 0 1.41c-.037.39-.073.695-.107.913a1.829 1.829 0 0 1-.152.53 2.236 2.236 0 0 1-.135.248.194.194 0 0 1-.057.056.845.845 0 0 1-.304.057c-.105 0-.233-.053-.384-.158a2.705 2.705 0 0 1-.467-.434 5.804 5.804 0 0 1-.547-.773 13.48 13.48 0 0 1-.632-1.173l-.18-.327a28.13 28.13 0 0 1-.463-.919 17.72 17.72 0 0 1-.518-1.167.743.743 0 0 0-.27-.36l-.057-.035a.772.772 0 0 0-.18-.095 1.197 1.197 0 0 0-.26-.074l-3.09.023c-.316 0-.53.071-.643.214l-.045.068a.365.365 0 0 0-.034.18c0 .083.023.184.068.305.451 1.06.942 2.082 1.472 3.067.53.985.99 1.778 1.38 2.38.392.6.79 1.168 1.196 1.702.406.534.675.876.806 1.026.132.15.235.263.31.338l.283.27c.18.181.445.397.794.65.35.251.737.5 1.162.744.425.244.919.443 1.483.597a5.127 5.127 0 0 0 1.646.186h1.297c.263-.022.462-.105.598-.248l.045-.056a.748.748 0 0 0 .084-.209c.027-.094.04-.197.04-.31a3.716 3.716 0 0 1 .073-.874c.056-.259.12-.454.192-.586a1.441 1.441 0 0 1 .434-.496.736.736 0 0 1 .09-.04c.18-.06.393-.001.637.176.245.176.474.394.688.654.215.26.472.55.773.873.3.324.564.564.789.722l.225.135c.151.09.346.173.587.249.24.075.45.094.631.056l2.887-.045c.286 0 .508-.047.665-.141.158-.094.252-.198.282-.31a.873.873 0 0 0 .006-.384 1.415 1.415 0 0 0-.08-.299z"/>
    </g>
</svg>
