<svg width="114" height="33" viewBox="0 0 114 33" fill="none" xmlns="http://www.w3.org/2000/svg">
<g clip-path="url(#clip0)">
<path d="M17.0698 13.8625C16.1784 13.8625 15.4746 14.6274 15.4746 15.5795C15.4746 16.5317 16.194 17.2966 17.0698 17.2966C17.9611 17.2966 18.6649 16.5317 18.6649 15.5795C18.6649 14.6274 17.9455 13.8625 17.0698 13.8625ZM11.3617 13.8625C10.4703 13.8625 9.7666 14.6274 9.7666 15.5795C9.7666 16.5317 10.486 17.2966 11.3617 17.2966C12.2531 17.2966 12.9568 16.5317 12.9568 15.5795C12.9725 14.6274 12.2531 13.8625 11.3617 13.8625Z" fill="white"/>
<path d="M24.6702 0.875641H3.71467C1.94753 0.875641 0.508789 2.31169 0.508789 4.07553V24.9919C0.508789 26.7557 1.94753 28.1918 3.71467 28.1918H21.4487L20.6199 25.3353L22.6216 27.1772L24.5138 28.9098L27.8917 31.8287V4.07553C27.8761 2.31169 26.4374 0.875641 24.6702 0.875641ZM18.6338 21.0896C18.6338 21.0896 18.0708 20.4184 17.6016 19.8409C19.6503 19.2633 20.4322 17.999 20.4322 17.999C19.791 18.4204 19.1811 18.717 18.6338 18.9199C17.8518 19.2477 17.1012 19.4506 16.3662 19.5911C14.8649 19.8721 13.4887 19.794 12.3158 19.5755C11.4244 19.4038 10.6581 19.1697 10.017 18.9043C9.65729 18.7638 9.26633 18.5921 8.87537 18.3736C8.82845 18.3424 8.78154 18.3268 8.73462 18.2955C8.70334 18.2799 8.6877 18.2643 8.67207 18.2643C8.39057 18.1082 8.23419 17.999 8.23419 17.999C8.23419 17.999 8.98484 19.2321 10.9709 19.8252C10.5018 20.4184 9.92314 21.1052 9.92314 21.1052C6.46704 20.9959 5.15341 18.7482 5.15341 18.7482C5.15341 13.7689 7.40535 9.72608 7.40535 9.72608C9.65729 8.05589 11.7841 8.10271 11.7841 8.10271L11.9405 8.29003C9.12558 9.0861 7.84323 10.3192 7.84323 10.3192C7.84323 10.3192 8.18727 10.1319 8.7659 9.88217C10.4392 9.14853 11.7685 8.96122 12.3158 8.89879C12.4097 8.88318 12.4879 8.86757 12.5817 8.86757C13.5356 8.74269 14.6147 8.71147 15.7407 8.83635C17.2263 9.00805 18.8214 9.44511 20.4478 10.3192C20.4478 10.3192 19.2124 9.14853 16.5539 8.35246L16.7728 8.10271C16.7728 8.10271 18.9153 8.05589 21.1516 9.72608C21.1516 9.72608 23.4035 13.7689 23.4035 18.7482C23.4035 18.7326 22.0899 20.9803 18.6338 21.0896ZM42.2478 7.55639H37.0559V13.3786L40.512 16.4849V10.8343H42.3573C43.5302 10.8343 44.1088 11.3963 44.1088 12.3016V16.6254C44.1088 17.5307 43.5615 18.1395 42.3573 18.1395H37.0402V21.433H42.2322C45.0159 21.4486 47.6275 20.0594 47.6275 16.8751V12.2236C47.6431 8.97683 45.0315 7.55639 42.2478 7.55639ZM69.4588 16.8751V12.0987C69.4588 10.3817 72.5552 9.99143 73.4935 11.7084L76.3553 10.5534C75.2294 8.08711 73.1807 7.36908 71.4761 7.36908C68.6925 7.36908 65.9401 8.97683 65.9401 12.0987V16.8751C65.9401 20.0282 68.6925 21.6047 71.4136 21.6047C73.1651 21.6047 75.2606 20.7462 76.4179 18.4985L73.3527 17.0936C72.6021 19.0136 69.4588 18.5453 69.4588 16.8751ZM59.9975 12.7543C58.9184 12.5201 58.1991 12.1299 58.1522 11.4587C58.2147 9.85095 60.7012 9.78851 62.1556 11.3338L64.4545 9.56998C63.0157 7.82175 61.3893 7.35347 59.716 7.35347C57.1669 7.35347 54.6961 8.78952 54.6961 11.5055C54.6961 14.1435 56.7291 15.5639 58.9654 15.9073C60.107 16.0634 61.3737 16.5161 61.3424 17.2966C61.2486 18.7794 58.1834 18.7014 56.7916 17.0156L54.571 19.0916C55.8689 20.7618 57.6361 21.6047 59.2938 21.6047C61.8428 21.6047 64.6734 20.1374 64.7829 17.4526C64.9393 14.0654 62.4684 13.2069 59.9975 12.7543ZM49.5197 21.4174H53.0227V7.55639H49.5197V21.4174ZM108.586 7.55639H103.394V13.3786L106.85 16.4849V10.8343H108.696C109.869 10.8343 110.447 11.3963 110.447 12.3016V16.6254C110.447 17.5307 109.9 18.1395 108.696 18.1395H103.379V21.433H108.586C111.37 21.4486 113.981 20.0594 113.981 16.8751V12.2236C113.981 8.97683 111.37 7.55639 108.586 7.55639ZM83.1111 7.36908C80.2337 7.36908 77.3718 8.93 77.3718 12.1299V16.8595C77.3718 20.0282 80.2493 21.6203 83.1424 21.6203C86.0199 21.6203 88.8817 20.0282 88.8817 16.8595V12.1299C88.8817 8.94561 85.9886 7.36908 83.1111 7.36908ZM85.3631 16.8595C85.3631 17.8585 84.2371 18.3736 83.1268 18.3736C82.0008 18.3736 80.8748 17.8897 80.8748 16.8595V12.1299C80.8748 11.1153 81.9695 10.569 83.0642 10.569C84.2058 10.569 85.3631 11.0529 85.3631 12.1299V16.8595ZM101.455 12.1299C101.377 8.88318 99.1562 7.572 96.2944 7.572H90.7427V21.433H94.2926V17.0312H94.9182L98.1397 21.433H102.518L98.734 16.6722C100.407 16.1415 101.455 14.6898 101.455 12.1299ZM96.3569 14.003H94.2926V10.8343H96.3569C98.5619 10.8343 98.5619 14.003 96.3569 14.003Z" fill="white"/>
</g>
<defs>
<clipPath id="clip0">
<rect width="114" height="32" fill="white" transform="translate(0 0.352203)"/>
</clipPath>
</defs>
</svg>
