<svg width="518" height="89" viewBox="0 0 518 89" fill="none" xmlns="http://www.w3.org/2000/svg">
<path d="M50.84 29.72C50.964 29.1 50.84 28.48 49.724 28.48H40.92C40.3 28.48 39.804 29.1 39.68 29.72L35.96 44.6H29.14L32.86 29.72C32.984 29.1 32.86 28.48 31.744 28.48H22.94C22.32 28.48 21.824 29.1 21.7 29.72L17.98 44.6H8.68C8.06 44.6 7.564 45.22 7.44 45.84L5.58 53.28C5.58 53.9 6.2 54.52 6.82 54.52H15.5L13.64 61.96H4.34C3.72 61.96 3.224 62.58 3.1 63.2L1.24 70.64C1.24 71.26 1.86 71.88 2.48 71.88H11.16L7.44 86.76C7.316 87.38 7.44 88 8.556 88H17.36C17.98 88 18.476 87.38 18.6 86.76L22.32 71.88H29.14L25.42 86.76C25.296 87.38 25.42 88 26.536 88H35.34C35.96 88 36.456 87.38 36.58 86.76L40.3 71.88H49.6C50.22 71.88 50.716 71.26 50.84 70.64L52.7 63.2C52.7 62.58 52.08 61.96 51.46 61.96H42.78L44.64 54.52H53.94C54.56 54.52 55.056 53.9 55.18 53.28L57.04 45.84C57.04 45.22 56.42 44.6 55.8 44.6H47.12L50.84 29.72ZM26.66 54.52H33.48L31.62 61.96H24.8L26.66 54.52ZM80.5661 48.32C81.1861 48.32 81.8061 48.94 81.8061 49.56V86.76C81.8061 87.38 82.4261 88 83.0461 88H94.2061C94.8261 88 95.4461 87.38 95.4461 86.76V48.32C95.4461 44.6 92.9661 42.12 89.2461 42.12V41.5C92.9661 41.5 95.4461 39.02 95.4461 35.3V2.43999C95.4461 1.81999 94.8261 1.19999 94.2061 1.19999H83.0461C82.4261 1.19999 81.8061 1.81999 81.8061 2.43999V34.68C81.8061 35.3 81.1861 35.92 80.5661 35.92H76.8461V2.43999C76.8461 1.81999 76.2261 1.19999 75.6061 1.19999H64.4461C63.8261 1.19999 63.2061 1.81999 63.2061 2.43999V86.76C63.2061 87.38 63.8261 88 64.4461 88H75.6061C76.2261 88 76.8461 87.38 76.8461 86.76V48.32H80.5661ZM111.547 1.19999C107.827 1.19999 105.347 3.68 105.347 7.4V81.8C105.347 85.52 107.827 88 111.547 88H131.387C135.107 88 137.587 85.52 137.587 81.8V7.4C137.587 3.68 135.107 1.19999 131.387 1.19999H111.547ZM123.947 74.36C123.947 74.98 123.327 75.6 122.707 75.6H120.227C119.607 75.6 118.987 74.98 118.987 74.36V14.84C118.987 14.22 119.607 13.6 120.227 13.6H122.707C123.327 13.6 123.947 14.22 123.947 14.84V74.36ZM146.247 30.96C146.247 33.44 147.239 34.68 148.107 35.92L164.847 57.62V74.36C164.847 74.98 164.227 75.6 163.607 75.6H161.127C160.507 75.6 159.887 74.98 159.887 74.36V58.24C159.887 57.62 159.267 57 158.647 57H147.487C146.867 57 146.247 57.62 146.247 58.24V81.8C146.247 85.52 148.727 88 152.447 88H172.287C176.007 88 178.487 85.52 178.487 81.8V55.76C178.487 53.28 177.495 52.04 176.627 50.8L159.887 29.1V14.84C159.887 14.22 160.507 13.6 161.127 13.6H163.607C164.227 13.6 164.847 14.22 164.847 14.84V30.96C164.847 31.58 165.467 32.2 166.087 32.2H177.247C177.867 32.2 178.487 31.58 178.487 30.96V7.4C178.487 3.68 176.007 1.19999 172.287 1.19999H152.447C148.727 1.19999 146.247 3.68 146.247 7.4V30.96ZM214.486 2.43999C214.486 1.81999 213.866 1.19999 213.246 1.19999H184.726C184.106 1.19999 183.486 1.81999 183.486 2.43999V12.36C183.486 12.98 184.106 13.6 184.726 13.6H192.166V86.76C192.166 87.38 192.786 88 193.406 88H204.566C205.186 88 205.806 87.38 205.806 86.76V13.6H213.246C213.866 13.6 214.486 12.98 214.486 12.36V2.43999ZM234.268 2.43999C234.268 1.81999 233.648 1.19999 233.028 1.19999H221.868C221.248 1.19999 220.628 1.81999 220.628 2.43999V86.76C220.628 87.38 221.248 88 221.868 88H233.028C233.648 88 234.268 87.38 234.268 86.76V2.43999ZM264.081 32.2H275.241C275.861 32.2 276.481 31.58 276.481 30.96V7.4C276.481 3.68 274.001 1.19999 270.281 1.19999H250.441C246.721 1.19999 244.241 3.68 244.241 7.4V81.8C244.241 85.52 246.721 88 250.441 88H270.281C274.001 88 276.481 85.52 276.481 81.8V58.24C276.481 57.62 275.861 57 275.241 57H264.081C263.461 57 262.841 57.62 262.841 58.24V74.36C262.841 74.98 262.221 75.6 261.601 75.6H259.121C258.501 75.6 257.881 74.98 257.881 74.36V14.84C257.881 14.22 258.501 13.6 259.121 13.6H261.601C262.221 13.6 262.841 14.22 262.841 14.84V30.96C262.841 31.58 263.461 32.2 264.081 32.2ZM291.371 1.19999C287.651 1.19999 285.171 3.68 285.171 7.4V81.8C285.171 85.52 287.651 88 291.371 88H311.211C314.931 88 317.411 85.52 317.411 81.8V7.4C317.411 3.68 314.931 1.19999 311.211 1.19999H291.371ZM303.771 74.36C303.771 74.98 303.151 75.6 302.531 75.6H300.051C299.431 75.6 298.811 74.98 298.811 74.36V14.84C298.811 14.22 299.431 13.6 300.051 13.6H302.531C303.151 13.6 303.771 14.22 303.771 14.84V74.36ZM345.912 86.76C345.912 87.38 346.532 88 347.152 88H358.312C358.932 88 359.552 87.38 359.552 86.76V2.43999C359.552 1.81999 358.932 1.19999 358.312 1.19999H347.152C346.532 1.19999 345.912 1.81999 345.912 2.43999V35.92L340.952 23.52V2.43999C340.952 1.81999 340.332 1.19999 339.712 1.19999H328.552C327.932 1.19999 327.312 1.81999 327.312 2.43999V86.76C327.312 87.38 327.932 88 328.552 88H339.712C340.332 88 340.952 87.38 340.952 86.76V48.32L345.912 60.72V86.76ZM388.052 86.76C388.052 87.38 388.672 88 389.292 88H400.452C401.072 88 401.692 87.38 401.692 86.76V2.43999C401.692 1.81999 401.072 1.19999 400.452 1.19999H389.292C388.672 1.19999 388.052 1.81999 388.052 2.43999V35.92L383.092 23.52V2.43999C383.092 1.81999 382.472 1.19999 381.852 1.19999H370.692C370.072 1.19999 369.452 1.81999 369.452 2.43999V86.76C369.452 87.38 370.072 88 370.692 88H381.852C382.472 88 383.092 87.38 383.092 86.76V48.32L388.052 60.72V86.76ZM440.113 37.16C440.113 36.54 439.493 35.92 438.873 35.92H425.233V13.6H441.353C441.973 13.6 442.593 12.98 442.593 12.36V2.43999C442.593 1.81999 441.973 1.19999 441.353 1.19999H412.833C412.213 1.19999 411.593 1.81999 411.593 2.43999V86.76C411.593 87.38 412.213 88 412.833 88H441.353C441.973 88 442.593 87.38 442.593 86.76V76.84C442.593 76.22 441.973 75.6 441.353 75.6H425.233V48.32H438.873C439.493 48.32 440.113 47.7 440.113 47.08V37.16ZM468.609 32.2H479.769C480.389 32.2 481.009 31.58 481.009 30.96V7.4C481.009 3.68 478.529 1.19999 474.809 1.19999H454.969C451.249 1.19999 448.769 3.68 448.769 7.4V81.8C448.769 85.52 451.249 88 454.969 88H474.809C478.529 88 481.009 85.52 481.009 81.8V58.24C481.009 57.62 480.389 57 479.769 57H468.609C467.989 57 467.369 57.62 467.369 58.24V74.36C467.369 74.98 466.749 75.6 466.129 75.6H463.649C463.029 75.6 462.409 74.98 462.409 74.36V14.84C462.409 14.22 463.029 13.6 463.649 13.6H466.129C466.749 13.6 467.369 14.22 467.369 14.84V30.96C467.369 31.58 467.989 32.2 468.609 32.2ZM516.978 2.43999C516.978 1.81999 516.358 1.19999 515.738 1.19999H487.218C486.598 1.19999 485.978 1.81999 485.978 2.43999V12.36C485.978 12.98 486.598 13.6 487.218 13.6H494.658V86.76C494.658 87.38 495.278 88 495.898 88H507.058C507.678 88 508.298 87.38 508.298 86.76V13.6H515.738C516.358 13.6 516.978 12.98 516.978 12.36V2.43999Z" fill="#1E1852"/>
<path d="M50.84 29.72L51.8101 29.9625L51.8159 29.9394L51.8206 29.9161L50.84 29.72ZM39.68 29.72L40.6501 29.9625L40.6559 29.9394L40.6606 29.9161L39.68 29.72ZM35.96 44.6V45.6H36.7408L36.9301 44.8425L35.96 44.6ZM29.14 44.6L28.1699 44.3575L27.8592 45.6H29.14V44.6ZM32.86 29.72L33.8301 29.9625L33.8359 29.9394L33.8406 29.9161L32.86 29.72ZM21.7 29.72L22.6701 29.9625L22.6759 29.9394L22.6806 29.9161L21.7 29.72ZM17.98 44.6V45.6H18.7608L18.9501 44.8425L17.98 44.6ZM7.44 45.84L8.41014 46.0825L8.41591 46.0594L8.42058 46.0361L7.44 45.84ZM5.58 53.28L4.60986 53.0375L4.58 53.1569V53.28H5.58ZM15.5 54.52L16.4701 54.7625L16.7808 53.52H15.5V54.52ZM13.64 61.96V62.96H14.4208L14.6101 62.2025L13.64 61.96ZM3.1 63.2L4.07014 63.4425L4.07591 63.4194L4.08058 63.3961L3.1 63.2ZM1.24 70.64L0.269858 70.3975L0.24 70.5169V70.64H1.24ZM11.16 71.88L12.1301 72.1225L12.4408 70.88H11.16V71.88ZM7.44 86.76L6.46986 86.5175L6.46409 86.5406L6.45942 86.5639L7.44 86.76ZM18.6 86.76L17.6299 86.5175L17.6241 86.5405L17.6194 86.5639L18.6 86.76ZM22.32 71.88V70.88H21.5392L21.3499 71.6375L22.32 71.88ZM29.14 71.88L30.1101 72.1225L30.4208 70.88H29.14V71.88ZM25.42 86.76L24.4499 86.5175L24.4441 86.5405L24.4394 86.5639L25.42 86.76ZM36.58 86.76L35.6099 86.5175L35.6041 86.5405L35.5994 86.5639L36.58 86.76ZM40.3 71.88V70.88H39.5192L39.3299 71.6375L40.3 71.88ZM50.84 70.64L49.8699 70.3975L49.8641 70.4205L49.8594 70.4439L50.84 70.64ZM52.7 63.2L53.6701 63.4425L53.7 63.3231V63.2H52.7ZM42.78 61.96L41.8099 61.7175L41.4992 62.96H42.78V61.96ZM44.64 54.52V53.52H43.8592L43.6699 54.2775L44.64 54.52ZM55.18 53.28L54.2099 53.0375L54.2041 53.0606L54.1994 53.0839L55.18 53.28ZM57.04 45.84L58.0101 46.0825L58.04 45.9631V45.84H57.04ZM47.12 44.6L46.1499 44.3575L45.8392 45.6H47.12V44.6ZM26.66 54.52V53.52H25.8792L25.6899 54.2775L26.66 54.52ZM33.48 54.52L34.4501 54.7625L34.7608 53.52H33.48V54.52ZM31.62 61.96V62.96H32.4008L32.5901 62.2025L31.62 61.96ZM24.8 61.96L23.8299 61.7175L23.5192 62.96H24.8V61.96ZM51.8206 29.9161C51.8974 29.5318 51.9605 28.885 51.5791 28.3128C51.1594 27.6833 50.4425 27.48 49.724 27.48V29.48C49.9169 29.48 49.9971 29.5077 50.0097 29.5128C50.0136 29.5144 50.0005 29.5095 49.979 29.4925C49.9569 29.475 49.9342 29.451 49.915 29.4222C49.8758 29.3635 49.8764 29.3241 49.8781 29.3444C49.8789 29.3544 49.8794 29.3746 49.8768 29.4064C49.8742 29.4382 49.8688 29.4772 49.8594 29.5239L51.8206 29.9161ZM49.724 27.48H40.92V29.48H49.724V27.48ZM40.92 27.48C40.2596 27.48 39.7325 27.8106 39.3829 28.1852C39.0344 28.5587 38.7964 29.0389 38.6994 29.5239L40.6606 29.9161C40.6876 29.7811 40.7596 29.6413 40.8451 29.5498C40.9295 29.4594 40.9604 29.48 40.92 29.48V27.48ZM38.7099 29.4775L34.9899 44.3575L36.9301 44.8425L40.6501 29.9625L38.7099 29.4775ZM35.96 43.6H29.14V45.6H35.96V43.6ZM30.1101 44.8425L33.8301 29.9625L31.8899 29.4775L28.1699 44.3575L30.1101 44.8425ZM33.8406 29.9161C33.9174 29.5318 33.9805 28.885 33.5991 28.3128C33.1794 27.6833 32.4625 27.48 31.744 27.48V29.48C31.9369 29.48 32.0171 29.5077 32.0297 29.5128C32.0336 29.5144 32.0205 29.5095 31.999 29.4925C31.9769 29.475 31.9542 29.451 31.935 29.4222C31.8958 29.3635 31.8964 29.3241 31.8981 29.3444C31.8989 29.3544 31.8994 29.3746 31.8968 29.4064C31.8942 29.4382 31.8888 29.4772 31.8794 29.5239L33.8406 29.9161ZM31.744 27.48H22.94V29.48H31.744V27.48ZM22.94 27.48C22.2796 27.48 21.7525 27.8106 21.4029 28.1852C21.0544 28.5587 20.8164 29.0389 20.7194 29.5239L22.6806 29.9161C22.7076 29.7811 22.7796 29.6413 22.8651 29.5498C22.9495 29.4594 22.9804 29.48 22.94 29.48V27.48ZM20.7299 29.4775L17.0099 44.3575L18.9501 44.8425L22.6701 29.9625L20.7299 29.4775ZM17.98 43.6H8.68V45.6H17.98V43.6ZM8.68 43.6C8.01959 43.6 7.49252 43.9306 7.14294 44.3052C6.79437 44.6787 6.55641 45.1589 6.45942 45.6439L8.42058 46.0361C8.44759 45.9011 8.51963 45.7613 8.60506 45.6698C8.68948 45.5794 8.72041 45.6 8.68 45.6V43.6ZM6.46986 45.5975L4.60986 53.0375L6.55014 53.5225L8.41014 46.0825L6.46986 45.5975ZM4.58 53.28C4.58 53.9152 4.88755 54.4668 5.26039 54.8396C5.63324 55.2125 6.18477 55.52 6.82 55.52V53.52C6.83146 53.52 6.82023 53.5225 6.78757 53.5073C6.75486 53.492 6.71407 53.4649 6.67461 53.4254C6.63514 53.3859 6.60801 53.3451 6.59275 53.3124C6.57751 53.2798 6.58 53.2685 6.58 53.28H4.58ZM6.82 55.52H15.5V53.52H6.82V55.52ZM14.5299 54.2775L12.6699 61.7175L14.6101 62.2025L16.4701 54.7625L14.5299 54.2775ZM13.64 60.96H4.34V62.96H13.64V60.96ZM4.34 60.96C3.67959 60.96 3.15252 61.2906 2.80294 61.6652C2.45437 62.0387 2.21641 62.5189 2.11942 63.0039L4.08058 63.3961C4.10759 63.2611 4.17963 63.1213 4.26506 63.0298C4.34948 62.9394 4.38041 62.96 4.34 62.96V60.96ZM2.12986 62.9575L0.269858 70.3975L2.21014 70.8825L4.07014 63.4425L2.12986 62.9575ZM0.24 70.64C0.24 71.2752 0.547548 71.8268 0.920394 72.1996C1.29324 72.5725 1.84477 72.88 2.48 72.88V70.88C2.49146 70.88 2.48023 70.8825 2.44757 70.8673C2.41486 70.852 2.37407 70.8249 2.33461 70.7854C2.29514 70.7459 2.26801 70.7051 2.25275 70.6724C2.23751 70.6398 2.24 70.6285 2.24 70.64H0.24ZM2.48 72.88H11.16V70.88H2.48V72.88ZM10.1899 71.6375L6.46986 86.5175L8.41014 87.0025L12.1301 72.1225L10.1899 71.6375ZM6.45942 86.5639C6.38257 86.9481 6.31947 87.595 6.70095 88.1672C7.12063 88.7967 7.83751 89 8.556 89V87C8.36309 87 8.2829 86.9723 8.27033 86.9672C8.26637 86.9656 8.2795 86.9705 8.30096 86.9875C8.32307 87.005 8.34582 87.0289 8.36505 87.0578C8.40417 87.1165 8.40357 87.1559 8.40194 87.1356C8.40114 87.1256 8.40056 87.1054 8.40319 87.0735C8.40581 87.0418 8.41124 87.0028 8.42058 86.9561L6.45942 86.5639ZM8.556 89H17.36V87H8.556V89ZM17.36 89C18.0204 89 18.5475 88.6694 18.8971 88.2948C19.2456 87.9213 19.4836 87.4411 19.5806 86.9561L17.6194 86.5639C17.5924 86.6989 17.5204 86.8387 17.4349 86.9302C17.3505 87.0206 17.3196 87 17.36 87V89ZM19.5701 87.0025L23.2901 72.1225L21.3499 71.6375L17.6299 86.5175L19.5701 87.0025ZM22.32 72.88H29.14V70.88H22.32V72.88ZM28.1699 71.6375L24.4499 86.5175L26.3901 87.0025L30.1101 72.1225L28.1699 71.6375ZM24.4394 86.5639C24.3626 86.9481 24.2995 87.595 24.681 88.1672C25.1006 88.7967 25.8175 89 26.536 89V87C26.3431 87 26.2629 86.9723 26.2503 86.9672C26.2464 86.9656 26.2595 86.9705 26.281 86.9875C26.3031 87.005 26.3258 87.0289 26.3451 87.0578C26.3842 87.1165 26.3836 87.1559 26.3819 87.1356C26.3811 87.1256 26.3806 87.1054 26.3832 87.0735C26.3858 87.0418 26.3912 87.0028 26.4006 86.9561L24.4394 86.5639ZM26.536 89H35.34V87H26.536V89ZM35.34 89C36.0004 89 36.5275 88.6694 36.8771 88.2948C37.2256 87.9213 37.4636 87.4411 37.5606 86.9561L35.5994 86.5639C35.5724 86.6989 35.5004 86.8387 35.4149 86.9302C35.3305 87.0206 35.2996 87 35.34 87V89ZM37.5501 87.0025L41.2701 72.1225L39.3299 71.6375L35.6099 86.5175L37.5501 87.0025ZM40.3 72.88H49.6V70.88H40.3V72.88ZM49.6 72.88C50.2604 72.88 50.7875 72.5494 51.1371 72.1748C51.4856 71.8013 51.7236 71.3211 51.8206 70.8361L49.8594 70.4439C49.8324 70.5789 49.7604 70.7187 49.6749 70.8102C49.5905 70.9006 49.5596 70.88 49.6 70.88V72.88ZM51.8101 70.8825L53.6701 63.4425L51.7299 62.9575L49.8699 70.3975L51.8101 70.8825ZM53.7 63.2C53.7 62.5648 53.3925 62.0132 53.0196 61.6404C52.6468 61.2675 52.0952 60.96 51.46 60.96V62.96C51.4485 62.96 51.4598 62.9575 51.4924 62.9727C51.5251 62.988 51.5659 63.0151 51.6054 63.0546C51.6449 63.0941 51.672 63.1349 51.6873 63.1676C51.7025 63.2002 51.7 63.2115 51.7 63.2H53.7ZM51.46 60.96H42.78V62.96H51.46V60.96ZM43.7501 62.2025L45.6101 54.7625L43.6699 54.2775L41.8099 61.7175L43.7501 62.2025ZM44.64 55.52H53.94V53.52H44.64V55.52ZM53.94 55.52C54.6004 55.52 55.1275 55.1894 55.4771 54.8148C55.8256 54.4413 56.0636 53.9611 56.1606 53.4761L54.1994 53.0839C54.1724 53.2189 54.1004 53.3587 54.0149 53.4502C53.9305 53.5406 53.8996 53.52 53.94 53.52V55.52ZM56.1501 53.5225L58.0101 46.0825L56.0699 45.5975L54.2099 53.0375L56.1501 53.5225ZM58.04 45.84C58.04 45.2048 57.7325 44.6532 57.3596 44.2804C56.9868 43.9075 56.4352 43.6 55.8 43.6V45.6C55.7885 45.6 55.7998 45.5975 55.8324 45.6127C55.8651 45.628 55.9059 45.6551 55.9454 45.6946C55.9849 45.7341 56.012 45.7749 56.0273 45.8076C56.0425 45.8402 56.04 45.8515 56.04 45.84H58.04ZM55.8 43.6H47.12V45.6H55.8V43.6ZM48.0901 44.8425L51.8101 29.9625L49.8699 29.4775L46.1499 44.3575L48.0901 44.8425ZM26.66 55.52H33.48V53.52H26.66V55.52ZM32.5099 54.2775L30.6499 61.7175L32.5901 62.2025L34.4501 54.7625L32.5099 54.2775ZM31.62 60.96H24.8V62.96H31.62V60.96ZM25.7701 62.2025L27.6301 54.7625L25.6899 54.2775L23.8299 61.7175L25.7701 62.2025ZM89.2461 42.12H88.2461V43.12H89.2461V42.12ZM89.2461 41.5V40.5H88.2461V41.5H89.2461ZM76.8461 35.92H75.8461V36.92H76.8461V35.92ZM76.8461 48.32V47.32H75.8461V48.32H76.8461ZM80.5661 49.32C80.5546 49.32 80.5659 49.3175 80.5985 49.3327C80.6312 49.348 80.672 49.3751 80.7115 49.4146C80.751 49.4541 80.7781 49.4949 80.7933 49.5276C80.8086 49.5602 80.8061 49.5715 80.8061 49.56H82.8061C82.8061 48.9248 82.4985 48.3732 82.1257 48.0004C81.7529 47.6275 81.2013 47.32 80.5661 47.32V49.32ZM80.8061 49.56V86.76H82.8061V49.56H80.8061ZM80.8061 86.76C80.8061 87.3952 81.1136 87.9468 81.4865 88.3196C81.8593 88.6925 82.4109 89 83.0461 89V87C83.0576 87 83.0463 87.0025 83.0137 86.9873C82.981 86.972 82.9402 86.9449 82.9007 86.9054C82.8612 86.8659 82.8341 86.8251 82.8188 86.7924C82.8036 86.7598 82.8061 86.7485 82.8061 86.76H80.8061ZM83.0461 89H94.2061V87H83.0461V89ZM94.2061 89C94.8413 89 95.3929 88.6925 95.7657 88.3196C96.1385 87.9468 96.4461 87.3952 96.4461 86.76H94.4461C94.4461 86.7485 94.4486 86.7598 94.4333 86.7924C94.4181 86.8251 94.391 86.8659 94.3515 86.9054C94.312 86.9449 94.2712 86.972 94.2385 86.9873C94.2059 87.0025 94.1946 87 94.2061 87V89ZM96.4461 86.76V48.32H94.4461V86.76H96.4461ZM96.4461 48.32C96.4461 46.2327 95.746 44.4157 94.4482 43.1179C93.1504 41.8201 91.3333 41.12 89.2461 41.12V43.12C90.8788 43.12 92.1618 43.6599 93.034 44.5321C93.9062 45.4043 94.4461 46.6872 94.4461 48.32H96.4461ZM90.2461 42.12V41.5H88.2461V42.12H90.2461ZM89.2461 42.5C91.3333 42.5 93.1504 41.7999 94.4482 40.5021C95.746 39.2043 96.4461 37.3872 96.4461 35.3H94.4461C94.4461 36.9328 93.9062 38.2157 93.034 39.0879C92.1618 39.9601 90.8788 40.5 89.2461 40.5V42.5ZM96.4461 35.3V2.43999H94.4461V35.3H96.4461ZM96.4461 2.43999C96.4461 1.80476 96.1385 1.25323 95.7657 0.880387C95.3929 0.507541 94.8413 0.199994 94.2061 0.199994V2.19999C94.1946 2.19999 94.2059 2.1975 94.2385 2.21274C94.2712 2.228 94.312 2.25513 94.3515 2.2946C94.391 2.33407 94.4181 2.37486 94.4333 2.40757C94.4486 2.44022 94.4461 2.45146 94.4461 2.43999H96.4461ZM94.2061 0.199994H83.0461V2.19999H94.2061V0.199994ZM83.0461 0.199994C82.4109 0.199994 81.8593 0.507541 81.4865 0.880387C81.1136 1.25323 80.8061 1.80476 80.8061 2.43999H82.8061C82.8061 2.45146 82.8036 2.44022 82.8188 2.40757C82.8341 2.37486 82.8612 2.33407 82.9007 2.2946C82.9402 2.25513 82.981 2.228 83.0137 2.21274C83.0463 2.1975 83.0576 2.19999 83.0461 2.19999V0.199994ZM80.8061 2.43999V34.68H82.8061V2.43999H80.8061ZM80.8061 34.68C80.8061 34.6685 80.8086 34.6798 80.7933 34.7124C80.7781 34.7451 80.751 34.7859 80.7115 34.8254C80.672 34.8649 80.6312 34.892 80.5985 34.9073C80.5659 34.9225 80.5546 34.92 80.5661 34.92V36.92C81.2013 36.92 81.7529 36.6125 82.1257 36.2396C82.4985 35.8668 82.8061 35.3152 82.8061 34.68H80.8061ZM80.5661 34.92H76.8461V36.92H80.5661V34.92ZM77.8461 35.92V2.43999H75.8461V35.92H77.8461ZM77.8461 2.43999C77.8461 1.80476 77.5385 1.25323 77.1657 0.880387C76.7929 0.507541 76.2413 0.199994 75.6061 0.199994V2.19999C75.5946 2.19999 75.6059 2.1975 75.6385 2.21274C75.6712 2.228 75.712 2.25513 75.7515 2.2946C75.791 2.33407 75.8181 2.37486 75.8333 2.40757C75.8486 2.44022 75.8461 2.45146 75.8461 2.43999H77.8461ZM75.6061 0.199994H64.4461V2.19999H75.6061V0.199994ZM64.4461 0.199994C63.8109 0.199994 63.2593 0.507541 62.8865 0.880387C62.5136 1.25323 62.2061 1.80476 62.2061 2.43999H64.2061C64.2061 2.45146 64.2036 2.44022 64.2188 2.40757C64.2341 2.37486 64.2612 2.33407 64.3007 2.2946C64.3402 2.25513 64.381 2.228 64.4137 2.21274C64.4463 2.1975 64.4576 2.19999 64.4461 2.19999V0.199994ZM62.2061 2.43999V86.76H64.2061V2.43999H62.2061ZM62.2061 86.76C62.2061 87.3952 62.5136 87.9468 62.8865 88.3196C63.2593 88.6925 63.8109 89 64.4461 89V87C64.4576 87 64.4463 87.0025 64.4137 86.9873C64.381 86.972 64.3402 86.9449 64.3007 86.9054C64.2612 86.8659 64.2341 86.8251 64.2188 86.7924C64.2036 86.7598 64.2061 86.7485 64.2061 86.76H62.2061ZM64.4461 89H75.6061V87H64.4461V89ZM75.6061 89C76.2413 89 76.7929 88.6925 77.1657 88.3196C77.5385 87.9468 77.8461 87.3952 77.8461 86.76H75.8461C75.8461 86.7485 75.8486 86.7598 75.8333 86.7924C75.8181 86.8251 75.791 86.8659 75.7515 86.9054C75.712 86.9449 75.6712 86.972 75.6385 86.9873C75.6059 87.0025 75.5946 87 75.6061 87V89ZM77.8461 86.76V48.32H75.8461V86.76H77.8461ZM76.8461 49.32H80.5661V47.32H76.8461V49.32ZM111.547 0.199994C109.459 0.199994 107.642 0.90011 106.345 2.19789C105.047 3.49567 104.347 5.31275 104.347 7.4H106.347C106.347 5.76725 106.887 4.48432 107.759 3.6121C108.631 2.73988 109.914 2.19999 111.547 2.19999V0.199994ZM104.347 7.4V81.8H106.347V7.4H104.347ZM104.347 81.8C104.347 83.8872 105.047 85.7043 106.345 87.0021C107.642 88.2999 109.459 89 111.547 89V87C109.914 87 108.631 86.4601 107.759 85.5879C106.887 84.7157 106.347 83.4328 106.347 81.8H104.347ZM111.547 89H131.387V87H111.547V89ZM131.387 89C133.474 89 135.291 88.2999 136.589 87.0021C137.887 85.7043 138.587 83.8872 138.587 81.8H136.587C136.587 83.4328 136.047 84.7157 135.175 85.5879C134.302 86.4601 133.019 87 131.387 87V89ZM138.587 81.8V7.4H136.587V81.8H138.587ZM138.587 7.4C138.587 5.31275 137.887 3.49567 136.589 2.19789C135.291 0.90011 133.474 0.199994 131.387 0.199994V2.19999C133.019 2.19999 134.302 2.73988 135.175 3.6121C136.047 4.48432 136.587 5.76725 136.587 7.4H138.587ZM131.387 0.199994H111.547V2.19999H131.387V0.199994ZM122.947 74.36C122.947 74.3485 122.949 74.3598 122.934 74.3924C122.919 74.4251 122.892 74.4659 122.852 74.5054C122.813 74.5449 122.772 74.572 122.739 74.5873C122.706 74.6025 122.695 74.6 122.707 74.6V76.6C123.342 76.6 123.893 76.2925 124.266 75.9196C124.639 75.5468 124.947 74.9952 124.947 74.36H122.947ZM122.707 74.6H120.227V76.6H122.707V74.6ZM120.227 74.6C120.238 74.6 120.227 74.6025 120.194 74.5873C120.162 74.572 120.121 74.5449 120.081 74.5054C120.042 74.4659 120.015 74.4251 119.999 74.3924C119.984 74.3598 119.987 74.3485 119.987 74.36H117.987C117.987 74.9952 118.294 75.5468 118.667 75.9196C119.04 76.2925 119.591 76.6 120.227 76.6V74.6ZM119.987 74.36V14.84H117.987V74.36H119.987ZM119.987 14.84C119.987 14.8515 119.984 14.8402 119.999 14.8076C120.015 14.7749 120.042 14.7341 120.081 14.6946C120.121 14.6551 120.162 14.628 120.194 14.6127C120.227 14.5975 120.238 14.6 120.227 14.6V12.6C119.591 12.6 119.04 12.9075 118.667 13.2804C118.294 13.6532 117.987 14.2048 117.987 14.84H119.987ZM120.227 14.6H122.707V12.6H120.227V14.6ZM122.707 14.6C122.695 14.6 122.706 14.5975 122.739 14.6127C122.772 14.628 122.813 14.6551 122.852 14.6946C122.892 14.7341 122.919 14.7749 122.934 14.8076C122.949 14.8402 122.947 14.8515 122.947 14.84H124.947C124.947 14.2048 124.639 13.6532 124.266 13.2804C123.893 12.9075 123.342 12.6 122.707 12.6V14.6ZM122.947 14.84V74.36H124.947V14.84H122.947ZM148.107 35.92L147.288 36.4935L147.301 36.5124L147.316 36.5308L148.107 35.92ZM164.847 57.62H165.847V57.2791L165.639 57.0092L164.847 57.62ZM176.627 50.8L177.447 50.2265L177.433 50.2075L177.419 50.1892L176.627 50.8ZM159.887 29.1H158.887V29.4409L159.096 29.7108L159.887 29.1ZM145.247 30.96C145.247 33.7855 146.423 35.2577 147.288 36.4935L148.927 35.3465C148.056 34.1022 147.247 33.0945 147.247 30.96H145.247ZM147.316 36.5308L164.056 58.2308L165.639 57.0092L148.899 35.3092L147.316 36.5308ZM163.847 57.62V74.36H165.847V57.62H163.847ZM163.847 74.36C163.847 74.3485 163.85 74.3598 163.835 74.3924C163.819 74.4251 163.792 74.4659 163.753 74.5054C163.713 74.5449 163.672 74.572 163.64 74.5873C163.607 74.6025 163.596 74.6 163.607 74.6V76.6C164.243 76.6 164.794 76.2925 165.167 75.9196C165.54 75.5468 165.847 74.9952 165.847 74.36H163.847ZM163.607 74.6H161.127V76.6H163.607V74.6ZM161.127 74.6C161.139 74.6 161.128 74.6025 161.095 74.5873C161.062 74.572 161.021 74.5449 160.982 74.5054C160.942 74.4659 160.915 74.4251 160.9 74.3924C160.885 74.3598 160.887 74.3485 160.887 74.36H158.887C158.887 74.9952 159.195 75.5468 159.568 75.9196C159.941 76.2925 160.492 76.6 161.127 76.6V74.6ZM160.887 74.36V58.24H158.887V74.36H160.887ZM160.887 58.24C160.887 57.6048 160.58 57.0532 160.207 56.6804C159.834 56.3075 159.283 56 158.647 56V58C158.636 58 158.647 57.9975 158.68 58.0127C158.712 58.028 158.753 58.0551 158.793 58.0946C158.832 58.1341 158.859 58.1749 158.875 58.2076C158.89 58.2402 158.887 58.2515 158.887 58.24H160.887ZM158.647 56H147.487V58H158.647V56ZM147.487 56C146.852 56 146.301 56.3075 145.928 56.6804C145.555 57.0532 145.247 57.6048 145.247 58.24H147.247C147.247 58.2515 147.245 58.2402 147.26 58.2076C147.275 58.1749 147.302 58.1341 147.342 58.0946C147.381 58.0551 147.422 58.028 147.455 58.0127C147.488 57.9975 147.499 58 147.487 58V56ZM145.247 58.24V81.8H147.247V58.24H145.247ZM145.247 81.8C145.247 83.8872 145.947 85.7043 147.245 87.0021C148.543 88.2999 150.36 89 152.447 89V87C150.815 87 149.532 86.4601 148.659 85.5879C147.787 84.7157 147.247 83.4328 147.247 81.8H145.247ZM152.447 89H172.287V87H152.447V89ZM172.287 89C174.375 89 176.192 88.2999 177.489 87.0021C178.787 85.7043 179.487 83.8872 179.487 81.8H177.487C177.487 83.4328 176.947 84.7157 176.075 85.5879C175.203 86.4601 173.92 87 172.287 87V89ZM179.487 81.8V55.76H177.487V81.8H179.487ZM179.487 55.76C179.487 52.9345 178.312 51.4622 177.447 50.2265L175.808 51.3735C176.679 52.6177 177.487 53.6255 177.487 55.76H179.487ZM177.419 50.1892L160.679 28.4892L159.096 29.7108L175.836 51.4108L177.419 50.1892ZM160.887 29.1V14.84H158.887V29.1H160.887ZM160.887 14.84C160.887 14.8515 160.885 14.8402 160.9 14.8076C160.915 14.7749 160.942 14.7341 160.982 14.6946C161.021 14.6551 161.062 14.628 161.095 14.6127C161.128 14.5975 161.139 14.6 161.127 14.6V12.6C160.492 12.6 159.941 12.9075 159.568 13.2804C159.195 13.6532 158.887 14.2048 158.887 14.84H160.887ZM161.127 14.6H163.607V12.6H161.127V14.6ZM163.607 14.6C163.596 14.6 163.607 14.5975 163.64 14.6127C163.672 14.628 163.713 14.6551 163.753 14.6946C163.792 14.7341 163.819 14.7749 163.835 14.8076C163.85 14.8402 163.847 14.8515 163.847 14.84H165.847C165.847 14.2048 165.54 13.6532 165.167 13.2804C164.794 12.9075 164.243 12.6 163.607 12.6V14.6ZM163.847 14.84V30.96H165.847V14.84H163.847ZM163.847 30.96C163.847 31.5952 164.155 32.1468 164.528 32.5196C164.901 32.8925 165.452 33.2 166.087 33.2V31.2C166.099 31.2 166.088 31.2025 166.055 31.1873C166.022 31.172 165.981 31.1449 165.942 31.1054C165.902 31.0659 165.875 31.0251 165.86 30.9924C165.845 30.9598 165.847 30.9485 165.847 30.96H163.847ZM166.087 33.2H177.247V31.2H166.087V33.2ZM177.247 33.2C177.883 33.2 178.434 32.8925 178.807 32.5196C179.18 32.1468 179.487 31.5952 179.487 30.96H177.487C177.487 30.9485 177.49 30.9598 177.475 30.9924C177.459 31.0251 177.432 31.0659 177.393 31.1054C177.353 31.1449 177.312 31.172 177.28 31.1873C177.247 31.2025 177.236 31.2 177.247 31.2V33.2ZM179.487 30.96V7.4H177.487V30.96H179.487ZM179.487 7.4C179.487 5.31275 178.787 3.49567 177.489 2.19789C176.192 0.90011 174.375 0.199994 172.287 0.199994V2.19999C173.92 2.19999 175.203 2.73988 176.075 3.6121C176.947 4.48432 177.487 5.76725 177.487 7.4H179.487ZM172.287 0.199994H152.447V2.19999H172.287V0.199994ZM152.447 0.199994C150.36 0.199994 148.543 0.90011 147.245 2.19789C145.947 3.49567 145.247 5.31275 145.247 7.4H147.247C147.247 5.76725 147.787 4.48432 148.659 3.6121C149.532 2.73988 150.815 2.19999 152.447 2.19999V0.199994ZM145.247 7.4V30.96H147.247V7.4H145.247ZM192.166 13.6H193.166V12.6H192.166V13.6ZM205.806 13.6V12.6H204.806V13.6H205.806ZM215.486 2.43999C215.486 1.80476 215.179 1.25323 214.806 0.880386C214.433 0.50754 213.881 0.199994 213.246 0.199994V2.19999C213.235 2.19999 213.246 2.1975 213.279 2.21274C213.311 2.228 213.352 2.25513 213.391 2.2946C213.431 2.33407 213.458 2.37486 213.473 2.40757C213.489 2.44022 213.486 2.45146 213.486 2.43999H215.486ZM213.246 0.199994H184.726V2.19999H213.246V0.199994ZM184.726 0.199994C184.091 0.199994 183.539 0.507541 183.166 0.880387C182.794 1.25323 182.486 1.80476 182.486 2.43999H184.486C184.486 2.45146 184.484 2.44022 184.499 2.40757C184.514 2.37486 184.541 2.33407 184.581 2.2946C184.62 2.25513 184.661 2.228 184.694 2.21274C184.726 2.1975 184.738 2.19999 184.726 2.19999V0.199994ZM182.486 2.43999V12.36H184.486V2.43999H182.486ZM182.486 12.36C182.486 12.9952 182.794 13.5468 183.166 13.9196C183.539 14.2925 184.091 14.6 184.726 14.6V12.6C184.738 12.6 184.726 12.6025 184.694 12.5873C184.661 12.572 184.62 12.5449 184.581 12.5054C184.541 12.4659 184.514 12.4251 184.499 12.3924C184.484 12.3598 184.486 12.3485 184.486 12.36H182.486ZM184.726 14.6H192.166V12.6H184.726V14.6ZM191.166 13.6V86.76H193.166V13.6H191.166ZM191.166 86.76C191.166 87.3952 191.474 87.9468 191.846 88.3196C192.219 88.6925 192.771 89 193.406 89V87C193.418 87 193.406 87.0025 193.374 86.9873C193.341 86.972 193.3 86.9449 193.261 86.9054C193.221 86.8659 193.194 86.8251 193.179 86.7924C193.164 86.7598 193.166 86.7485 193.166 86.76H191.166ZM193.406 89H204.566V87H193.406V89ZM204.566 89C205.201 89 205.753 88.6925 206.126 88.3196C206.499 87.9468 206.806 87.3952 206.806 86.76H204.806C204.806 86.7485 204.809 86.7598 204.793 86.7924C204.778 86.8251 204.751 86.8659 204.711 86.9054C204.672 86.9449 204.631 86.972 204.599 86.9873C204.566 87.0025 204.555 87 204.566 87V89ZM206.806 86.76V13.6H204.806V86.76H206.806ZM205.806 14.6H213.246V12.6H205.806V14.6ZM213.246 14.6C213.881 14.6 214.433 14.2925 214.806 13.9196C215.179 13.5468 215.486 12.9952 215.486 12.36H213.486C213.486 12.3485 213.489 12.3598 213.473 12.3924C213.458 12.4251 213.431 12.4659 213.391 12.5054C213.352 12.5449 213.311 12.572 213.279 12.5873C213.246 12.6025 213.235 12.6 213.246 12.6V14.6ZM215.486 12.36V2.43999H213.486V12.36H215.486ZM235.268 2.43999C235.268 1.80476 234.96 1.25323 234.588 0.880387C234.215 0.507541 233.663 0.199994 233.028 0.199994V2.19999C233.017 2.19999 233.028 2.1975 233.06 2.21274C233.093 2.228 233.134 2.25513 233.173 2.2946C233.213 2.33407 233.24 2.37486 233.255 2.40757C233.27 2.44022 233.268 2.45146 233.268 2.43999H235.268ZM233.028 0.199994H221.868V2.19999H233.028V0.199994ZM221.868 0.199994C221.233 0.199994 220.681 0.507541 220.308 0.880387C219.936 1.25323 219.628 1.80476 219.628 2.43999H221.628C221.628 2.45146 221.625 2.44022 221.641 2.40757C221.656 2.37486 221.683 2.33407 221.723 2.2946C221.762 2.25513 221.803 2.228 221.836 2.21274C221.868 2.1975 221.879 2.19999 221.868 2.19999V0.199994ZM219.628 2.43999V86.76H221.628V2.43999H219.628ZM219.628 86.76C219.628 87.3952 219.936 87.9468 220.308 88.3196C220.681 88.6925 221.233 89 221.868 89V87C221.879 87 221.868 87.0025 221.836 86.9873C221.803 86.972 221.762 86.9449 221.723 86.9054C221.683 86.8659 221.656 86.8251 221.641 86.7924C221.625 86.7598 221.628 86.7485 221.628 86.76H219.628ZM221.868 89H233.028V87H221.868V89ZM233.028 89C233.663 89 234.215 88.6925 234.588 88.3196C234.96 87.9468 235.268 87.3952 235.268 86.76H233.268C233.268 86.7485 233.27 86.7598 233.255 86.7924C233.24 86.8251 233.213 86.8659 233.173 86.9054C233.134 86.9449 233.093 86.972 233.06 86.9873C233.028 87.0025 233.017 87 233.028 87V89ZM235.268 86.76V2.43999H233.268V86.76H235.268ZM264.081 33.2H275.241V31.2H264.081V33.2ZM275.241 33.2C275.876 33.2 276.428 32.8925 276.801 32.5196C277.174 32.1468 277.481 31.5952 277.481 30.96H275.481C275.481 30.9485 275.484 30.9598 275.469 30.9924C275.453 31.0251 275.426 31.0659 275.387 31.1054C275.347 31.1449 275.306 31.172 275.274 31.1873C275.241 31.2025 275.23 31.2 275.241 31.2V33.2ZM277.481 30.96V7.4H275.481V30.96H277.481ZM277.481 7.4C277.481 5.31275 276.781 3.49567 275.483 2.19789C274.186 0.90011 272.368 0.199994 270.281 0.199994V2.19999C271.914 2.19999 273.197 2.73988 274.069 3.6121C274.941 4.48432 275.481 5.76725 275.481 7.4H277.481ZM270.281 0.199994H250.441V2.19999H270.281V0.199994ZM250.441 0.199994C248.354 0.199994 246.537 0.90011 245.239 2.19789C243.941 3.49567 243.241 5.31275 243.241 7.4H245.241C245.241 5.76725 245.781 4.48432 246.653 3.6121C247.526 2.73988 248.808 2.19999 250.441 2.19999V0.199994ZM243.241 7.4V81.8H245.241V7.4H243.241ZM243.241 81.8C243.241 83.8872 243.941 85.7043 245.239 87.0021C246.537 88.2999 248.354 89 250.441 89V87C248.808 87 247.526 86.4601 246.653 85.5879C245.781 84.7157 245.241 83.4328 245.241 81.8H243.241ZM250.441 89H270.281V87H250.441V89ZM270.281 89C272.368 89 274.186 88.2999 275.483 87.0021C276.781 85.7043 277.481 83.8872 277.481 81.8H275.481C275.481 83.4328 274.941 84.7157 274.069 85.5879C273.197 86.4601 271.914 87 270.281 87V89ZM277.481 81.8V58.24H275.481V81.8H277.481ZM277.481 58.24C277.481 57.6048 277.174 57.0532 276.801 56.6804C276.428 56.3075 275.876 56 275.241 56V58C275.23 58 275.241 57.9975 275.274 58.0127C275.306 58.028 275.347 58.0551 275.387 58.0946C275.426 58.1341 275.453 58.1749 275.469 58.2076C275.484 58.2402 275.481 58.2515 275.481 58.24H277.481ZM275.241 56H264.081V58H275.241V56ZM264.081 56C263.446 56 262.894 56.3075 262.522 56.6804C262.149 57.0532 261.841 57.6048 261.841 58.24H263.841C263.841 58.2515 263.839 58.2402 263.854 58.2076C263.869 58.1749 263.896 58.1341 263.936 58.0946C263.975 58.0551 264.016 58.028 264.049 58.0127C264.081 57.9975 264.093 58 264.081 58V56ZM261.841 58.24V74.36H263.841V58.24H261.841ZM261.841 74.36C261.841 74.3485 261.844 74.3598 261.829 74.3924C261.813 74.4251 261.786 74.4659 261.747 74.5054C261.707 74.5449 261.666 74.572 261.634 74.5873C261.601 74.6025 261.59 74.6 261.601 74.6V76.6C262.236 76.6 262.788 76.2925 263.161 75.9196C263.534 75.5468 263.841 74.9952 263.841 74.36H261.841ZM261.601 74.6H259.121V76.6H261.601V74.6ZM259.121 74.6C259.133 74.6 259.121 74.6025 259.089 74.5873C259.056 74.572 259.015 74.5449 258.976 74.5054C258.936 74.4659 258.909 74.4251 258.894 74.3924C258.879 74.3598 258.881 74.3485 258.881 74.36H256.881C256.881 74.9952 257.189 75.5468 257.562 75.9196C257.934 76.2925 258.486 76.6 259.121 76.6V74.6ZM258.881 74.36V14.84H256.881V74.36H258.881ZM258.881 14.84C258.881 14.8515 258.879 14.8402 258.894 14.8076C258.909 14.7749 258.936 14.7341 258.976 14.6946C259.015 14.6551 259.056 14.628 259.089 14.6127C259.121 14.5975 259.133 14.6 259.121 14.6V12.6C258.486 12.6 257.934 12.9075 257.562 13.2804C257.189 13.6532 256.881 14.2048 256.881 14.84H258.881ZM259.121 14.6H261.601V12.6H259.121V14.6ZM261.601 14.6C261.59 14.6 261.601 14.5975 261.634 14.6127C261.666 14.628 261.707 14.6551 261.747 14.6946C261.786 14.7341 261.813 14.7749 261.829 14.8076C261.844 14.8402 261.841 14.8515 261.841 14.84H263.841C263.841 14.2048 263.534 13.6532 263.161 13.2804C262.788 12.9075 262.236 12.6 261.601 12.6V14.6ZM261.841 14.84V30.96H263.841V14.84H261.841ZM261.841 30.96C261.841 31.5952 262.149 32.1468 262.522 32.5196C262.894 32.8925 263.446 33.2 264.081 33.2V31.2C264.093 31.2 264.081 31.2025 264.049 31.1873C264.016 31.172 263.975 31.1449 263.936 31.1054C263.896 31.0659 263.869 31.0251 263.854 30.9924C263.839 30.9598 263.841 30.9485 263.841 30.96H261.841ZM291.371 0.199994C289.284 0.199994 287.467 0.90011 286.169 2.19789C284.871 3.49567 284.171 5.31275 284.171 7.4H286.171C286.171 5.76725 286.711 4.48432 287.583 3.6121C288.455 2.73988 289.738 2.19999 291.371 2.19999V0.199994ZM284.171 7.4V81.8H286.171V7.4H284.171ZM284.171 81.8C284.171 83.8872 284.871 85.7043 286.169 87.0021C287.467 88.2999 289.284 89 291.371 89V87C289.738 87 288.455 86.4601 287.583 85.5879C286.711 84.7157 286.171 83.4328 286.171 81.8H284.171ZM291.371 89H311.211V87H291.371V89ZM311.211 89C313.298 89 315.115 88.2999 316.413 87.0021C317.711 85.7043 318.411 83.8872 318.411 81.8H316.411C316.411 83.4328 315.871 84.7157 314.999 85.5879C314.127 86.4601 312.844 87 311.211 87V89ZM318.411 81.8V7.4H316.411V81.8H318.411ZM318.411 7.4C318.411 5.31275 317.711 3.49567 316.413 2.19789C315.115 0.90011 313.298 0.199994 311.211 0.199994V2.19999C312.844 2.19999 314.127 2.73988 314.999 3.6121C315.871 4.48432 316.411 5.76725 316.411 7.4H318.411ZM311.211 0.199994H291.371V2.19999H311.211V0.199994ZM302.771 74.36C302.771 74.3485 302.773 74.3598 302.758 74.3924C302.743 74.4251 302.716 74.4659 302.676 74.5054C302.637 74.5449 302.596 74.572 302.563 74.5873C302.531 74.6025 302.519 74.6 302.531 74.6V76.6C303.166 76.6 303.718 76.2925 304.091 75.9196C304.463 75.5468 304.771 74.9952 304.771 74.36H302.771ZM302.531 74.6H300.051V76.6H302.531V74.6ZM300.051 74.6C300.062 74.6 300.051 74.6025 300.019 74.5873C299.986 74.572 299.945 74.5449 299.906 74.5054C299.866 74.4659 299.839 74.4251 299.824 74.3924C299.808 74.3598 299.811 74.3485 299.811 74.36H297.811C297.811 74.9952 298.118 75.5468 298.491 75.9196C298.864 76.2925 299.416 76.6 300.051 76.6V74.6ZM299.811 74.36V14.84H297.811V74.36H299.811ZM299.811 14.84C299.811 14.8515 299.808 14.8402 299.824 14.8076C299.839 14.7749 299.866 14.7341 299.906 14.6946C299.945 14.6551 299.986 14.628 300.019 14.6127C300.051 14.5975 300.062 14.6 300.051 14.6V12.6C299.416 12.6 298.864 12.9075 298.491 13.2804C298.118 13.6532 297.811 14.2048 297.811 14.84H299.811ZM300.051 14.6H302.531V12.6H300.051V14.6ZM302.531 14.6C302.519 14.6 302.531 14.5975 302.563 14.6127C302.596 14.628 302.637 14.6551 302.676 14.6946C302.716 14.7341 302.743 14.7749 302.758 14.8076C302.773 14.8402 302.771 14.8515 302.771 14.84H304.771C304.771 14.2048 304.463 13.6532 304.091 13.2804C303.718 12.9075 303.166 12.6 302.531 12.6V14.6ZM302.771 14.84V74.36H304.771V14.84H302.771ZM345.912 35.92L344.983 36.2914L346.912 35.92H345.912ZM340.952 23.52H339.952V23.7126L340.023 23.8914L340.952 23.52ZM340.952 48.32L341.88 47.9486L339.952 48.32H340.952ZM345.912 60.72H346.912V60.5274L346.84 60.3486L345.912 60.72ZM344.912 86.76C344.912 87.3952 345.219 87.9468 345.592 88.3196C345.965 88.6925 346.516 89 347.152 89V87C347.163 87 347.152 87.0025 347.119 86.9873C347.086 86.972 347.046 86.9449 347.006 86.9054C346.967 86.8659 346.94 86.8251 346.924 86.7924C346.909 86.7598 346.912 86.7485 346.912 86.76H344.912ZM347.152 89H358.312V87H347.152V89ZM358.312 89C358.947 89 359.498 88.6925 359.871 88.3196C360.244 87.9468 360.552 87.3952 360.552 86.76H358.552C358.552 86.7485 358.554 86.7598 358.539 86.7924C358.524 86.8251 358.496 86.8659 358.457 86.9054C358.417 86.9449 358.377 86.972 358.344 86.9873C358.311 87.0025 358.3 87 358.312 87V89ZM360.552 86.76V2.43999H358.552V86.76H360.552ZM360.552 2.43999C360.552 1.80476 360.244 1.25323 359.871 0.880387C359.498 0.507541 358.947 0.199994 358.312 0.199994V2.19999C358.3 2.19999 358.311 2.1975 358.344 2.21274C358.377 2.228 358.417 2.25513 358.457 2.2946C358.496 2.33407 358.524 2.37486 358.539 2.40757C358.554 2.44022 358.552 2.45146 358.552 2.43999H360.552ZM358.312 0.199994H347.152V2.19999H358.312V0.199994ZM347.152 0.199994C346.516 0.199994 345.965 0.507541 345.592 0.880387C345.219 1.25323 344.912 1.80476 344.912 2.43999H346.912C346.912 2.45146 346.909 2.44022 346.924 2.40757C346.94 2.37486 346.967 2.33407 347.006 2.2946C347.046 2.25513 347.086 2.228 347.119 2.21274C347.152 2.1975 347.163 2.19999 347.152 2.19999V0.199994ZM344.912 2.43999V35.92H346.912V2.43999H344.912ZM346.84 35.5486L341.88 23.1486L340.023 23.8914L344.983 36.2914L346.84 35.5486ZM341.952 23.52V2.43999H339.952V23.52H341.952ZM341.952 2.43999C341.952 1.80476 341.644 1.25323 341.271 0.880387C340.898 0.507541 340.347 0.199994 339.712 0.199994V2.19999C339.7 2.19999 339.711 2.1975 339.744 2.21274C339.777 2.228 339.817 2.25513 339.857 2.2946C339.896 2.33407 339.924 2.37486 339.939 2.40757C339.954 2.44022 339.952 2.45146 339.952 2.43999H341.952ZM339.712 0.199994H328.552V2.19999H339.712V0.199994ZM328.552 0.199994C327.916 0.199994 327.365 0.507541 326.992 0.880387C326.619 1.25323 326.312 1.80476 326.312 2.43999H328.312C328.312 2.45146 328.309 2.44022 328.324 2.40757C328.34 2.37486 328.367 2.33407 328.406 2.2946C328.446 2.25513 328.486 2.228 328.519 2.21274C328.552 2.1975 328.563 2.19999 328.552 2.19999V0.199994ZM326.312 2.43999V86.76H328.312V2.43999H326.312ZM326.312 86.76C326.312 87.3952 326.619 87.9468 326.992 88.3196C327.365 88.6925 327.916 89 328.552 89V87C328.563 87 328.552 87.0025 328.519 86.9873C328.486 86.972 328.446 86.9449 328.406 86.9054C328.367 86.8659 328.34 86.8251 328.324 86.7924C328.309 86.7598 328.312 86.7485 328.312 86.76H326.312ZM328.552 89H339.712V87H328.552V89ZM339.712 89C340.347 89 340.898 88.6925 341.271 88.3196C341.644 87.9468 341.952 87.3952 341.952 86.76H339.952C339.952 86.7485 339.954 86.7598 339.939 86.7924C339.924 86.8251 339.896 86.8659 339.857 86.9054C339.817 86.9449 339.777 86.972 339.744 86.9873C339.711 87.0025 339.7 87 339.712 87V89ZM341.952 86.76V48.32H339.952V86.76H341.952ZM340.023 48.6914L344.983 61.0914L346.84 60.3486L341.88 47.9486L340.023 48.6914ZM344.912 60.72V86.76H346.912V60.72H344.912ZM388.052 35.92L387.124 36.2914L389.052 35.92H388.052ZM383.092 23.52H382.092V23.7126L382.164 23.8914L383.092 23.52ZM383.092 48.32L384.021 47.9486L382.092 48.32H383.092ZM388.052 60.72H389.052V60.5274L388.981 60.3486L388.052 60.72ZM387.052 86.76C387.052 87.3952 387.36 87.9468 387.733 88.3196C388.105 88.6925 388.657 89 389.292 89V87C389.304 87 389.292 87.0025 389.26 86.9873C389.227 86.972 389.186 86.9449 389.147 86.9054C389.107 86.8659 389.08 86.8251 389.065 86.7924C389.05 86.7598 389.052 86.7485 389.052 86.76H387.052ZM389.292 89H400.452V87H389.292V89ZM400.452 89C401.087 89 401.639 88.6925 402.012 88.3196C402.385 87.9468 402.692 87.3952 402.692 86.76H400.692C400.692 86.7485 400.695 86.7598 400.679 86.7924C400.664 86.8251 400.637 86.8659 400.598 86.9054C400.558 86.9449 400.517 86.972 400.485 86.9873C400.452 87.0025 400.441 87 400.452 87V89ZM402.692 86.76V2.43999H400.692V86.76H402.692ZM402.692 2.43999C402.692 1.80476 402.385 1.25323 402.012 0.880387C401.639 0.507541 401.087 0.199994 400.452 0.199994V2.19999C400.441 2.19999 400.452 2.1975 400.485 2.21274C400.517 2.228 400.558 2.25513 400.598 2.2946C400.637 2.33407 400.664 2.37486 400.679 2.40757C400.695 2.44022 400.692 2.45146 400.692 2.43999H402.692ZM400.452 0.199994H389.292V2.19999H400.452V0.199994ZM389.292 0.199994C388.657 0.199994 388.105 0.507541 387.733 0.880387C387.36 1.25323 387.052 1.80476 387.052 2.43999H389.052C389.052 2.45146 389.05 2.44022 389.065 2.40757C389.08 2.37486 389.107 2.33407 389.147 2.2946C389.186 2.25513 389.227 2.228 389.26 2.21274C389.292 2.1975 389.304 2.19999 389.292 2.19999V0.199994ZM387.052 2.43999V35.92H389.052V2.43999H387.052ZM388.981 35.5486L384.021 23.1486L382.164 23.8914L387.124 36.2914L388.981 35.5486ZM384.092 23.52V2.43999H382.092V23.52H384.092ZM384.092 2.43999C384.092 1.80476 383.785 1.25323 383.412 0.880387C383.039 0.507541 382.487 0.199994 381.852 0.199994V2.19999C381.841 2.19999 381.852 2.1975 381.885 2.21274C381.917 2.228 381.958 2.25513 381.998 2.2946C382.037 2.33407 382.064 2.37486 382.079 2.40757C382.095 2.44022 382.092 2.45146 382.092 2.43999H384.092ZM381.852 0.199994H370.692V2.19999H381.852V0.199994ZM370.692 0.199994C370.057 0.199994 369.505 0.507541 369.133 0.880387C368.76 1.25323 368.452 1.80476 368.452 2.43999H370.452C370.452 2.45146 370.45 2.44022 370.465 2.40757C370.48 2.37486 370.507 2.33407 370.547 2.2946C370.586 2.25513 370.627 2.228 370.66 2.21274C370.692 2.1975 370.704 2.19999 370.692 2.19999V0.199994ZM368.452 2.43999V86.76H370.452V2.43999H368.452ZM368.452 86.76C368.452 87.3952 368.76 87.9468 369.133 88.3196C369.505 88.6925 370.057 89 370.692 89V87C370.704 87 370.692 87.0025 370.66 86.9873C370.627 86.972 370.586 86.9449 370.547 86.9054C370.507 86.8659 370.48 86.8251 370.465 86.7924C370.45 86.7598 370.452 86.7485 370.452 86.76H368.452ZM370.692 89H381.852V87H370.692V89ZM381.852 89C382.487 89 383.039 88.6925 383.412 88.3196C383.785 87.9468 384.092 87.3952 384.092 86.76H382.092C382.092 86.7485 382.095 86.7598 382.079 86.7924C382.064 86.8251 382.037 86.8659 381.998 86.9054C381.958 86.9449 381.917 86.972 381.885 86.9873C381.852 87.0025 381.841 87 381.852 87V89ZM384.092 86.76V48.32H382.092V86.76H384.092ZM382.164 48.6914L387.124 61.0914L388.981 60.3486L384.021 47.9486L382.164 48.6914ZM387.052 60.72V86.76H389.052V60.72H387.052ZM425.233 35.92H424.233V36.92H425.233V35.92ZM425.233 13.6V12.6H424.233V13.6H425.233ZM425.233 75.6H424.233V76.6H425.233V75.6ZM425.233 48.32V47.32H424.233V48.32H425.233ZM441.113 37.16C441.113 36.5248 440.805 35.9732 440.432 35.6004C440.06 35.2275 439.508 34.92 438.873 34.92V36.92C438.861 36.92 438.873 36.9175 438.905 36.9327C438.938 36.948 438.979 36.9751 439.018 37.0146C439.058 37.0541 439.085 37.0949 439.1 37.1276C439.115 37.1602 439.113 37.1715 439.113 37.16H441.113ZM438.873 34.92H425.233V36.92H438.873V34.92ZM426.233 35.92V13.6H424.233V35.92H426.233ZM425.233 14.6H441.353V12.6H425.233V14.6ZM441.353 14.6C441.988 14.6 442.54 14.2925 442.912 13.9196C443.285 13.5468 443.593 12.9952 443.593 12.36H441.593C441.593 12.3485 441.595 12.3598 441.58 12.3924C441.565 12.4251 441.538 12.4659 441.498 12.5054C441.459 12.5449 441.418 12.572 441.385 12.5873C441.353 12.6025 441.341 12.6 441.353 12.6V14.6ZM443.593 12.36V2.43999H441.593V12.36H443.593ZM443.593 2.43999C443.593 1.80476 443.285 1.25323 442.912 0.880386C442.54 0.50754 441.988 0.199994 441.353 0.199994V2.19999C441.341 2.19999 441.353 2.1975 441.385 2.21274C441.418 2.228 441.459 2.25513 441.498 2.2946C441.538 2.33407 441.565 2.37486 441.58 2.40757C441.595 2.44022 441.593 2.45146 441.593 2.43999H443.593ZM441.353 0.199994H412.833V2.19999H441.353V0.199994ZM412.833 0.199994C412.198 0.199994 411.646 0.507541 411.273 0.880387C410.9 1.25323 410.593 1.80476 410.593 2.43999H412.593C412.593 2.45146 412.59 2.44022 412.606 2.40757C412.621 2.37486 412.648 2.33407 412.687 2.2946C412.727 2.25513 412.768 2.228 412.8 2.21274C412.833 2.1975 412.844 2.19999 412.833 2.19999V0.199994ZM410.593 2.43999V86.76H412.593V2.43999H410.593ZM410.593 86.76C410.593 87.3952 410.9 87.9468 411.273 88.3196C411.646 88.6925 412.198 89 412.833 89V87C412.844 87 412.833 87.0025 412.8 86.9873C412.768 86.972 412.727 86.9449 412.687 86.9054C412.648 86.8659 412.621 86.8251 412.606 86.7924C412.59 86.7598 412.593 86.7485 412.593 86.76H410.593ZM412.833 89H441.353V87H412.833V89ZM441.353 89C441.988 89 442.54 88.6925 442.912 88.3196C443.285 87.9468 443.593 87.3952 443.593 86.76H441.593C441.593 86.7485 441.595 86.7598 441.58 86.7924C441.565 86.8251 441.538 86.8659 441.498 86.9054C441.459 86.9449 441.418 86.972 441.385 86.9873C441.353 87.0025 441.341 87 441.353 87V89ZM443.593 86.76V76.84H441.593V86.76H443.593ZM443.593 76.84C443.593 76.2048 443.285 75.6532 442.912 75.2804C442.54 74.9075 441.988 74.6 441.353 74.6V76.6C441.341 76.6 441.353 76.5975 441.385 76.6127C441.418 76.628 441.459 76.6551 441.498 76.6946C441.538 76.7341 441.565 76.7749 441.58 76.8076C441.595 76.8402 441.593 76.8515 441.593 76.84H443.593ZM441.353 74.6H425.233V76.6H441.353V74.6ZM426.233 75.6V48.32H424.233V75.6H426.233ZM425.233 49.32H438.873V47.32H425.233V49.32ZM438.873 49.32C439.508 49.32 440.06 49.0125 440.432 48.6396C440.805 48.2668 441.113 47.7152 441.113 47.08H439.113C439.113 47.0685 439.115 47.0798 439.1 47.1124C439.085 47.1451 439.058 47.1859 439.018 47.2254C438.979 47.2649 438.938 47.292 438.905 47.3073C438.873 47.3225 438.861 47.32 438.873 47.32V49.32ZM441.113 47.08V37.16H439.113V47.08H441.113ZM468.609 33.2H479.769V31.2H468.609V33.2ZM479.769 33.2C480.404 33.2 480.955 32.8925 481.328 32.5196C481.701 32.1468 482.009 31.5952 482.009 30.96H480.009C480.009 30.9485 480.011 30.9598 479.996 30.9924C479.981 31.0251 479.953 31.0659 479.914 31.1054C479.875 31.1449 479.834 31.172 479.801 31.1873C479.768 31.2025 479.757 31.2 479.769 31.2V33.2ZM482.009 30.96V7.4H480.009V30.96H482.009ZM482.009 7.4C482.009 5.31275 481.308 3.49567 480.011 2.19789C478.713 0.90011 476.896 0.199994 474.809 0.199994V2.19999C476.441 2.19999 477.724 2.73988 478.596 3.6121C479.469 4.48432 480.009 5.76725 480.009 7.4H482.009ZM474.809 0.199994H454.969V2.19999H474.809V0.199994ZM454.969 0.199994C452.881 0.199994 451.064 0.90011 449.766 2.19789C448.469 3.49567 447.769 5.31275 447.769 7.4H449.769C449.769 5.76725 450.308 4.48432 451.181 3.6121C452.053 2.73988 453.336 2.19999 454.969 2.19999V0.199994ZM447.769 7.4V81.8H449.769V7.4H447.769ZM447.769 81.8C447.769 83.8872 448.469 85.7043 449.766 87.0021C451.064 88.2999 452.881 89 454.969 89V87C453.336 87 452.053 86.4601 451.181 85.5879C450.308 84.7157 449.769 83.4328 449.769 81.8H447.769ZM454.969 89H474.809V87H454.969V89ZM474.809 89C476.896 89 478.713 88.2999 480.011 87.0021C481.308 85.7043 482.009 83.8872 482.009 81.8H480.009C480.009 83.4328 479.469 84.7157 478.596 85.5879C477.724 86.4601 476.441 87 474.809 87V89ZM482.009 81.8V58.24H480.009V81.8H482.009ZM482.009 58.24C482.009 57.6048 481.701 57.0532 481.328 56.6804C480.955 56.3075 480.404 56 479.769 56V58C479.757 58 479.768 57.9975 479.801 58.0127C479.834 58.028 479.875 58.0551 479.914 58.0946C479.953 58.1341 479.981 58.1749 479.996 58.2076C480.011 58.2402 480.009 58.2515 480.009 58.24H482.009ZM479.769 56H468.609V58H479.769V56ZM468.609 56C467.973 56 467.422 56.3075 467.049 56.6804C466.676 57.0532 466.369 57.6048 466.369 58.24H468.369C468.369 58.2515 468.366 58.2402 468.381 58.2076C468.397 58.1749 468.424 58.1341 468.463 58.0946C468.503 58.0551 468.543 58.028 468.576 58.0127C468.609 57.9975 468.62 58 468.609 58V56ZM466.369 58.24V74.36H468.369V58.24H466.369ZM466.369 74.36C466.369 74.3485 466.371 74.3598 466.356 74.3924C466.341 74.4251 466.313 74.4659 466.274 74.5054C466.235 74.5449 466.194 74.572 466.161 74.5873C466.128 74.6025 466.117 74.6 466.129 74.6V76.6C466.764 76.6 467.315 76.2925 467.688 75.9196C468.061 75.5468 468.369 74.9952 468.369 74.36H466.369ZM466.129 74.6H463.649V76.6H466.129V74.6ZM463.649 74.6C463.66 74.6 463.649 74.6025 463.616 74.5873C463.583 74.572 463.543 74.5449 463.503 74.5054C463.464 74.4659 463.437 74.4251 463.421 74.3924C463.406 74.3598 463.409 74.3485 463.409 74.36H461.409C461.409 74.9952 461.716 75.5468 462.089 75.9196C462.462 76.2925 463.013 76.6 463.649 76.6V74.6ZM463.409 74.36V14.84H461.409V74.36H463.409ZM463.409 14.84C463.409 14.8515 463.406 14.8402 463.421 14.8076C463.437 14.7749 463.464 14.7341 463.503 14.6946C463.543 14.6551 463.583 14.628 463.616 14.6127C463.649 14.5975 463.66 14.6 463.649 14.6V12.6C463.013 12.6 462.462 12.9075 462.089 13.2804C461.716 13.6532 461.409 14.2048 461.409 14.84H463.409ZM463.649 14.6H466.129V12.6H463.649V14.6ZM466.129 14.6C466.117 14.6 466.128 14.5975 466.161 14.6127C466.194 14.628 466.235 14.6551 466.274 14.6946C466.313 14.7341 466.341 14.7749 466.356 14.8076C466.371 14.8402 466.369 14.8515 466.369 14.84H468.369C468.369 14.2048 468.061 13.6532 467.688 13.2804C467.315 12.9075 466.764 12.6 466.129 12.6V14.6ZM466.369 14.84V30.96H468.369V14.84H466.369ZM466.369 30.96C466.369 31.5952 466.676 32.1468 467.049 32.5196C467.422 32.8925 467.973 33.2 468.609 33.2V31.2C468.62 31.2 468.609 31.2025 468.576 31.1873C468.543 31.172 468.503 31.1449 468.463 31.1054C468.424 31.0659 468.397 31.0251 468.381 30.9924C468.366 30.9598 468.369 30.9485 468.369 30.96H466.369ZM494.658 13.6H495.658V12.6H494.658V13.6ZM508.298 13.6V12.6H507.298V13.6H508.298ZM517.978 2.43999C517.978 1.80476 517.671 1.25323 517.298 0.880386C516.925 0.50754 516.374 0.199994 515.738 0.199994V2.19999C515.727 2.19999 515.738 2.1975 515.771 2.21274C515.803 2.228 515.844 2.25513 515.884 2.2946C515.923 2.33407 515.95 2.37486 515.966 2.40757C515.981 2.44022 515.978 2.45146 515.978 2.43999H517.978ZM515.738 0.199994H487.218V2.19999H515.738V0.199994ZM487.218 0.199994C486.583 0.199994 486.032 0.507541 485.659 0.880387C485.286 1.25323 484.978 1.80476 484.978 2.43999H486.978C486.978 2.45146 486.976 2.44022 486.991 2.40757C487.006 2.37486 487.033 2.33407 487.073 2.2946C487.112 2.25513 487.153 2.228 487.186 2.21274C487.219 2.1975 487.23 2.19999 487.218 2.19999V0.199994ZM484.978 2.43999V12.36H486.978V2.43999H484.978ZM484.978 12.36C484.978 12.9952 485.286 13.5468 485.659 13.9196C486.032 14.2925 486.583 14.6 487.218 14.6V12.6C487.23 12.6 487.219 12.6025 487.186 12.5873C487.153 12.572 487.112 12.5449 487.073 12.5054C487.033 12.4659 487.006 12.4251 486.991 12.3924C486.976 12.3598 486.978 12.3485 486.978 12.36H484.978ZM487.218 14.6H494.658V12.6H487.218V14.6ZM493.658 13.6V86.76H495.658V13.6H493.658ZM493.658 86.76C493.658 87.3952 493.966 87.9468 494.339 88.3196C494.712 88.6925 495.263 89 495.898 89V87C495.91 87 495.899 87.0025 495.866 86.9873C495.833 86.972 495.792 86.9449 495.753 86.9054C495.713 86.8659 495.686 86.8251 495.671 86.7924C495.656 86.7598 495.658 86.7485 495.658 86.76H493.658ZM495.898 89H507.058V87H495.898V89ZM507.058 89C507.694 89 508.245 88.6925 508.618 88.3196C508.991 87.9468 509.298 87.3952 509.298 86.76H507.298C507.298 86.7485 507.301 86.7598 507.286 86.7924C507.27 86.8251 507.243 86.8659 507.204 86.9054C507.164 86.9449 507.123 86.972 507.091 86.9873C507.058 87.0025 507.047 87 507.058 87V89ZM509.298 86.76V13.6H507.298V86.76H509.298ZM508.298 14.6H515.738V12.6H508.298V14.6ZM515.738 14.6C516.374 14.6 516.925 14.2925 517.298 13.9196C517.671 13.5468 517.978 12.9952 517.978 12.36H515.978C515.978 12.3485 515.981 12.3598 515.966 12.3924C515.95 12.4251 515.923 12.4659 515.884 12.5054C515.844 12.5449 515.803 12.572 515.771 12.5873C515.738 12.6025 515.727 12.6 515.738 12.6V14.6ZM517.978 12.36V2.43999H515.978V12.36H517.978Z" fill="white"/>
</svg>
