<svg width="195" height="56" viewBox="0 0 195 56" fill="none" xmlns="http://www.w3.org/2000/svg">
<path d="M6.96235 5.75127C6.96235 6.28767 6.86755 6.75796 6.67794 7.16214C6.48832 7.56631 6.21638 7.87817 5.8621 8.09772C5.51032 8.31727 5.10615 8.42705 4.64958 8.42705C4.19801 8.42705 3.79508 8.31852 3.4408 8.10147C3.08653 7.88441 2.81209 7.57504 2.61749 7.17336C2.42289 6.76919 2.32434 6.30514 2.32184 5.78121V5.51176C2.32184 4.97536 2.4179 4.50382 2.61 4.09715C2.8046 3.68799 3.0778 3.37488 3.42958 3.15782C3.78385 2.93827 4.18803 2.8285 4.6421 2.8285C5.09617 2.8285 5.4991 2.93827 5.85088 3.15782C6.20515 3.37488 6.47834 3.68799 6.67045 4.09715C6.86505 4.50382 6.96235 4.97411 6.96235 5.50802V5.75127ZM5.82468 5.50428C5.82468 4.93294 5.72239 4.49883 5.51781 4.20194C5.31323 3.90505 5.02132 3.7566 4.6421 3.7566C4.26537 3.7566 3.97471 3.9038 3.77013 4.1982C3.56555 4.4901 3.46201 4.91922 3.45952 5.48556V5.75127C3.45952 6.30763 3.56181 6.73925 3.76639 7.04612C3.97097 7.353 4.26537 7.50643 4.64958 7.50643C5.02631 7.50643 5.31572 7.35923 5.51781 7.06484C5.71989 6.76794 5.82219 6.33633 5.82468 5.76998V5.50428ZM12.2129 8.3522H11.0902V6.01698H8.90089V8.3522H7.77819V2.90334H8.90089V5.11133H11.0902V2.90334H12.2129V8.3522ZM17.6954 2.90334V8.3522H16.569V3.81273H15.1169L15.0271 5.7363C14.9897 6.38498 14.9074 6.89643 14.7801 7.27066C14.6529 7.6424 14.467 7.9156 14.2225 8.09024C13.978 8.26239 13.6437 8.34971 13.2196 8.3522H12.9277V7.4503L13.1148 7.43159C13.3967 7.39416 13.5975 7.23199 13.7173 6.94508C13.8395 6.65567 13.9169 6.14172 13.9493 5.40323L14.0429 2.90334H17.6954ZM21.8195 7.2295H19.851L19.4768 8.3522H18.283L20.3113 2.90334H21.3517L23.3913 8.3522H22.1975L21.8195 7.2295ZM20.1541 6.32011H21.5163L20.8315 4.28053L20.1541 6.32011ZM27.1673 2.90334H28.2937V8.3522H27.1673V4.73335L24.9855 8.3522H23.8628V2.90334H24.9855V6.52968L27.1673 2.90334ZM27.3843 1.47002C27.3843 1.80185 27.2646 2.07005 27.0251 2.27463C26.7881 2.47921 26.4762 2.5815 26.0895 2.5815C25.7028 2.5815 25.3897 2.48046 25.1502 2.27837C24.9132 2.07629 24.7946 1.80684 24.7946 1.47002H25.5618C25.5618 1.6272 25.608 1.74945 25.7003 1.83677C25.7951 1.9216 25.9248 1.96401 26.0895 1.96401C26.2517 1.96401 26.3789 1.9216 26.4712 1.83677C26.5635 1.74945 26.6097 1.6272 26.6097 1.47002H27.3843ZM33.7014 8.3522H32.5787V6.01698H30.3895V8.3522H29.2668V2.90334H30.3895V5.11133H32.5787V2.90334H33.7014V8.3522ZM39.794 3.38985H39.8613C40.288 3.38985 40.6734 3.48466 41.0177 3.67427C41.3645 3.86139 41.634 4.12834 41.8261 4.47513C42.0182 4.82192 42.1142 5.21612 42.1142 5.65771C42.1142 6.31138 41.9047 6.84528 41.4855 7.25944C41.0689 7.67359 40.505 7.88067 39.794 7.88067V8.57674H38.7124V7.88067H38.6413C38.2097 7.88067 37.8205 7.78836 37.4737 7.60373C37.1269 7.41662 36.8575 7.15465 36.6654 6.81784C36.4758 6.48103 36.381 6.09681 36.381 5.6652C36.381 5.22859 36.4758 4.83814 36.6654 4.49384C36.855 4.14955 37.1207 3.88134 37.4625 3.68924C37.8043 3.49464 38.186 3.39484 38.6077 3.38985H38.7124V2.6788H39.794V3.38985ZM38.6413 4.32169C38.2696 4.32169 37.9764 4.43895 37.7619 4.67347C37.5498 4.908 37.4438 5.23857 37.4438 5.6652C37.4438 6.06438 37.5498 6.37874 37.7619 6.60827C37.9739 6.8353 38.2721 6.94882 38.6563 6.94882H38.7124V4.32169H38.6413ZM39.794 4.32169V6.94882H39.8688C40.2356 6.94882 40.5237 6.83406 40.7333 6.60453C40.9454 6.3725 41.0514 6.0569 41.0514 5.65771C41.0514 5.24106 40.9479 4.91423 40.7408 4.67722C40.5337 4.4402 40.2368 4.32169 39.8501 4.32169H39.794ZM46.1298 5.99078H43.9742V7.4503H46.504V8.3522H42.8515V2.90334H46.4965V3.81273H43.9742V5.11133H46.1298V5.99078ZM51.4402 6.53716C51.3978 7.12347 51.1807 7.58502 50.789 7.92183C50.3998 8.25864 49.8858 8.42705 49.2471 8.42705C48.5486 8.42705 47.9985 8.19253 47.5968 7.72349C47.1976 7.25195 46.998 6.60577 46.998 5.78495V5.45188C46.998 4.92795 47.0903 4.4664 47.2749 4.06721C47.4596 3.66803 47.7228 3.36241 48.0646 3.15034C48.4089 2.93578 48.808 2.8285 49.2621 2.8285C49.8908 2.8285 50.3973 2.9969 50.7815 3.33371C51.1657 3.67053 51.3878 4.14331 51.4476 4.75206H50.3249C50.2975 4.40028 50.199 4.1458 50.0293 3.98863C49.8621 3.82895 49.6064 3.74911 49.2621 3.74911C48.8879 3.74911 48.6072 3.88384 48.4201 4.15329C48.2355 4.42024 48.1407 4.83564 48.1357 5.39949V5.81115C48.1357 6.39994 48.2242 6.83032 48.4014 7.10226C48.581 7.3742 48.8629 7.51017 49.2471 7.51017C49.5939 7.51017 49.8522 7.43159 50.0218 7.27441C50.194 7.11473 50.2925 6.86899 50.3175 6.53716H51.4402ZM56.1668 3.81273H54.4977V8.3522H53.375V3.81273H51.7283V2.90334H56.1668V3.81273ZM60.0775 2.90334H61.204V8.3522H60.0775V4.73335L57.8957 8.3522H56.773V2.90334H57.8957V6.52968L60.0775 2.90334ZM62.177 8.3522V2.90334H64.0856C64.7467 2.90334 65.2482 3.03058 65.59 3.28506C65.9318 3.53705 66.1027 3.90754 66.1027 4.39654C66.1027 4.6635 66.0341 4.89926 65.8969 5.10384C65.7596 5.30593 65.5688 5.45438 65.3243 5.54918C65.6037 5.61904 65.8233 5.76 65.9829 5.97207C66.1451 6.18414 66.2262 6.44361 66.2262 6.75048C66.2262 7.27441 66.059 7.6711 65.7247 7.94055C65.3904 8.20999 64.9139 8.34721 64.2951 8.3522H62.177ZM63.2997 5.97955V7.4503H64.2614C64.5259 7.4503 64.7317 7.38792 64.8789 7.26318C65.0286 7.13594 65.1035 6.9613 65.1035 6.73925C65.1035 6.24027 64.8453 5.98704 64.3288 5.97955H63.2997ZM63.2997 5.18618H64.1305C64.6968 5.1762 64.98 4.95041 64.98 4.50881C64.98 4.26182 64.9076 4.08468 64.7629 3.9774C64.6207 3.86762 64.3949 3.81273 64.0856 3.81273H63.2997V5.18618ZM70.1482 7.2295H68.1797L67.8055 8.3522H66.6116L68.64 2.90334H69.6804L71.72 8.3522H70.5261L70.1482 7.2295ZM68.4828 6.32011H69.845L69.1602 4.28053L68.4828 6.32011ZM76.7272 2.90334V8.3522H75.6008V3.81273H74.1487L74.0589 5.7363C74.0215 6.38498 73.9392 6.89643 73.8119 7.27066C73.6847 7.6424 73.4988 7.9156 73.2543 8.09024C73.0098 8.26239 72.6755 8.34971 72.2514 8.3522H71.9595V7.4503L72.1466 7.43159C72.4285 7.39416 72.6293 7.23199 72.7491 6.94508C72.8713 6.65567 72.9487 6.14172 72.9811 5.40323L73.0747 2.90334H76.7272ZM78.8304 4.86808H79.7061C80.3473 4.86808 80.855 5.02401 81.2293 5.33587C81.606 5.64524 81.7944 6.06313 81.7944 6.58956C81.7944 7.11848 81.6072 7.54386 81.233 7.8657C80.8613 8.18505 80.366 8.34721 79.7473 8.3522H77.7002V2.90334H78.8304V4.86808ZM78.8304 5.77373V7.4503H79.7248C80.0118 7.4503 80.24 7.37171 80.4097 7.21453C80.5818 7.05735 80.6679 6.84653 80.6679 6.58207C80.6679 6.33508 80.5856 6.14048 80.4209 5.99827C80.2587 5.85356 80.0355 5.77872 79.751 5.77373H78.8304ZM88.8487 8.3522H87.726V6.01698H85.5367V8.3522H84.414V2.90334H85.5367V5.11133H87.726V2.90334H88.8487V8.3522ZM92.9765 7.2295H91.008L90.6338 8.3522H89.44L91.4683 2.90334H92.5087L94.5483 8.3522H93.3545L92.9765 7.2295ZM91.3111 6.32011H92.6734L91.9885 4.28053L91.3111 6.32011ZM99.2524 6.53716C99.21 7.12347 98.9929 7.58502 98.6012 7.92183C98.212 8.25864 97.6981 8.42705 97.0594 8.42705C96.3608 8.42705 95.8107 8.19253 95.409 7.72349C95.0098 7.25195 94.8102 6.60577 94.8102 5.78495V5.45188C94.8102 4.92795 94.9025 4.4664 95.0872 4.06721C95.2718 3.66803 95.535 3.36241 95.8768 3.15034C96.2211 2.93578 96.6203 2.8285 97.0744 2.8285C97.7031 2.8285 98.2095 2.9969 98.5938 3.33371C98.978 3.67053 99.2 4.14331 99.2599 4.75206H98.1372C98.1097 4.40028 98.0112 4.1458 97.8415 3.98863C97.6744 3.82895 97.4187 3.74911 97.0744 3.74911C96.7001 3.74911 96.4194 3.88384 96.2323 4.15329C96.0477 4.42024 95.9529 4.83564 95.9479 5.39949V5.81115C95.9479 6.39994 96.0365 6.83032 96.2136 7.10226C96.3933 7.3742 96.6752 7.51017 97.0594 7.51017C97.4062 7.51017 97.6644 7.43159 97.8341 7.27441C98.0062 7.11473 98.1048 6.86899 98.1297 6.53716H99.2524ZM103.979 3.81273H102.31V8.3522H101.187V3.81273H99.5406V2.90334H103.979V3.81273ZM108.994 5.75127C108.994 6.28767 108.899 6.75796 108.709 7.16214C108.52 7.56631 108.248 7.87817 107.893 8.09772C107.542 8.31727 107.138 8.42705 106.681 8.42705C106.229 8.42705 105.826 8.31852 105.472 8.10147C105.118 7.88441 104.843 7.57504 104.649 7.17336C104.454 6.76919 104.356 6.30514 104.353 5.78121V5.51176C104.353 4.97536 104.449 4.50382 104.641 4.09715C104.836 3.68799 105.109 3.37488 105.461 3.15782C105.815 2.93827 106.219 2.8285 106.673 2.8285C107.128 2.8285 107.53 2.93827 107.882 3.15782C108.237 3.37488 108.51 3.68799 108.702 4.09715C108.896 4.50382 108.994 4.97411 108.994 5.50802V5.75127ZM107.856 5.50428C107.856 4.93294 107.754 4.49883 107.549 4.20194C107.345 3.90505 107.053 3.7566 106.673 3.7566C106.297 3.7566 106.006 3.9038 105.802 4.1982C105.597 4.4901 105.493 4.91922 105.491 5.48556V5.75127C105.491 6.30763 105.593 6.73925 105.798 7.04612C106.002 7.353 106.297 7.50643 106.681 7.50643C107.058 7.50643 107.347 7.35923 107.549 7.06484C107.751 6.76794 107.854 6.33633 107.856 5.76998V5.50428ZM114.121 2.90334V8.3522H112.994V3.81273H111.542L111.452 5.7363C111.415 6.38498 111.333 6.89643 111.205 7.27066C111.078 7.6424 110.892 7.9156 110.648 8.09024C110.403 8.26239 110.069 8.34971 109.645 8.3522H109.353V7.4503L109.54 7.43159C109.822 7.39416 110.023 7.23199 110.143 6.94508C110.265 6.65567 110.342 6.14172 110.375 5.40323L110.468 2.90334H114.121ZM116.224 4.86808H117.1C117.741 4.86808 118.249 5.02401 118.623 5.33587C119 5.64524 119.188 6.06313 119.188 6.58956C119.188 7.11848 119.001 7.54386 118.627 7.8657C118.255 8.18505 117.76 8.34721 117.141 8.3522H115.094V2.90334H116.224V4.86808ZM116.224 5.77373V7.4503H117.118C117.405 7.4503 117.634 7.37171 117.803 7.21453C117.975 7.05735 118.061 6.84653 118.061 6.58207C118.061 6.33508 117.979 6.14048 117.814 5.99827C117.652 5.85356 117.429 5.77872 117.145 5.77373H116.224ZM124.334 8.3522H123.211V6.01698H121.022V8.3522H119.899V2.90334H121.022V5.11133H123.211V2.90334H124.334V8.3522ZM126.459 4.86808H127.335C127.976 4.86808 128.484 5.02401 128.858 5.33587C129.235 5.64524 129.423 6.06313 129.423 6.58956C129.423 7.11848 129.236 7.54386 128.862 7.8657C128.49 8.18505 127.995 8.34721 127.376 8.3522H125.329V2.90334H126.459V4.86808ZM131.014 8.3522H129.891V2.90334H131.014V8.3522ZM126.459 5.77373V7.4503H127.354C127.641 7.4503 127.869 7.37171 128.039 7.21453C128.211 7.05735 128.297 6.84653 128.297 6.58207C128.297 6.33508 128.214 6.14048 128.05 5.99827C127.888 5.85356 127.664 5.77872 127.38 5.77373H126.459ZM134.019 4.782L135.04 2.90334H136.332L134.745 5.60532L136.373 8.3522H135.067L134.019 6.44361L132.971 8.3522H131.665L133.293 5.60532L131.706 2.90334H132.997L134.019 4.782ZM139.973 6.43238V8.3522H138.85V2.90334H140.976C141.385 2.90334 141.744 2.97819 142.054 3.12788C142.366 3.27758 142.605 3.49089 142.772 3.76783C142.939 4.04227 143.023 4.35538 143.023 4.70716C143.023 5.24106 142.84 5.6627 142.473 5.97207C142.109 6.27894 141.603 6.43238 140.957 6.43238H139.973ZM139.973 5.52299H140.976C141.273 5.52299 141.499 5.45313 141.653 5.31342C141.81 5.1737 141.889 4.97411 141.889 4.71464C141.889 4.44769 141.81 4.23188 141.653 4.06721C141.496 3.90255 141.279 3.81772 141.002 3.81273H139.973V5.52299ZM148.273 5.75127C148.273 6.28767 148.179 6.75796 147.989 7.16214C147.799 7.56631 147.527 7.87817 147.173 8.09772C146.821 8.31727 146.417 8.42705 145.961 8.42705C145.509 8.42705 145.106 8.31852 144.752 8.10147C144.398 7.88441 144.123 7.57504 143.929 7.17336C143.734 6.76919 143.635 6.30514 143.633 5.78121V5.51176C143.633 4.97536 143.729 4.50382 143.921 4.09715C144.116 3.68799 144.389 3.37488 144.741 3.15782C145.095 2.93827 145.499 2.8285 145.953 2.8285C146.407 2.8285 146.81 2.93827 147.162 3.15782C147.516 3.37488 147.789 3.68799 147.982 4.09715C148.176 4.50382 148.273 4.97411 148.273 5.50802V5.75127ZM147.136 5.50428C147.136 4.93294 147.033 4.49883 146.829 4.20194C146.624 3.90505 146.332 3.7566 145.953 3.7566C145.576 3.7566 145.286 3.9038 145.081 4.1982C144.877 4.4901 144.773 4.91922 144.771 5.48556V5.75127C144.771 6.30763 144.873 6.73925 145.077 7.04612C145.282 7.353 145.576 7.50643 145.961 7.50643C146.337 7.50643 146.627 7.35923 146.829 7.06484C147.031 6.76794 147.133 6.33633 147.136 5.76998V5.50428ZM153.4 2.90334V8.3522H152.274V3.81273H150.822L150.732 5.7363C150.695 6.38498 150.612 6.89643 150.485 7.27066C150.358 7.6424 150.172 7.9156 149.928 8.09024C149.683 8.26239 149.349 8.34971 148.925 8.3522H148.633V7.4503L148.82 7.43159C149.102 7.39416 149.303 7.23199 149.422 6.94508C149.545 6.65567 149.622 6.14172 149.654 5.40323L149.748 2.90334H153.4ZM157.659 5.99078H155.504V7.4503H158.033V8.3522H154.381V2.90334H158.026V3.81273H155.504V5.11133H157.659V5.99078ZM158.692 8.3522V2.90334H160.601C161.262 2.90334 161.763 3.03058 162.105 3.28506C162.447 3.53705 162.618 3.90754 162.618 4.39654C162.618 4.6635 162.549 4.89926 162.412 5.10384C162.275 5.30593 162.084 5.45438 161.839 5.54918C162.119 5.61904 162.338 5.76 162.498 5.97207C162.66 6.18414 162.741 6.44361 162.741 6.75048C162.741 7.27441 162.574 7.6711 162.24 7.94055C161.906 8.20999 161.429 8.34721 160.81 8.3522H158.692ZM159.815 5.97955V7.4503H160.777C161.041 7.4503 161.247 7.38792 161.394 7.26318C161.544 7.13594 161.619 6.9613 161.619 6.73925C161.619 6.24027 161.36 5.98704 160.844 5.97955H159.815ZM159.815 5.18618H160.646C161.212 5.1762 161.495 4.95041 161.495 4.50881C161.495 4.26182 161.423 4.08468 161.278 3.9774C161.136 3.86762 160.91 3.81273 160.601 3.81273H159.815V5.18618ZM164.729 4.86808H165.604C166.245 4.86808 166.753 5.02401 167.127 5.33587C167.504 5.64524 167.692 6.06313 167.692 6.58956C167.692 7.11848 167.505 7.54386 167.131 7.8657C166.759 8.18505 166.264 8.34721 165.645 8.3522H163.598V2.90334H164.729V4.86808ZM169.283 8.3522H168.16V2.90334H169.283V8.3522ZM164.729 5.77373V7.4503H165.623C165.91 7.4503 166.138 7.37171 166.308 7.21453C166.48 7.05735 166.566 6.84653 166.566 6.58207C166.566 6.33508 166.484 6.14048 166.319 5.99827C166.157 5.85356 165.934 5.77872 165.649 5.77373H164.729ZM172.288 4.782L173.31 2.90334H174.601L173.014 5.60532L174.642 8.3522H173.336L172.288 6.44361L171.24 8.3522H169.934L171.562 5.60532L169.975 2.90334H171.266L172.288 4.782ZM180.387 2.90334H181.513V8.3522H180.387V4.73335L178.205 8.3522H177.082V2.90334H178.205V6.52968L180.387 2.90334ZM186.06 3.81273H183.616V8.3522H182.493V2.90334H186.06V3.81273ZM187.882 6.43238V8.3522H186.76V2.90334H188.885C189.295 2.90334 189.654 2.97819 189.963 3.12788C190.275 3.27758 190.515 3.49089 190.682 3.76783C190.849 4.04227 190.932 4.35538 190.932 4.70716C190.932 5.24106 190.749 5.6627 190.382 5.97207C190.018 6.27894 189.513 6.43238 188.867 6.43238H187.882ZM187.882 5.52299H188.885C189.182 5.52299 189.408 5.45313 189.563 5.31342C189.72 5.1737 189.799 4.97411 189.799 4.71464C189.799 4.44769 189.72 4.23188 189.563 4.06721C189.406 3.90255 189.189 3.81772 188.912 3.81273H187.882V5.52299Z" fill="white"/>
<path d="M9.87139 35.7193C10.1273 35.7193 10.3832 35.9752 10.3832 36.2311V51.5865C10.3832 51.8424 10.6392 52.0983 10.8951 52.0983H15.5017C15.7576 52.0983 16.0135 51.8424 16.0135 51.5865V35.7193C16.0135 34.1838 14.9898 33.1601 13.4543 33.1601V32.9041C14.9898 32.9041 16.0135 31.8805 16.0135 30.3449V16.7811C16.0135 16.5251 15.7576 16.2692 15.5017 16.2692H10.8951C10.6392 16.2692 10.3832 16.5251 10.3832 16.7811V30.089C10.3832 30.3449 10.1273 30.6009 9.87139 30.6009H8.33586V16.7811C8.33586 16.5251 8.07994 16.2692 7.82402 16.2692H3.21742C2.9615 16.2692 2.70558 16.5251 2.70558 16.7811V51.5865C2.70558 51.8424 2.9615 52.0983 3.21742 52.0983H7.82402C8.07994 52.0983 8.33586 51.8424 8.33586 51.5865V35.7193H9.87139ZM22.6595 16.2692C21.124 16.2692 20.1003 17.2929 20.1003 18.8284V49.5391C20.1003 51.0746 21.124 52.0983 22.6595 52.0983H30.849C32.3845 52.0983 33.4082 51.0746 33.4082 49.5391V18.8284C33.4082 17.2929 32.3845 16.2692 30.849 16.2692H22.6595ZM27.7779 46.468C27.7779 46.7239 27.522 46.9799 27.2661 46.9799H26.2424C25.9865 46.9799 25.7306 46.7239 25.7306 46.468V21.8995C25.7306 21.6436 25.9865 21.3877 26.2424 21.3877H27.2661C27.522 21.3877 27.7779 21.6436 27.7779 21.8995V46.468ZM36.9831 28.5535C36.9831 29.5772 37.3926 30.089 37.7509 30.6009L44.6608 39.5581V46.468C44.6608 46.7239 44.4049 46.9799 44.1489 46.9799H43.1253C42.8693 46.9799 42.6134 46.7239 42.6134 46.468V39.814C42.6134 39.5581 42.3575 39.3022 42.1016 39.3022H37.495C37.239 39.3022 36.9831 39.5581 36.9831 39.814V49.5391C36.9831 51.0746 38.0068 52.0983 39.5423 52.0983H47.7318C49.2674 52.0983 50.2911 51.0746 50.2911 49.5391V38.7904C50.2911 37.7667 49.8816 37.2548 49.5233 36.743L42.6134 27.7857V21.8995C42.6134 21.6436 42.8693 21.3877 43.1253 21.3877H44.1489C44.4049 21.3877 44.6608 21.6436 44.6608 21.8995V28.5535C44.6608 28.8094 44.9167 29.0653 45.1726 29.0653H49.7792C50.0351 29.0653 50.2911 28.8094 50.2911 28.5535V18.8284C50.2911 17.2929 49.2674 16.2692 47.7318 16.2692H39.5423C38.0068 16.2692 36.9831 17.2929 36.9831 18.8284V28.5535ZM65.1505 16.7811C65.1505 16.5251 64.8946 16.2692 64.6387 16.2692H52.8663C52.6104 16.2692 52.3544 16.5251 52.3544 16.7811V20.8758C52.3544 21.1317 52.6104 21.3877 52.8663 21.3877H55.9373V51.5865C55.9373 51.8424 56.1933 52.0983 56.4492 52.0983H61.0558C61.3117 52.0983 61.5676 51.8424 61.5676 51.5865V21.3877H64.6387C64.8946 21.3877 65.1505 21.1317 65.1505 20.8758V16.7811ZM73.316 16.7811C73.316 16.5251 73.0601 16.2692 72.8042 16.2692H68.1976C67.9417 16.2692 67.6858 16.5251 67.6858 16.7811V51.5865C67.6858 51.8424 67.9417 52.0983 68.1976 52.0983H72.8042C73.0601 52.0983 73.316 51.8424 73.316 51.5865V16.7811ZM85.6223 29.0653H90.2289C90.4848 29.0653 90.7407 28.8094 90.7407 28.5535V18.8284C90.7407 17.2929 89.717 16.2692 88.1815 16.2692H79.992C78.4565 16.2692 77.4328 17.2929 77.4328 18.8284V49.5391C77.4328 51.0746 78.4565 52.0983 79.992 52.0983H88.1815C89.717 52.0983 90.7407 51.0746 90.7407 49.5391V39.814C90.7407 39.5581 90.4848 39.3022 90.2289 39.3022H85.6223C85.3664 39.3022 85.1104 39.5581 85.1104 39.814V46.468C85.1104 46.7239 84.8545 46.9799 84.5986 46.9799H83.5749C83.319 46.9799 83.0631 46.7239 83.0631 46.468V21.8995C83.0631 21.6436 83.319 21.3877 83.5749 21.3877H84.5986C84.8545 21.3877 85.1104 21.6436 85.1104 21.8995V28.5535C85.1104 28.8094 85.3664 29.0653 85.6223 29.0653ZM96.8869 16.2692C95.3513 16.2692 94.3276 17.2929 94.3276 18.8284V49.5391C94.3276 51.0746 95.3513 52.0983 96.8869 52.0983H105.076C106.612 52.0983 107.636 51.0746 107.636 49.5391V18.8284C107.636 17.2929 106.612 16.2692 105.076 16.2692H96.8869ZM102.005 46.468C102.005 46.7239 101.749 46.9799 101.493 46.9799H100.47C100.214 46.9799 99.9579 46.7239 99.9579 46.468V21.8995C99.9579 21.6436 100.214 21.3877 100.47 21.3877H101.493C101.749 21.3877 102.005 21.6436 102.005 21.8995V46.468ZM119.4 51.5865C119.4 51.8424 119.656 52.0983 119.912 52.0983H124.518C124.774 52.0983 125.03 51.8424 125.03 51.5865V16.7811C125.03 16.5251 124.774 16.2692 124.518 16.2692H119.912C119.656 16.2692 119.4 16.5251 119.4 16.7811V30.6009L117.353 25.4824V16.7811C117.353 16.5251 117.097 16.2692 116.841 16.2692H112.234C111.978 16.2692 111.722 16.5251 111.722 16.7811V51.5865C111.722 51.8424 111.978 52.0983 112.234 52.0983H116.841C117.097 52.0983 117.353 51.8424 117.353 51.5865V35.7193L119.4 40.8377V51.5865ZM136.795 51.5865C136.795 51.8424 137.051 52.0983 137.307 52.0983H141.913C142.169 52.0983 142.425 51.8424 142.425 51.5865V16.7811C142.425 16.5251 142.169 16.2692 141.913 16.2692H137.307C137.051 16.2692 136.795 16.5251 136.795 16.7811V30.6009L134.747 25.4824V16.7811C134.747 16.5251 134.491 16.2692 134.235 16.2692H129.629C129.373 16.2692 129.117 16.5251 129.117 16.7811V51.5865C129.117 51.8424 129.373 52.0983 129.629 52.0983H134.235C134.491 52.0983 134.747 51.8424 134.747 51.5865V35.7193L136.795 40.8377V51.5865ZM158.284 31.1127C158.284 30.8568 158.028 30.6009 157.772 30.6009H152.142V21.3877H158.796C159.052 21.3877 159.308 21.1317 159.308 20.8758V16.7811C159.308 16.5251 159.052 16.2692 158.796 16.2692H147.024C146.768 16.2692 146.512 16.5251 146.512 16.7811V51.5865C146.512 51.8424 146.768 52.0983 147.024 52.0983H158.796C159.052 52.0983 159.308 51.8424 159.308 51.5865V47.4917C159.308 47.2358 159.052 46.9799 158.796 46.9799H152.142V35.7193H157.772C158.028 35.7193 158.284 35.4634 158.284 35.2074V31.1127ZM170.047 29.0653H174.653C174.909 29.0653 175.165 28.8094 175.165 28.5535V18.8284C175.165 17.2929 174.141 16.2692 172.606 16.2692H164.416C162.881 16.2692 161.857 17.2929 161.857 18.8284V49.5391C161.857 51.0746 162.881 52.0983 164.416 52.0983H172.606C174.141 52.0983 175.165 51.0746 175.165 49.5391V39.814C175.165 39.5581 174.909 39.3022 174.653 39.3022H170.047C169.791 39.3022 169.535 39.5581 169.535 39.814V46.468C169.535 46.7239 169.279 46.9799 169.023 46.9799H167.999C167.743 46.9799 167.487 46.7239 167.487 46.468V21.8995C167.487 21.6436 167.743 21.3877 167.999 21.3877H169.023C169.279 21.3877 169.535 21.6436 169.535 21.8995V28.5535C169.535 28.8094 169.791 29.0653 170.047 29.0653ZM190.012 16.7811C190.012 16.5251 189.757 16.2692 189.501 16.2692H177.728C177.472 16.2692 177.216 16.5251 177.216 16.7811V20.8758C177.216 21.1317 177.472 21.3877 177.728 21.3877H180.799V51.5865C180.799 51.8424 181.055 52.0983 181.311 52.0983H185.918C186.174 52.0983 186.43 51.8424 186.43 51.5865V21.3877H189.501C189.757 21.3877 190.012 21.1317 190.012 20.8758V16.7811Z" fill="white"/>
</svg>
