<svg width="881" height="170" viewBox="0 0 881 170" fill="none" xmlns="http://www.w3.org/2000/svg">
<path d="M35.2 92.2C36.4 92.2 37.6 93.4 37.6 94.6V166.6C37.6 167.8 38.8 169 40 169H61.6C62.8 169 64 167.8 64 166.6V92.2C64 85 59.2 80.2 52 80.2V79C59.2 79 64 74.2 64 67V3.39999C64 2.19999 62.8 0.999989 61.6 0.999989H40C38.8 0.999989 37.6 2.19999 37.6 3.39999V65.8C37.6 67 36.4 68.2 35.2 68.2H28V3.39999C28 2.19999 26.8 0.999989 25.6 0.999989H4C2.8 0.999989 1.6 2.19999 1.6 3.39999V166.6C1.6 167.8 2.8 169 4 169H25.6C26.8 169 28 167.8 28 166.6V92.2H35.2ZM95.1625 0.999989C87.9625 0.999989 83.1625 5.8 83.1625 13V157C83.1625 164.2 87.9625 169 95.1625 169H133.562C140.763 169 145.563 164.2 145.563 157V13C145.563 5.8 140.763 0.999989 133.562 0.999989H95.1625ZM119.163 142.6C119.163 143.8 117.963 145 116.763 145H111.963C110.763 145 109.563 143.8 109.563 142.6V27.4C109.563 26.2 110.763 25 111.963 25H116.763C117.963 25 119.163 26.2 119.163 27.4V142.6ZM162.325 58.6C162.325 63.4 164.245 65.8 165.925 68.2L198.325 110.2V142.6C198.325 143.8 197.125 145 195.925 145H191.125C189.925 145 188.725 143.8 188.725 142.6V111.4C188.725 110.2 187.525 109 186.325 109H164.725C163.525 109 162.325 110.2 162.325 111.4V157C162.325 164.2 167.125 169 174.325 169H212.725C219.925 169 224.725 164.2 224.725 157V106.6C224.725 101.8 222.805 99.4 221.125 97L188.725 55V27.4C188.725 26.2 189.925 25 191.125 25H195.925C197.125 25 198.325 26.2 198.325 27.4V58.6C198.325 59.8 199.525 61 200.725 61H222.325C223.525 61 224.725 59.8 224.725 58.6V13C224.725 5.8 219.925 0.999989 212.725 0.999989H174.325C167.125 0.999989 162.325 5.8 162.325 13V58.6ZM294.4 3.39999C294.4 2.19999 293.2 0.999989 292 0.999989H236.8C235.6 0.999989 234.4 2.19999 234.4 3.39999V22.6C234.4 23.8 235.6 25 236.8 25H251.2V166.6C251.2 167.8 252.4 169 253.6 169H275.2C276.4 169 277.6 167.8 277.6 166.6V25H292C293.2 25 294.4 23.8 294.4 22.6V3.39999ZM332.688 3.39999C332.688 2.19999 331.488 0.999989 330.288 0.999989H308.688C307.488 0.999989 306.288 2.19999 306.288 3.39999V166.6C306.288 167.8 307.488 169 308.688 169H330.288C331.488 169 332.688 167.8 332.688 166.6V3.39999ZM390.391 61H411.991C413.191 61 414.391 59.8 414.391 58.6V13C414.391 5.8 409.591 0.999989 402.391 0.999989H363.991C356.791 0.999989 351.991 5.8 351.991 13V157C351.991 164.2 356.791 169 363.991 169H402.391C409.591 169 414.391 164.2 414.391 157V111.4C414.391 110.2 413.191 109 411.991 109H390.391C389.191 109 387.991 110.2 387.991 111.4V142.6C387.991 143.8 386.791 145 385.591 145H380.791C379.591 145 378.391 143.8 378.391 142.6V27.4C378.391 26.2 379.591 25 380.791 25H385.591C386.791 25 387.991 26.2 387.991 27.4V58.6C387.991 59.8 389.191 61 390.391 61ZM443.209 0.999989C436.009 0.999989 431.209 5.8 431.209 13V157C431.209 164.2 436.009 169 443.209 169H481.609C488.809 169 493.609 164.2 493.609 157V13C493.609 5.8 488.809 0.999989 481.609 0.999989H443.209ZM467.209 142.6C467.209 143.8 466.009 145 464.809 145H460.009C458.809 145 457.609 143.8 457.609 142.6V27.4C457.609 26.2 458.809 25 460.009 25H464.809C466.009 25 467.209 26.2 467.209 27.4V142.6ZM548.772 166.6C548.772 167.8 549.972 169 551.172 169H572.772C573.972 169 575.172 167.8 575.172 166.6V3.39999C575.172 2.19999 573.972 0.999989 572.772 0.999989H551.172C549.972 0.999989 548.772 2.19999 548.772 3.39999V68.2L539.172 44.2V3.39999C539.172 2.19999 537.972 0.999989 536.772 0.999989H515.172C513.972 0.999989 512.772 2.19999 512.772 3.39999V166.6C512.772 167.8 513.972 169 515.172 169H536.772C537.972 169 539.172 167.8 539.172 166.6V92.2L548.772 116.2V166.6ZM630.334 166.6C630.334 167.8 631.534 169 632.734 169H654.334C655.534 169 656.734 167.8 656.734 166.6V3.39999C656.734 2.19999 655.534 0.999989 654.334 0.999989H632.734C631.534 0.999989 630.334 2.19999 630.334 3.39999V68.2L620.734 44.2V3.39999C620.734 2.19999 619.534 0.999989 618.334 0.999989H596.734C595.534 0.999989 594.334 2.19999 594.334 3.39999V166.6C594.334 167.8 595.534 169 596.734 169H618.334C619.534 169 620.734 167.8 620.734 166.6V92.2L630.334 116.2V166.6ZM731.097 70.6C731.097 69.4 729.897 68.2 728.697 68.2H702.297V25H733.497C734.697 25 735.897 23.8 735.897 22.6V3.39999C735.897 2.19999 734.697 0.999989 733.497 0.999989H678.297C677.097 0.999989 675.897 2.19999 675.897 3.39999V166.6C675.897 167.8 677.097 169 678.297 169H733.497C734.697 169 735.897 167.8 735.897 166.6V147.4C735.897 146.2 734.697 145 733.497 145H702.297V92.2H728.697C729.897 92.2 731.097 91 731.097 89.8V70.6ZM786.25 61H807.85C809.05 61 810.25 59.8 810.25 58.6V13C810.25 5.8 805.45 0.999989 798.25 0.999989H759.85C752.65 0.999989 747.85 5.8 747.85 13V157C747.85 164.2 752.65 169 759.85 169H798.25C805.45 169 810.25 164.2 810.25 157V111.4C810.25 110.2 809.05 109 807.85 109H786.25C785.05 109 783.85 110.2 783.85 111.4V142.6C783.85 143.8 782.65 145 781.45 145H776.65C775.45 145 774.25 143.8 774.25 142.6V27.4C774.25 26.2 775.45 25 776.65 25H781.45C782.65 25 783.85 26.2 783.85 27.4V58.6C783.85 59.8 785.05 61 786.25 61ZM879.869 3.39999C879.869 2.19999 878.669 0.999989 877.469 0.999989H822.269C821.069 0.999989 819.869 2.19999 819.869 3.39999V22.6C819.869 23.8 821.069 25 822.269 25H836.669V166.6C836.669 167.8 837.869 169 839.069 169H860.669C861.869 169 863.069 167.8 863.069 166.6V25H877.469C878.669 25 879.869 23.8 879.869 22.6V3.39999Z" fill="#443A97"/>
<path d="M52 80.2H51V81.2H52V80.2ZM52 79V78H51V79H52ZM28 68.2H27V69.2H28V68.2ZM28 92.2V91.2H27V92.2H28ZM35.2 93.2C35.4748 93.2 35.8332 93.3474 36.1429 93.6571C36.4525 93.9668 36.6 94.3252 36.6 94.6H38.6C38.6 93.6748 38.1475 92.8332 37.5571 92.2429C36.9668 91.6525 36.1252 91.2 35.2 91.2V93.2ZM36.6 94.6V166.6H38.6V94.6H36.6ZM36.6 166.6C36.6 167.525 37.0526 168.367 37.6429 168.957C38.2332 169.547 39.0748 170 40 170V168C39.7252 168 39.3668 167.853 39.0571 167.543C38.7475 167.233 38.6 166.875 38.6 166.6H36.6ZM40 170H61.6V168H40V170ZM61.6 170C62.5252 170 63.3668 169.547 63.9571 168.957C64.5475 168.367 65 167.525 65 166.6H63C63 166.875 62.8525 167.233 62.5429 167.543C62.2332 167.853 61.8748 168 61.6 168V170ZM65 166.6V92.2H63V166.6H65ZM65 92.2C65 88.3727 63.7199 85.1057 61.4071 82.7929C59.0943 80.4801 55.8272 79.2 52 79.2V81.2C55.3728 81.2 58.1057 82.3199 59.9929 84.2071C61.8801 86.0943 63 88.8272 63 92.2H65ZM53 80.2V79H51V80.2H53ZM52 80C55.8272 80 59.0943 78.7199 61.4071 76.4071C63.7199 74.0943 65 70.8272 65 67H63C63 70.3727 61.8801 73.1057 59.9929 74.9929C58.1057 76.8801 55.3728 78 52 78V80ZM65 67V3.39999H63V67H65ZM65 3.39999C65 2.47475 64.5475 1.63323 63.9571 1.04288C63.3668 0.452534 62.5252 -1.14441e-05 61.6 -1.14441e-05V1.99999C61.8748 1.99999 62.2332 2.14744 62.5429 2.4571C62.8525 2.76675 63 3.12522 63 3.39999H65ZM61.6 -1.14441e-05H40V1.99999H61.6V-1.14441e-05ZM40 -1.14441e-05C39.0748 -1.14441e-05 38.2332 0.452534 37.6429 1.04288C37.0526 1.63323 36.6 2.47475 36.6 3.39999H38.6C38.6 3.12522 38.7475 2.76675 39.0571 2.4571C39.3668 2.14744 39.7252 1.99999 40 1.99999V-1.14441e-05ZM36.6 3.39999V65.8H38.6V3.39999H36.6ZM36.6 65.8C36.6 66.0748 36.4525 66.4332 36.1429 66.7429C35.8332 67.0525 35.4748 67.2 35.2 67.2V69.2C36.1252 69.2 36.9668 68.7475 37.5571 68.1571C38.1475 67.5668 38.6 66.7252 38.6 65.8H36.6ZM35.2 67.2H28V69.2H35.2V67.2ZM29 68.2V3.39999H27V68.2H29ZM29 3.39999C29 2.47475 28.5475 1.63323 27.9571 1.04288C27.3668 0.452534 26.5252 -1.14441e-05 25.6 -1.14441e-05V1.99999C25.8748 1.99999 26.2332 2.14744 26.5429 2.4571C26.8526 2.76675 27 3.12522 27 3.39999H29ZM25.6 -1.14441e-05H4V1.99999H25.6V-1.14441e-05ZM4 -1.14441e-05C3.07477 -1.14441e-05 2.23324 0.452534 1.64289 1.04288C1.05255 1.63322 0.6 2.47475 0.6 3.39999H2.6C2.6 3.12522 2.74745 2.76675 3.05711 2.4571C3.36676 2.14744 3.72523 1.99999 4 1.99999V-1.14441e-05ZM0.6 3.39999V166.6H2.6V3.39999H0.6ZM0.6 166.6C0.6 167.525 1.05255 168.367 1.64289 168.957C2.23324 169.547 3.07477 170 4 170V168C3.72523 168 3.36676 167.853 3.05711 167.543C2.74745 167.233 2.6 166.875 2.6 166.6H0.6ZM4 170H25.6V168H4V170ZM25.6 170C26.5252 170 27.3668 169.547 27.9571 168.957C28.5475 168.367 29 167.525 29 166.6H27C27 166.875 26.8526 167.233 26.5429 167.543C26.2332 167.853 25.8748 168 25.6 168V170ZM29 166.6V92.2H27V166.6H29ZM28 93.2H35.2V91.2H28V93.2ZM95.1625 -1.14441e-05C91.3353 -1.14441e-05 88.0682 1.28011 85.7554 3.59289C83.4426 5.90567 82.1625 9.17275 82.1625 13H84.1625C84.1625 9.62724 85.2824 6.89432 87.1696 5.0071C89.0568 3.11988 91.7897 1.99999 95.1625 1.99999V-1.14441e-05ZM82.1625 13V157H84.1625V13H82.1625ZM82.1625 157C82.1625 160.827 83.4426 164.094 85.7554 166.407C88.0682 168.72 91.3353 170 95.1625 170V168C91.7897 168 89.0568 166.88 87.1696 164.993C85.2824 163.106 84.1625 160.373 84.1625 157H82.1625ZM95.1625 170H133.562V168H95.1625V170ZM133.562 170C137.39 170 140.657 168.72 142.97 166.407C145.282 164.094 146.562 160.827 146.562 157H144.562C144.562 160.373 143.443 163.106 141.555 164.993C139.668 166.88 136.935 168 133.562 168V170ZM146.562 157V13H144.562V157H146.562ZM146.562 13C146.562 9.17275 145.282 5.90567 142.97 3.59288C140.657 1.28011 137.39 -1.14441e-05 133.562 -1.14441e-05V1.99999C136.935 1.99999 139.668 3.11988 141.555 5.0071C143.443 6.89432 144.562 9.62724 144.562 13H146.562ZM133.562 -1.14441e-05H95.1625V1.99999H133.562V-1.14441e-05ZM118.163 142.6C118.163 142.875 118.015 143.233 117.705 143.543C117.396 143.853 117.037 144 116.763 144V146C117.688 146 118.529 145.547 119.12 144.957C119.71 144.367 120.163 143.525 120.163 142.6H118.163ZM116.763 144H111.963V146H116.763V144ZM111.963 144C111.688 144 111.329 143.853 111.02 143.543C110.71 143.233 110.562 142.875 110.562 142.6H108.562C108.562 143.525 109.015 144.367 109.605 144.957C110.196 145.547 111.037 146 111.963 146V144ZM110.562 142.6V27.4H108.562V142.6H110.562ZM110.562 27.4C110.562 27.1252 110.71 26.7668 111.02 26.4571C111.329 26.1474 111.688 26 111.963 26V24C111.037 24 110.196 24.4525 109.605 25.0429C109.015 25.6332 108.562 26.4748 108.562 27.4H110.562ZM111.963 26H116.763V24H111.963V26ZM116.763 26C117.037 26 117.396 26.1474 117.705 26.4571C118.015 26.7668 118.163 27.1252 118.163 27.4H120.163C120.163 26.4748 119.71 25.6332 119.12 25.0429C118.529 24.4525 117.688 24 116.763 24V26ZM118.163 27.4V142.6H120.163V27.4H118.163ZM165.925 68.2L165.106 68.7735L165.119 68.7924L165.133 68.8108L165.925 68.2ZM198.325 110.2H199.325V109.859L199.117 109.589L198.325 110.2ZM221.125 97L221.944 96.4265L221.931 96.4075L221.917 96.3892L221.125 97ZM188.725 55H187.725V55.3409L187.933 55.6108L188.725 55ZM161.325 58.6C161.325 63.7455 163.429 66.3777 165.106 68.7735L166.744 67.6265C165.061 65.2223 163.325 63.0545 163.325 58.6H161.325ZM165.133 68.8108L197.533 110.811L199.117 109.589L166.717 67.5892L165.133 68.8108ZM197.325 110.2V142.6H199.325V110.2H197.325ZM197.325 142.6C197.325 142.875 197.178 143.233 196.868 143.543C196.558 143.853 196.2 144 195.925 144V146C196.85 146 197.692 145.547 198.282 144.957C198.872 144.367 199.325 143.525 199.325 142.6H197.325ZM195.925 144H191.125V146H195.925V144ZM191.125 144C190.85 144 190.492 143.853 190.182 143.543C189.872 143.233 189.725 142.875 189.725 142.6H187.725C187.725 143.525 188.178 144.367 188.768 144.957C189.358 145.547 190.2 146 191.125 146V144ZM189.725 142.6V111.4H187.725V142.6H189.725ZM189.725 111.4C189.725 110.475 189.272 109.633 188.682 109.043C188.092 108.453 187.25 108 186.325 108V110C186.6 110 186.958 110.147 187.268 110.457C187.578 110.767 187.725 111.125 187.725 111.4H189.725ZM186.325 108H164.725V110H186.325V108ZM164.725 108C163.8 108 162.958 108.453 162.368 109.043C161.778 109.633 161.325 110.475 161.325 111.4H163.325C163.325 111.125 163.472 110.767 163.782 110.457C164.092 110.147 164.45 110 164.725 110V108ZM161.325 111.4V157H163.325V111.4H161.325ZM161.325 157C161.325 160.827 162.605 164.094 164.918 166.407C167.231 168.72 170.498 170 174.325 170V168C170.952 168 168.219 166.88 166.332 164.993C164.445 163.106 163.325 160.373 163.325 157H161.325ZM174.325 170H212.725V168H174.325V170ZM212.725 170C216.552 170 219.819 168.72 222.132 166.407C224.445 164.094 225.725 160.827 225.725 157H223.725C223.725 160.373 222.605 163.106 220.718 164.993C218.831 166.88 216.098 168 212.725 168V170ZM225.725 157V106.6H223.725V157H225.725ZM225.725 106.6C225.725 101.454 223.621 98.8223 221.944 96.4265L220.306 97.5735C221.989 99.9778 223.725 102.146 223.725 106.6H225.725ZM221.917 96.3892L189.517 54.3892L187.933 55.6108L220.333 97.6108L221.917 96.3892ZM189.725 55V27.4H187.725V55H189.725ZM189.725 27.4C189.725 27.1252 189.872 26.7668 190.182 26.4571C190.492 26.1474 190.85 26 191.125 26V24C190.2 24 189.358 24.4525 188.768 25.0429C188.178 25.6332 187.725 26.4748 187.725 27.4H189.725ZM191.125 26H195.925V24H191.125V26ZM195.925 26C196.2 26 196.558 26.1474 196.868 26.4571C197.178 26.7668 197.325 27.1252 197.325 27.4H199.325C199.325 26.4748 198.872 25.6332 198.282 25.0429C197.692 24.4525 196.85 24 195.925 24V26ZM197.325 27.4V58.6H199.325V27.4H197.325ZM197.325 58.6C197.325 59.5252 197.778 60.3668 198.368 60.9571C198.958 61.5474 199.8 62 200.725 62V60C200.45 60 200.092 59.8525 199.782 59.5429C199.472 59.2332 199.325 58.8748 199.325 58.6H197.325ZM200.725 62H222.325V60H200.725V62ZM222.325 62C223.25 62 224.092 61.5474 224.682 60.9571C225.272 60.3668 225.725 59.5252 225.725 58.6H223.725C223.725 58.8748 223.578 59.2332 223.268 59.5429C222.958 59.8525 222.6 60 222.325 60V62ZM225.725 58.6V13H223.725V58.6H225.725ZM225.725 13C225.725 9.17275 224.445 5.90567 222.132 3.59288C219.819 1.28011 216.552 -1.14441e-05 212.725 -1.14441e-05V1.99999C216.098 1.99999 218.831 3.11988 220.718 5.0071C222.605 6.89432 223.725 9.62724 223.725 13H225.725ZM212.725 -1.14441e-05H174.325V1.99999H212.725V-1.14441e-05ZM174.325 -1.14441e-05C170.498 -1.14441e-05 167.231 1.28011 164.918 3.59289C162.605 5.90567 161.325 9.17275 161.325 13H163.325C163.325 9.62724 164.445 6.89432 166.332 5.0071C168.219 3.11988 170.952 1.99999 174.325 1.99999V-1.14441e-05ZM161.325 13V58.6H163.325V13H161.325ZM251.2 25H252.2V24H251.2V25ZM277.6 25V24H276.6V25H277.6ZM295.4 3.39999C295.4 2.47475 294.947 1.63322 294.357 1.04288C293.767 0.452534 292.925 -1.14441e-05 292 -1.14441e-05V1.99999C292.275 1.99999 292.633 2.14744 292.943 2.4571C293.253 2.76675 293.4 3.12522 293.4 3.39999H295.4ZM292 -1.14441e-05H236.8V1.99999H292V-1.14441e-05ZM236.8 -1.14441e-05C235.875 -1.14441e-05 235.033 0.452534 234.443 1.04288C233.853 1.63322 233.4 2.47475 233.4 3.39999H235.4C235.4 3.12522 235.547 2.76675 235.857 2.4571C236.167 2.14744 236.525 1.99999 236.8 1.99999V-1.14441e-05ZM233.4 3.39999V22.6H235.4V3.39999H233.4ZM233.4 22.6C233.4 23.5252 233.853 24.3668 234.443 24.9571C235.033 25.5474 235.875 26 236.8 26V24C236.525 24 236.167 23.8525 235.857 23.5429C235.547 23.2332 235.4 22.8748 235.4 22.6H233.4ZM236.8 26H251.2V24H236.8V26ZM250.2 25V166.6H252.2V25H250.2ZM250.2 166.6C250.2 167.525 250.653 168.367 251.243 168.957C251.833 169.547 252.675 170 253.6 170V168C253.325 168 252.967 167.853 252.657 167.543C252.347 167.233 252.2 166.875 252.2 166.6H250.2ZM253.6 170H275.2V168H253.6V170ZM275.2 170C276.125 170 276.967 169.547 277.557 168.957C278.147 168.367 278.6 167.525 278.6 166.6H276.6C276.6 166.875 276.453 167.233 276.143 167.543C275.833 167.853 275.475 168 275.2 168V170ZM278.6 166.6V25H276.6V166.6H278.6ZM277.6 26H292V24H277.6V26ZM292 26C292.925 26 293.767 25.5474 294.357 24.9571C294.947 24.3668 295.4 23.5252 295.4 22.6H293.4C293.4 22.8748 293.253 23.2332 292.943 23.5429C292.633 23.8525 292.275 24 292 24V26ZM295.4 22.6V3.39999H293.4V22.6H295.4ZM333.688 3.39999C333.688 2.47475 333.235 1.63323 332.645 1.04288C332.054 0.452534 331.213 -1.14441e-05 330.288 -1.14441e-05V1.99999C330.562 1.99999 330.921 2.14744 331.23 2.4571C331.54 2.76675 331.688 3.12522 331.688 3.39999H333.688ZM330.288 -1.14441e-05H308.688V1.99999H330.288V-1.14441e-05ZM308.688 -1.14441e-05C307.762 -1.14441e-05 306.921 0.452534 306.33 1.04288C305.74 1.63322 305.288 2.47475 305.288 3.39999H307.288C307.288 3.12522 307.435 2.76675 307.745 2.4571C308.054 2.14744 308.413 1.99999 308.688 1.99999V-1.14441e-05ZM305.288 3.39999V166.6H307.288V3.39999H305.288ZM305.288 166.6C305.288 167.525 305.74 168.367 306.33 168.957C306.921 169.547 307.762 170 308.688 170V168C308.413 168 308.054 167.853 307.745 167.543C307.435 167.233 307.288 166.875 307.288 166.6H305.288ZM308.688 170H330.288V168H308.688V170ZM330.288 170C331.213 170 332.054 169.547 332.645 168.957C333.235 168.367 333.688 167.525 333.688 166.6H331.688C331.688 166.875 331.54 167.233 331.23 167.543C330.921 167.853 330.562 168 330.288 168V170ZM333.688 166.6V3.39999H331.688V166.6H333.688ZM390.391 62H411.991V60H390.391V62ZM411.991 62C412.916 62 413.757 61.5474 414.348 60.9571C414.938 60.3668 415.391 59.5252 415.391 58.6H413.391C413.391 58.8748 413.243 59.2332 412.934 59.5429C412.624 59.8525 412.265 60 411.991 60V62ZM415.391 58.6V13H413.391V58.6H415.391ZM415.391 13C415.391 9.17275 414.111 5.90567 411.798 3.59288C409.485 1.28011 406.218 -1.14441e-05 402.391 -1.14441e-05V1.99999C405.763 1.99999 408.496 3.11988 410.384 5.0071C412.271 6.89432 413.391 9.62724 413.391 13H415.391ZM402.391 -1.14441e-05H363.991V1.99999H402.391V-1.14441e-05ZM363.991 -1.14441e-05C360.163 -1.14441e-05 356.896 1.28011 354.584 3.59289C352.271 5.90567 350.991 9.17275 350.991 13H352.991C352.991 9.62724 354.111 6.89432 355.998 5.0071C357.885 3.11988 360.618 1.99999 363.991 1.99999V-1.14441e-05ZM350.991 13V157H352.991V13H350.991ZM350.991 157C350.991 160.827 352.271 164.094 354.584 166.407C356.896 168.72 360.163 170 363.991 170V168C360.618 168 357.885 166.88 355.998 164.993C354.111 163.106 352.991 160.373 352.991 157H350.991ZM363.991 170H402.391V168H363.991V170ZM402.391 170C406.218 170 409.485 168.72 411.798 166.407C414.111 164.094 415.391 160.827 415.391 157H413.391C413.391 160.373 412.271 163.106 410.384 164.993C408.496 166.88 405.763 168 402.391 168V170ZM415.391 157V111.4H413.391V157H415.391ZM415.391 111.4C415.391 110.475 414.938 109.633 414.348 109.043C413.757 108.453 412.916 108 411.991 108V110C412.265 110 412.624 110.147 412.934 110.457C413.243 110.767 413.391 111.125 413.391 111.4H415.391ZM411.991 108H390.391V110H411.991V108ZM390.391 108C389.465 108 388.624 108.453 388.034 109.043C387.443 109.633 386.991 110.475 386.991 111.4H388.991C388.991 111.125 389.138 110.767 389.448 110.457C389.757 110.147 390.116 110 390.391 110V108ZM386.991 111.4V142.6H388.991V111.4H386.991ZM386.991 142.6C386.991 142.875 386.843 143.233 386.534 143.543C386.224 143.853 385.865 144 385.591 144V146C386.516 146 387.357 145.547 387.948 144.957C388.538 144.367 388.991 143.525 388.991 142.6H386.991ZM385.591 144H380.791V146H385.591V144ZM380.791 144C380.516 144 380.157 143.853 379.848 143.543C379.538 143.233 379.391 142.875 379.391 142.6H377.391C377.391 143.525 377.843 144.367 378.434 144.957C379.024 145.547 379.865 146 380.791 146V144ZM379.391 142.6V27.4H377.391V142.6H379.391ZM379.391 27.4C379.391 27.1252 379.538 26.7668 379.848 26.4571C380.157 26.1474 380.516 26 380.791 26V24C379.865 24 379.024 24.4525 378.434 25.0429C377.843 25.6332 377.391 26.4748 377.391 27.4H379.391ZM380.791 26H385.591V24H380.791V26ZM385.591 26C385.865 26 386.224 26.1474 386.534 26.4571C386.843 26.7668 386.991 27.1252 386.991 27.4H388.991C388.991 26.4748 388.538 25.6332 387.948 25.0429C387.357 24.4525 386.516 24 385.591 24V26ZM386.991 27.4V58.6H388.991V27.4H386.991ZM386.991 58.6C386.991 59.5252 387.443 60.3668 388.034 60.9571C388.624 61.5474 389.465 62 390.391 62V60C390.116 60 389.757 59.8525 389.448 59.5429C389.138 59.2332 388.991 58.8748 388.991 58.6H386.991ZM443.209 -1.14441e-05C439.382 -1.14441e-05 436.115 1.28011 433.802 3.59289C431.49 5.90567 430.209 9.17275 430.209 13H432.209C432.209 9.62724 433.329 6.89432 435.216 5.0071C437.104 3.11988 439.837 1.99999 443.209 1.99999V-1.14441e-05ZM430.209 13V157H432.209V13H430.209ZM430.209 157C430.209 160.827 431.49 164.094 433.802 166.407C436.115 168.72 439.382 170 443.209 170V168C439.837 168 437.104 166.88 435.216 164.993C433.329 163.106 432.209 160.373 432.209 157H430.209ZM443.209 170H481.609V168H443.209V170ZM481.609 170C485.437 170 488.704 168.72 491.016 166.407C493.329 164.094 494.609 160.827 494.609 157H492.609C492.609 160.373 491.49 163.106 489.602 164.993C487.715 166.88 484.982 168 481.609 168V170ZM494.609 157V13H492.609V157H494.609ZM494.609 13C494.609 9.17275 493.329 5.90567 491.016 3.59288C488.704 1.28011 485.437 -1.14441e-05 481.609 -1.14441e-05V1.99999C484.982 1.99999 487.715 3.11988 489.602 5.0071C491.49 6.89432 492.609 9.62724 492.609 13H494.609ZM481.609 -1.14441e-05H443.209V1.99999H481.609V-1.14441e-05ZM466.209 142.6C466.209 142.875 466.062 143.233 465.752 143.543C465.443 143.853 465.084 144 464.809 144V146C465.735 146 466.576 145.547 467.166 144.957C467.757 144.367 468.209 143.525 468.209 142.6H466.209ZM464.809 144H460.009V146H464.809V144ZM460.009 144C459.735 144 459.376 143.853 459.066 143.543C458.757 143.233 458.609 142.875 458.609 142.6H456.609C456.609 143.525 457.062 144.367 457.652 144.957C458.243 145.547 459.084 146 460.009 146V144ZM458.609 142.6V27.4H456.609V142.6H458.609ZM458.609 27.4C458.609 27.1252 458.757 26.7668 459.066 26.4571C459.376 26.1474 459.735 26 460.009 26V24C459.084 24 458.243 24.4525 457.652 25.0429C457.062 25.6332 456.609 26.4748 456.609 27.4H458.609ZM460.009 26H464.809V24H460.009V26ZM464.809 26C465.084 26 465.443 26.1474 465.752 26.4571C466.062 26.7668 466.209 27.1252 466.209 27.4H468.209C468.209 26.4748 467.757 25.6332 467.166 25.0429C466.576 24.4525 465.735 24 464.809 24V26ZM466.209 27.4V142.6H468.209V27.4H466.209ZM548.772 68.2L547.843 68.5714L549.772 68.2H548.772ZM539.172 44.2H538.172V44.3926L538.243 44.5714L539.172 44.2ZM539.172 92.2L540.1 91.8286L538.172 92.2H539.172ZM548.772 116.2H549.772V116.007L549.7 115.829L548.772 116.2ZM547.772 166.6C547.772 167.525 548.224 168.367 548.815 168.957C549.405 169.547 550.247 170 551.172 170V168C550.897 168 550.539 167.853 550.229 167.543C549.919 167.233 549.772 166.875 549.772 166.6H547.772ZM551.172 170H572.772V168H551.172V170ZM572.772 170C573.697 170 574.539 169.547 575.129 168.957C575.719 168.367 576.172 167.525 576.172 166.6H574.172C574.172 166.875 574.024 167.233 573.715 167.543C573.405 167.853 573.047 168 572.772 168V170ZM576.172 166.6V3.39999H574.172V166.6H576.172ZM576.172 3.39999C576.172 2.47475 575.719 1.63323 575.129 1.04288C574.539 0.452534 573.697 -1.14441e-05 572.772 -1.14441e-05V1.99999C573.047 1.99999 573.405 2.14744 573.715 2.4571C574.024 2.76675 574.172 3.12522 574.172 3.39999H576.172ZM572.772 -1.14441e-05H551.172V1.99999H572.772V-1.14441e-05ZM551.172 -1.14441e-05C550.247 -1.14441e-05 549.405 0.452534 548.815 1.04288C548.224 1.63323 547.772 2.47475 547.772 3.39999H549.772C549.772 3.12522 549.919 2.76675 550.229 2.4571C550.539 2.14744 550.897 1.99999 551.172 1.99999V-1.14441e-05ZM547.772 3.39999V68.2H549.772V3.39999H547.772ZM549.7 67.8286L540.1 43.8286L538.243 44.5714L547.843 68.5714L549.7 67.8286ZM540.172 44.2V3.39999H538.172V44.2H540.172ZM540.172 3.39999C540.172 2.47475 539.719 1.63323 539.129 1.04288C538.539 0.452534 537.697 -1.14441e-05 536.772 -1.14441e-05V1.99999C537.047 1.99999 537.405 2.14744 537.715 2.4571C538.024 2.76675 538.172 3.12522 538.172 3.39999H540.172ZM536.772 -1.14441e-05H515.172V1.99999H536.772V-1.14441e-05ZM515.172 -1.14441e-05C514.247 -1.14441e-05 513.405 0.452534 512.815 1.04288C512.224 1.63322 511.772 2.47475 511.772 3.39999H513.772C513.772 3.12522 513.919 2.76675 514.229 2.4571C514.539 2.14744 514.897 1.99999 515.172 1.99999V-1.14441e-05ZM511.772 3.39999V166.6H513.772V3.39999H511.772ZM511.772 166.6C511.772 167.525 512.224 168.367 512.815 168.957C513.405 169.547 514.247 170 515.172 170V168C514.897 168 514.539 167.853 514.229 167.543C513.919 167.233 513.772 166.875 513.772 166.6H511.772ZM515.172 170H536.772V168H515.172V170ZM536.772 170C537.697 170 538.539 169.547 539.129 168.957C539.719 168.367 540.172 167.525 540.172 166.6H538.172C538.172 166.875 538.024 167.233 537.715 167.543C537.405 167.853 537.047 168 536.772 168V170ZM540.172 166.6V92.2H538.172V166.6H540.172ZM538.243 92.5714L547.843 116.571L549.7 115.829L540.1 91.8286L538.243 92.5714ZM547.772 116.2V166.6H549.772V116.2H547.772ZM630.334 68.2L629.406 68.5714L631.334 68.2H630.334ZM620.734 44.2H619.734V44.3926L619.806 44.5714L620.734 44.2ZM620.734 92.2L621.663 91.8286L619.734 92.2H620.734ZM630.334 116.2H631.334V116.007L631.263 115.829L630.334 116.2ZM629.334 166.6C629.334 167.525 629.787 168.367 630.377 168.957C630.968 169.547 631.809 170 632.734 170V168C632.46 168 632.101 167.853 631.792 167.543C631.482 167.233 631.334 166.875 631.334 166.6H629.334ZM632.734 170H654.334V168H632.734V170ZM654.334 170C655.26 170 656.101 169.547 656.691 168.957C657.282 168.367 657.734 167.525 657.734 166.6H655.734C655.734 166.875 655.587 167.233 655.277 167.543C654.968 167.853 654.609 168 654.334 168V170ZM657.734 166.6V3.39999H655.734V166.6H657.734ZM657.734 3.39999C657.734 2.47475 657.282 1.63323 656.691 1.04288C656.101 0.452534 655.26 -1.14441e-05 654.334 -1.14441e-05V1.99999C654.609 1.99999 654.968 2.14744 655.277 2.4571C655.587 2.76675 655.734 3.12522 655.734 3.39999H657.734ZM654.334 -1.14441e-05H632.734V1.99999H654.334V-1.14441e-05ZM632.734 -1.14441e-05C631.809 -1.14441e-05 630.968 0.452534 630.377 1.04288C629.787 1.63323 629.334 2.47475 629.334 3.39999H631.334C631.334 3.12522 631.482 2.76675 631.792 2.4571C632.101 2.14744 632.46 1.99999 632.734 1.99999V-1.14441e-05ZM629.334 3.39999V68.2H631.334V3.39999H629.334ZM631.263 67.8286L621.663 43.8286L619.806 44.5714L629.406 68.5714L631.263 67.8286ZM621.734 44.2V3.39999H619.734V44.2H621.734ZM621.734 3.39999C621.734 2.47475 621.282 1.63323 620.691 1.04288C620.101 0.452534 619.26 -1.14441e-05 618.334 -1.14441e-05V1.99999C618.609 1.99999 618.968 2.14744 619.277 2.4571C619.587 2.76675 619.734 3.12522 619.734 3.39999H621.734ZM618.334 -1.14441e-05H596.734V1.99999H618.334V-1.14441e-05ZM596.734 -1.14441e-05C595.809 -1.14441e-05 594.968 0.452534 594.377 1.04288C593.787 1.63322 593.334 2.47475 593.334 3.39999H595.334C595.334 3.12522 595.482 2.76675 595.792 2.4571C596.101 2.14744 596.46 1.99999 596.734 1.99999V-1.14441e-05ZM593.334 3.39999V166.6H595.334V3.39999H593.334ZM593.334 166.6C593.334 167.525 593.787 168.367 594.377 168.957C594.968 169.547 595.809 170 596.734 170V168C596.46 168 596.101 167.853 595.792 167.543C595.482 167.233 595.334 166.875 595.334 166.6H593.334ZM596.734 170H618.334V168H596.734V170ZM618.334 170C619.26 170 620.101 169.547 620.691 168.957C621.282 168.367 621.734 167.525 621.734 166.6H619.734C619.734 166.875 619.587 167.233 619.277 167.543C618.968 167.853 618.609 168 618.334 168V170ZM621.734 166.6V92.2H619.734V166.6H621.734ZM619.806 92.5714L629.406 116.571L631.263 115.829L621.663 91.8286L619.806 92.5714ZM629.334 116.2V166.6H631.334V116.2H629.334ZM702.297 68.2H701.297V69.2H702.297V68.2ZM702.297 25V24H701.297V25H702.297ZM702.297 145H701.297V146H702.297V145ZM702.297 92.2V91.2H701.297V92.2H702.297ZM732.097 70.6C732.097 69.6748 731.644 68.8332 731.054 68.2429C730.464 67.6525 729.622 67.2 728.697 67.2V69.2C728.972 69.2 729.33 69.3475 729.64 69.6571C729.949 69.9668 730.097 70.3252 730.097 70.6H732.097ZM728.697 67.2H702.297V69.2H728.697V67.2ZM703.297 68.2V25H701.297V68.2H703.297ZM702.297 26H733.497V24H702.297V26ZM733.497 26C734.422 26 735.264 25.5474 735.854 24.9571C736.444 24.3668 736.897 23.5252 736.897 22.6H734.897C734.897 22.8748 734.749 23.2332 734.44 23.5429C734.13 23.8525 733.772 24 733.497 24V26ZM736.897 22.6V3.39999H734.897V22.6H736.897ZM736.897 3.39999C736.897 2.47475 736.444 1.63322 735.854 1.04288C735.264 0.452534 734.422 -1.14441e-05 733.497 -1.14441e-05V1.99999C733.772 1.99999 734.13 2.14744 734.44 2.4571C734.749 2.76675 734.897 3.12522 734.897 3.39999H736.897ZM733.497 -1.14441e-05H678.297V1.99999H733.497V-1.14441e-05ZM678.297 -1.14441e-05C677.372 -1.14441e-05 676.53 0.452534 675.94 1.04288C675.349 1.63322 674.897 2.47475 674.897 3.39999H676.897C676.897 3.12522 677.044 2.76675 677.354 2.4571C677.664 2.14744 678.022 1.99999 678.297 1.99999V-1.14441e-05ZM674.897 3.39999V166.6H676.897V3.39999H674.897ZM674.897 166.6C674.897 167.525 675.349 168.367 675.94 168.957C676.53 169.547 677.372 170 678.297 170V168C678.022 168 677.664 167.853 677.354 167.543C677.044 167.233 676.897 166.875 676.897 166.6H674.897ZM678.297 170H733.497V168H678.297V170ZM733.497 170C734.422 170 735.264 169.547 735.854 168.957C736.444 168.367 736.897 167.525 736.897 166.6H734.897C734.897 166.875 734.749 167.233 734.44 167.543C734.13 167.853 733.772 168 733.497 168V170ZM736.897 166.6V147.4H734.897V166.6H736.897ZM736.897 147.4C736.897 146.475 736.444 145.633 735.854 145.043C735.264 144.453 734.422 144 733.497 144V146C733.772 146 734.13 146.147 734.44 146.457C734.749 146.767 734.897 147.125 734.897 147.4H736.897ZM733.497 144H702.297V146H733.497V144ZM703.297 145V92.2H701.297V145H703.297ZM702.297 93.2H728.697V91.2H702.297V93.2ZM728.697 93.2C729.622 93.2 730.464 92.7475 731.054 92.1571C731.644 91.5668 732.097 90.7252 732.097 89.8H730.097C730.097 90.0748 729.949 90.4332 729.64 90.7429C729.33 91.0525 728.972 91.2 728.697 91.2V93.2ZM732.097 89.8V70.6H730.097V89.8H732.097ZM786.25 62H807.85V60H786.25V62ZM807.85 62C808.775 62 809.617 61.5474 810.207 60.9571C810.797 60.3668 811.25 59.5252 811.25 58.6H809.25C809.25 58.8748 809.103 59.2332 808.793 59.5429C808.483 59.8525 808.125 60 807.85 60V62ZM811.25 58.6V13H809.25V58.6H811.25ZM811.25 13C811.25 9.17275 809.97 5.90567 807.657 3.59288C805.344 1.28011 802.077 -1.14441e-05 798.25 -1.14441e-05V1.99999C801.623 1.99999 804.356 3.11988 806.243 5.0071C808.13 6.89432 809.25 9.62724 809.25 13H811.25ZM798.25 -1.14441e-05H759.85V1.99999H798.25V-1.14441e-05ZM759.85 -1.14441e-05C756.023 -1.14441e-05 752.756 1.28011 750.443 3.59289C748.13 5.90567 746.85 9.17275 746.85 13H748.85C748.85 9.62724 749.97 6.89432 751.857 5.0071C753.744 3.11988 756.477 1.99999 759.85 1.99999V-1.14441e-05ZM746.85 13V157H748.85V13H746.85ZM746.85 157C746.85 160.827 748.13 164.094 750.443 166.407C752.756 168.72 756.023 170 759.85 170V168C756.477 168 753.744 166.88 751.857 164.993C749.97 163.106 748.85 160.373 748.85 157H746.85ZM759.85 170H798.25V168H759.85V170ZM798.25 170C802.077 170 805.344 168.72 807.657 166.407C809.97 164.094 811.25 160.827 811.25 157H809.25C809.25 160.373 808.13 163.106 806.243 164.993C804.356 166.88 801.623 168 798.25 168V170ZM811.25 157V111.4H809.25V157H811.25ZM811.25 111.4C811.25 110.475 810.797 109.633 810.207 109.043C809.617 108.453 808.775 108 807.85 108V110C808.125 110 808.483 110.147 808.793 110.457C809.103 110.767 809.25 111.125 809.25 111.4H811.25ZM807.85 108H786.25V110H807.85V108ZM786.25 108C785.325 108 784.483 108.453 783.893 109.043C783.303 109.633 782.85 110.475 782.85 111.4H784.85C784.85 111.125 784.997 110.767 785.307 110.457C785.617 110.147 785.975 110 786.25 110V108ZM782.85 111.4V142.6H784.85V111.4H782.85ZM782.85 142.6C782.85 142.875 782.703 143.233 782.393 143.543C782.083 143.853 781.725 144 781.45 144V146C782.375 146 783.217 145.547 783.807 144.957C784.397 144.367 784.85 143.525 784.85 142.6H782.85ZM781.45 144H776.65V146H781.45V144ZM776.65 144C776.375 144 776.017 143.853 775.707 143.543C775.397 143.233 775.25 142.875 775.25 142.6H773.25C773.25 143.525 773.703 144.367 774.293 144.957C774.883 145.547 775.725 146 776.65 146V144ZM775.25 142.6V27.4H773.25V142.6H775.25ZM775.25 27.4C775.25 27.1252 775.397 26.7668 775.707 26.4571C776.017 26.1474 776.375 26 776.65 26V24C775.725 24 774.883 24.4525 774.293 25.0429C773.703 25.6332 773.25 26.4748 773.25 27.4H775.25ZM776.65 26H781.45V24H776.65V26ZM781.45 26C781.725 26 782.083 26.1474 782.393 26.4571C782.703 26.7668 782.85 27.1252 782.85 27.4H784.85C784.85 26.4748 784.397 25.6332 783.807 25.0429C783.217 24.4525 782.375 24 781.45 24V26ZM782.85 27.4V58.6H784.85V27.4H782.85ZM782.85 58.6C782.85 59.5252 783.303 60.3668 783.893 60.9571C784.483 61.5474 785.325 62 786.25 62V60C785.975 60 785.617 59.8525 785.307 59.5429C784.997 59.2332 784.85 58.8748 784.85 58.6H782.85ZM836.669 25H837.669V24H836.669V25ZM863.069 25V24H862.069V25H863.069ZM880.869 3.39999C880.869 2.47475 880.416 1.63322 879.826 1.04288C879.236 0.452534 878.394 -1.14441e-05 877.469 -1.14441e-05V1.99999C877.744 1.99999 878.102 2.14744 878.412 2.4571C878.721 2.76675 878.869 3.12522 878.869 3.39999H880.869ZM877.469 -1.14441e-05H822.269V1.99999H877.469V-1.14441e-05ZM822.269 -1.14441e-05C821.344 -1.14441e-05 820.502 0.452534 819.912 1.04288C819.321 1.63322 818.869 2.47475 818.869 3.39999H820.869C820.869 3.12522 821.016 2.76675 821.326 2.4571C821.635 2.14744 821.994 1.99999 822.269 1.99999V-1.14441e-05ZM818.869 3.39999V22.6H820.869V3.39999H818.869ZM818.869 22.6C818.869 23.5252 819.321 24.3668 819.912 24.9571C820.502 25.5474 821.344 26 822.269 26V24C821.994 24 821.635 23.8525 821.326 23.5429C821.016 23.2332 820.869 22.8748 820.869 22.6H818.869ZM822.269 26H836.669V24H822.269V26ZM835.669 25V166.6H837.669V25H835.669ZM835.669 166.6C835.669 167.525 836.121 168.367 836.712 168.957C837.302 169.547 838.143 170 839.069 170V168C838.794 168 838.435 167.853 838.126 167.543C837.816 167.233 837.669 166.875 837.669 166.6H835.669ZM839.069 170H860.669V168H839.069V170ZM860.669 170C861.594 170 862.435 169.547 863.026 168.957C863.616 168.367 864.069 167.525 864.069 166.6H862.069C862.069 166.875 861.921 167.233 861.612 167.543C861.302 167.853 860.944 168 860.669 168V170ZM864.069 166.6V25H862.069V166.6H864.069ZM863.069 26H877.469V24H863.069V26ZM877.469 26C878.394 26 879.236 25.5474 879.826 24.9571C880.416 24.3668 880.869 23.5252 880.869 22.6H878.869C878.869 22.8748 878.721 23.2332 878.412 23.5429C878.102 23.8525 877.744 24 877.469 24V26ZM880.869 22.6V3.39999H878.869V22.6H880.869Z" fill="#F9A033"/>
</svg>
