<svg width="104" height="33" viewBox="0 0 104 33" fill="none" xmlns="http://www.w3.org/2000/svg">
<path d="M7.56641 11.1042L7.56387 4.43671H0V24.4546L3.78193 28.2677L14.1807 28.269V20.6402H7.56641V18.733H14.1807V11.1042H7.56641Z" fill="white"/>
<path d="M34.9756 11.1042V20.6402H33.084V11.1042H25.5303V20.6402H23.6387V11.1042H16.0723V24.4546L19.8542 28.2677L42.542 28.269V11.1042H34.9756Z" fill="white"/>
<path d="M44.4336 11.1042H52V28.2677H44.4361L44.4336 11.1042Z" fill="white"/>
<path d="M44.4361 4.43671H52V9.20986H44.4336L44.4361 4.43671Z" fill="white"/>
<path d="M73.7471 11.1042L69.9639 14.9224V24.4546L73.7458 28.2677L85.0967 28.269V20.6402H77.5303V18.733H85.0967V11.1042H73.7471Z" fill="white"/>
<path d="M100.217 11.1042H94.5547V4.43539H86.9883V28.269H94.542V18.733H96.4336V28.269L104 28.2677V14.9224L100.217 11.1042Z" fill="white"/>
<path d="M61.458 11.1042L61.4542 4.43667L53.8916 4.43539V24.4546L57.6723 28.2677H68.0723V20.6415L61.458 20.6402V18.733H68.0723V11.1042H61.458Z" fill="white"/>
</svg>
