<svg width="421" height="36" viewBox="0 0 421 36" fill="none" xmlns="http://www.w3.org/2000/svg">
<g clip-path="url(#clip0)">
<path d="M169.07 16.8625C168.178 16.8625 167.475 17.6274 167.475 18.5795C167.475 19.5317 168.194 20.2966 169.07 20.2966C169.961 20.2966 170.665 19.5317 170.665 18.5795C170.665 17.6274 169.946 16.8625 169.07 16.8625ZM163.362 16.8625C162.47 16.8625 161.767 17.6274 161.767 18.5795C161.767 19.5317 162.486 20.2966 163.362 20.2966C164.253 20.2966 164.957 19.5317 164.957 18.5795C164.972 17.6274 164.253 16.8625 163.362 16.8625Z" fill="white"/>
<path d="M176.67 3.87564H155.715C153.948 3.87564 152.509 5.31169 152.509 7.07553V27.9919C152.509 29.7557 153.948 31.1918 155.715 31.1918H173.449L172.62 28.3353L174.622 30.1772L176.514 31.9098L179.892 34.8287V7.07553C179.876 5.31169 178.437 3.87564 176.67 3.87564ZM170.634 24.0896C170.634 24.0896 170.071 23.4184 169.602 22.8409C171.65 22.2633 172.432 20.999 172.432 20.999C171.791 21.4204 171.181 21.717 170.634 21.9199C169.852 22.2477 169.101 22.4506 168.366 22.5911C166.865 22.8721 165.489 22.794 164.316 22.5755C163.424 22.4038 162.658 22.1697 162.017 21.9043C161.657 21.7638 161.266 21.5921 160.875 21.3736C160.828 21.3424 160.782 21.3268 160.735 21.2955C160.703 21.2799 160.688 21.2643 160.672 21.2643C160.391 21.1082 160.234 20.999 160.234 20.999C160.234 20.999 160.985 22.2321 162.971 22.8252C162.502 23.4184 161.923 24.1052 161.923 24.1052C158.467 23.9959 157.153 21.7482 157.153 21.7482C157.153 16.7689 159.405 12.7261 159.405 12.7261C161.657 11.0559 163.784 11.1027 163.784 11.1027L163.941 11.29C161.126 12.0861 159.843 13.3192 159.843 13.3192C159.843 13.3192 160.187 13.1319 160.766 12.8822C162.439 12.1485 163.768 11.9612 164.316 11.8988C164.41 11.8832 164.488 11.8676 164.582 11.8676C165.536 11.7427 166.615 11.7115 167.741 11.8363C169.226 12.0081 170.821 12.4451 172.448 13.3192C172.448 13.3192 171.212 12.1485 168.554 11.3525L168.773 11.1027C168.773 11.1027 170.915 11.0559 173.152 12.7261C173.152 12.7261 175.403 16.7689 175.403 21.7482C175.403 21.7326 174.09 23.9803 170.634 24.0896ZM194.248 10.5564H189.056V16.3786L192.512 19.4849V13.8343H194.357C195.53 13.8343 196.109 14.3963 196.109 15.3016V19.6254C196.109 20.5307 195.561 21.1395 194.357 21.1395H189.04V24.433H194.232C197.016 24.4486 199.627 23.0594 199.627 19.8751V15.2236C199.643 11.9768 197.031 10.5564 194.248 10.5564ZM221.459 19.8751V15.0987C221.459 13.3817 224.555 12.9914 225.493 14.7084L228.355 13.5534C227.229 11.0871 225.181 10.3691 223.476 10.3691C220.692 10.3691 217.94 11.9768 217.94 15.0987V19.8751C217.94 23.0282 220.692 24.6047 223.414 24.6047C225.165 24.6047 227.261 23.7462 228.418 21.4985L225.353 20.0936C224.602 22.0136 221.459 21.5453 221.459 19.8751ZM211.997 15.7543C210.918 15.5201 210.199 15.1299 210.152 14.4587C210.215 12.8509 212.701 12.7885 214.156 14.3338L216.454 12.57C215.016 10.8217 213.389 10.3535 211.716 10.3535C209.167 10.3535 206.696 11.7895 206.696 14.5055C206.696 17.1435 208.729 18.5639 210.965 18.9073C212.107 19.0634 213.374 19.5161 213.342 20.2966C213.249 21.7794 210.183 21.7014 208.792 20.0156L206.571 22.0916C207.869 23.7618 209.636 24.6047 211.294 24.6047C213.843 24.6047 216.673 23.1374 216.783 20.4526C216.939 17.0654 214.468 16.2069 211.997 15.7543ZM201.52 24.4174H205.023V10.5564H201.52V24.4174ZM260.586 10.5564H255.394V16.3786L258.85 19.4849V13.8343H260.696C261.869 13.8343 262.447 14.3963 262.447 15.3016V19.6254C262.447 20.5307 261.9 21.1395 260.696 21.1395H255.379V24.433H260.586C263.37 24.4486 265.981 23.0594 265.981 19.8751V15.2236C265.981 11.9768 263.37 10.5564 260.586 10.5564ZM235.111 10.3691C232.234 10.3691 229.372 11.93 229.372 15.1299V19.8595C229.372 23.0282 232.249 24.6203 235.142 24.6203C238.02 24.6203 240.882 23.0282 240.882 19.8595V15.1299C240.882 11.9456 237.989 10.3691 235.111 10.3691ZM237.363 19.8595C237.363 20.8585 236.237 21.3736 235.127 21.3736C234.001 21.3736 232.875 20.8897 232.875 19.8595V15.1299C232.875 14.1153 233.97 13.569 235.064 13.569C236.206 13.569 237.363 14.0529 237.363 15.1299V19.8595ZM253.455 15.1299C253.377 11.8832 251.156 10.572 248.294 10.572H242.743V24.433H246.293V20.0312H246.918L250.14 24.433H254.518L250.734 19.6722C252.407 19.1415 253.455 17.6898 253.455 15.1299ZM248.357 17.003H246.293V13.8343H248.357C250.562 13.8343 250.562 17.003 248.357 17.003Z" fill="white"/>
</g>
<path d="M7.56641 11.1042L7.56387 4.43671H0V24.4546L3.78193 28.2677L14.1807 28.269V20.6402H7.56641V18.733H14.1807V11.1042H7.56641Z" fill="white"/>
<path d="M34.9756 11.1042V20.6402H33.084V11.1042H25.5303V20.6402H23.6387V11.1042H16.0723V24.4546L19.8542 28.2677L42.542 28.269V11.1042H34.9756Z" fill="white"/>
<path d="M44.4336 11.1042H52V28.2677H44.4361L44.4336 11.1042Z" fill="white"/>
<path d="M44.4361 4.43671H52V9.20986H44.4336L44.4361 4.43671Z" fill="white"/>
<path d="M73.7471 11.1042L69.9639 14.9224V24.4546L73.7458 28.2677L85.0967 28.269V20.6402H77.5303V18.733H85.0967V11.1042H73.7471Z" fill="white"/>
<path d="M100.217 11.1042H94.5547V4.43539H86.9883V28.269H94.542V18.733H96.4336V28.269L104 28.2677V14.9224L100.217 11.1042Z" fill="white"/>
<path d="M61.458 11.1042L61.4542 4.43667L53.8916 4.43539V24.4546L57.6723 28.2677H68.0723V20.6415L61.458 20.6402V18.733H68.0723V11.1042H61.458Z" fill="white"/>
<g clip-path="url(#clip1)">
<path fill-rule="evenodd" clip-rule="evenodd" d="M357.371 7.8622C355.027 5.5222 351.961 4.3522 348.865 4.3522C345.8 4.3522 342.704 5.5222 340.359 7.8622C335.671 12.5422 335.671 20.1322 340.359 24.8422C345.048 29.5222 352.652 29.5222 357.371 24.8422C362.06 20.1622 362.06 12.5422 357.371 7.8622ZM353.975 21.4522C351.15 24.2722 346.581 24.2722 343.786 21.4522C340.96 18.6322 340.96 14.0722 343.786 11.2822C346.611 8.4622 351.18 8.4622 353.975 11.2822C356.77 14.0722 356.77 18.6322 353.975 21.4522Z" fill="white"/>
<path fill-rule="evenodd" clip-rule="evenodd" d="M382.618 7.8622C380.274 5.5222 377.208 4.3522 374.112 4.3522C371.047 4.3522 367.951 5.5222 365.606 7.8622C360.918 12.5422 360.918 20.1322 365.606 24.8422C370.295 29.5222 377.899 29.5222 382.618 24.8422C387.307 20.1622 387.307 12.5422 382.618 7.8622ZM379.222 21.4522C376.397 24.2722 371.828 24.2722 369.033 21.4522C366.208 18.6322 366.208 14.0722 369.033 11.2822C371.858 8.4622 376.427 8.4622 379.222 11.2822C382.017 14.0722 382.017 18.6322 379.222 21.4522Z" fill="white"/>
<path fill-rule="evenodd" clip-rule="evenodd" d="M318.809 28.2922L320.011 28.3522H338.045L337.985 27.1522C337.835 25.1722 336.422 23.7322 334.438 23.6122L333.236 23.5522H322.416L336.843 9.1522L336.783 7.9522C336.692 5.9722 335.22 4.5022 333.236 4.4122L332.034 4.3522H314L314.06 5.5522C314.21 7.5022 315.653 8.9722 317.607 9.0922L318.809 9.1522H329.629L315.202 23.5522L315.262 24.7522C315.383 26.7322 316.825 28.1722 318.809 28.2922Z" fill="white"/>
<path fill-rule="evenodd" clip-rule="evenodd" d="M401.103 11.5522C401.523 12.2722 401.644 13.0522 401.704 13.9522L401.764 15.1522V23.5522L401.824 24.7522C401.944 26.7022 403.387 28.1722 405.371 28.2922L406.573 28.3522V15.1522L406.633 13.9522C406.693 13.0522 406.813 12.2422 407.234 11.5222C408.076 10.0822 409.609 9.1522 411.382 9.1522C413.155 9.1522 414.718 10.1122 415.56 11.5522C415.98 12.2722 416.101 13.0822 416.131 13.9522L416.191 15.1522V23.5522L416.251 24.7522C416.371 26.7322 417.814 28.1722 419.798 28.2922L421 28.3522V15.1522V13.9522C421 8.6422 416.702 4.3522 411.382 4.3522C408.496 4.3522 405.942 5.6122 404.168 7.5922C402.395 5.6122 399.84 4.3522 396.955 4.3522C394.971 4.3522 393.108 4.9522 391.575 6.0022C390.643 4.9522 388.539 4.3522 387.337 4.3522V28.3522L388.539 28.2922C390.553 28.1722 391.996 26.7322 392.086 24.7522L392.146 23.5522V15.1522L392.206 13.9522C392.266 13.0522 392.386 12.2422 392.807 11.5522C393.649 10.1122 395.182 9.1522 396.955 9.1522C398.728 9.1522 400.291 10.1122 401.103 11.5522Z" fill="white"/>
</g>
<defs>
<clipPath id="clip0">
<rect width="114" height="32" fill="white" transform="translate(152 3.3522)"/>
</clipPath>
<clipPath id="clip1">
<rect width="107" height="24" fill="white" transform="translate(314 4.3522)"/>
</clipPath>
</defs>
</svg>
