<svg width="107" height="25" viewBox="0 0 107 25" fill="none" xmlns="http://www.w3.org/2000/svg">
<g clip-path="url(#clip0)">
<path fill-rule="evenodd" clip-rule="evenodd" d="M43.3712 3.8622C41.0268 1.5222 37.961 0.352203 34.8652 0.352203C31.7995 0.352203 28.7037 1.5222 26.3593 3.8622C21.6706 8.5422 21.6706 16.1322 26.3593 20.8422C31.0481 25.5222 38.6523 25.5222 43.3712 20.8422C48.0599 16.1622 48.0599 8.5422 43.3712 3.8622ZM39.9748 17.4522C37.1495 20.2722 32.581 20.2722 29.7858 17.4522C26.9605 14.6322 26.9605 10.0722 29.7858 7.2822C32.611 4.4622 37.1796 4.4622 39.9748 7.2822C42.77 10.0722 42.77 14.6322 39.9748 17.4522Z" fill="white"/>
<path fill-rule="evenodd" clip-rule="evenodd" d="M68.6182 3.8622C66.2738 1.5222 63.2081 0.352203 60.1123 0.352203C57.0466 0.352203 53.9508 1.5222 51.6064 3.8622C46.9177 8.5422 46.9177 16.1322 51.6064 20.8422C56.2952 25.5222 63.8994 25.5222 68.6182 20.8422C73.307 16.1622 73.307 8.5422 68.6182 3.8622ZM65.2219 17.4522C62.3966 20.2722 57.8281 20.2722 55.0328 17.4522C52.2075 14.6322 52.2075 10.0722 55.0328 7.2822C57.8581 4.4622 62.4266 4.4622 65.2219 7.2822C68.0171 10.0722 68.0171 14.6322 65.2219 17.4522Z" fill="white"/>
<path fill-rule="evenodd" clip-rule="evenodd" d="M4.80899 24.2922L6.01124 24.3522H24.0449L23.9848 23.1522C23.8346 21.1722 22.4219 19.7322 20.4382 19.6122L19.236 19.5522H8.41573L22.8427 5.1522L22.7826 3.9522C22.6924 1.9722 21.2197 0.502202 19.236 0.412202L18.0337 0.352203H0L0.0601114 1.5522C0.210392 3.5022 1.65309 4.9722 3.60674 5.0922L4.80899 5.1522H15.6292L1.20225 19.5522L1.26236 20.7522C1.38258 22.7322 2.82528 24.1722 4.80899 24.2922Z" fill="white"/>
<path fill-rule="evenodd" clip-rule="evenodd" d="M87.1026 7.5522C87.5234 8.2722 87.6436 9.0522 87.7038 9.9522L87.7639 11.1522V19.5522L87.824 20.7522C87.9442 22.7022 89.3869 24.1722 91.3706 24.2922L92.5729 24.3522V11.1522L92.633 9.9522C92.6931 9.0522 92.8133 8.2422 93.2341 7.5222C94.0757 6.0822 95.6085 5.1522 97.3818 5.1522C99.1552 5.1522 100.718 6.1122 101.56 7.5522C101.98 8.2722 102.101 9.0822 102.131 9.9522L102.191 11.1522V19.5522L102.251 20.7522C102.371 22.7322 103.814 24.1722 105.798 24.2922L107 24.3522V11.1522V9.9522C107 4.6422 102.702 0.352203 97.3818 0.352203C94.4965 0.352203 91.9417 1.6122 90.1684 3.5922C88.3951 1.6122 85.8403 0.352203 82.9549 0.352203C80.9712 0.352203 79.1077 0.952203 77.5748 2.0022C76.6431 0.952203 74.5392 0.352203 73.3369 0.352203V24.3522L74.5392 24.2922C76.5529 24.1722 77.9956 22.7322 78.0858 20.7522L78.1459 19.5522V11.1522L78.206 9.9522C78.2661 9.0522 78.3864 8.2422 78.8071 7.5522C79.6487 6.1122 81.1816 5.1522 82.9549 5.1522C84.7282 5.1522 86.2911 6.1122 87.1026 7.5522Z" fill="white"/>
</g>
<defs>
<clipPath id="clip0">
<rect width="107" height="24" fill="white" transform="translate(0 0.352203)"/>
</clipPath>
</defs>
</svg>
