<svg xmlns="http://www.w3.org/2000/svg" width="16" height="16" viewBox="0 0 16 16">
    <path fill="#275A85" fill-rule="evenodd" d="M14 14.5H2a.5.5 0 0 1-.5-.5V6.5h2c-.26.375-.349 1.074-.349 1.518 0 2.678 2.184 4.856 4.867 4.856 2.684 0 4.868-2.178 4.868-4.856 0-.444-.063-1.133-.386-1.518h2V14a.5.5 0 0 1-.5.5M8.018 4.949c1.7 0 3.077 1.375 3.077 3.07a3.073 3.073 0 0 1-3.077 3.07 3.073 3.073 0 0 1-3.076-3.07 3.073 3.073 0 0 1 3.076-3.07M12 2h1.5a.5.5 0 0 1 .5.5V4a.5.5 0 0 1-.5.5H12a.5.5 0 0 1-.5-.5V2.5A.5.5 0 0 1 12 2m2.098-2H1.902A1.9 1.9 0 0 0 0 1.897v12.205A1.9 1.9 0 0 0 1.902 16h12.196A1.9 1.9 0 0 0 16 14.102V1.898A1.9 1.9 0 0 0 14.098 0"/>
</svg>
