<svg xmlns="http://www.w3.org/2000/svg" width="16" height="14" viewBox="0 0 16 14">
    <path fill="#00AAEC" fill-rule="evenodd" d="M15.881 1.61a6.235 6.235 0 0 1-1.87.54A3.413 3.413 0 0 0 15.443.25a6.318 6.318 0 0 1-2.07.832A3.176 3.176 0 0 0 10.995 0C9.197 0 7.738 1.537 7.738 3.432c0 .269.028.53.084.781C5.114 4.07 2.714 2.705 1.106.626a3.568 3.568 0 0 0-.441 1.728c0 1.19.575 2.24 1.45 2.856a3.136 3.136 0 0 1-1.477-.428v.042c0 1.663 1.123 3.05 2.614 3.365a3.084 3.084 0 0 1-1.472.06c.415 1.363 1.618 2.355 3.044 2.382A6.33 6.33 0 0 1 0 12.054a8.901 8.901 0 0 0 4.995 1.54c5.993 0 9.27-5.228 9.27-9.764 0-.149-.003-.298-.008-.444a6.798 6.798 0 0 0 1.624-1.777"/>
</svg>
