<svg id="Layer_1" data-name="Layer 1" xmlns="http://www.w3.org/2000/svg" viewBox="0 0 26.7 14.73"><title>112px Volk</title><path d="M11,8.48c-.07-.09.06-.11.06-.18a3.84,3.84,0,0,1,.11-.59l.06-.16c.07-.12.12-.25.18-.37a1,1,0,0,1,.24-.38.15.15,0,0,1,.11,0,.19.19,0,0,1,.1,0c.14,0,.29.09.42,0s.14-.06.22,0a.32.32,0,0,1,.09.31s-.1.06-.12.12.08-.08.12-.12.09.09.09.16-.07.15.06.15.07.2.1.29a.24.24,0,0,1,0,.12s0,.09,0,.12a.08.08,0,0,1,.05,0,.2.2,0,0,1,0,.11.48.48,0,0,1-.1.17c0,.07-.13,0-.15.15s.06.35.19.47a.15.15,0,0,1,0,.13.28.28,0,0,1-.14.1A.16.16,0,0,1,12.5,9c-.12-.17-.31-.13-.47-.19s-.09-.27-.2-.19-.06.25,0,.37a.06.06,0,0,1,0,.06.24.24,0,0,1,0,.08c-.29.09-.37.37-.46.62l-.06.07-.07,0-.07,0s0-.14-.08,0l0,.08c-.12.14-.07.34-.15.5s-.09.14-.19.11-.24-.07-.15-.26.13-.3.07-.39c-.18-.26-.06-.4.12-.55.11,0,0,.15.09.19a.82.82,0,0,1,0-.27A1.84,1.84,0,0,0,11,8.66a.55.55,0,0,1,.26-.19h0C11.16,8.45,11.07,8.56,11,8.48Z" fill="#f7901f"/><path d="M10.28,8.59l.06,0a.36.36,0,0,1,.3.35c0,.07-.11.11-.12.19a.37.37,0,0,0,0,.34c.07.21,0,.28-.2.25-.13-.19-.33-.3-.42-.51a.76.76,0,0,1,0-.3l0-.08c.05,0,.09,0,.13,0l0,.05s0,0,0-.05S10,8.71,10,8.59s.12,0,.18,0A.08.08,0,0,1,10.28,8.59Z" fill="#f8901f"/><path d="M10.63,9c-.06-.16-.2-.24-.29-.36.21-.11.26.11.38.2s.07-.26.23-.2a0,0,0,0,1,0,.07c-.06.11-.08.25-.19.33A.12.12,0,0,1,10.63,9Z" fill="#bc060c"/><path d="M9.72,8.67a.14.14,0,0,0,.06-.13L10,8.6a.18.18,0,0,1,0,.24h0c-.07.07,0,.15,0,.23a.36.36,0,0,1-.07.1.08.08,0,0,1-.07,0c-.06-.14,0-.3-.06-.43s0,0,0,0S9.72,8.67,9.72,8.67Z" fill="#bf1013"/><path d="M11,8.11c.1-.13,0-.37.24-.42A1.3,1.3,0,0,1,11,8.3L11,8.24A.1.1,0,0,1,11,8.11Z" fill="#bb080b"/><path d="M11,8.66a0,0,0,0,0,0-.05l0-.13c.11,0,.22-.18.33,0h0a.59.59,0,0,1-.28.19A0,0,0,0,1,11,8.66Z" fill="#fa9a22"/><path d="M11.53,6a2.86,2.86,0,0,1,.07.28.06.06,0,0,1-.08.06c-.08,0,0-.15,0-.22A.12.12,0,0,0,11.53,6Z" fill="#c61815"/><path d="M9.94,8.84V8.6H10c0,.11.12.2.11.33s0,0,0,0Z" fill="#ee781a"/><path d="M11,8.11v.13c-.16,0-.13-.09-.11-.19Z" fill="#c21a17"/><path d="M10.85,7.75l.06-.07c.1.11,0,.14-.06.19Z" fill="#bf0e0b"/><path d="M10.28,8.59h-.1s0-.12,0-.12S10.28,8.53,10.28,8.59Z" fill="#ba030a"/><path d="M9.44,8.67c.08,0,.15-.25.23,0a1.12,1.12,0,0,1-.1.4c-.11,0-.19,0-.13-.16V8.73s0,0,0,0Z" fill="#c2100d"/><path d="M9.44,8.91c0,.13.08.13.17.12s0,0,.06,0-.06.07-.09.08-.16.14-.22.06S9.37,9,9.44,8.91Z" fill="#c51714"/><path d="M9.67,9H9.61a.42.42,0,0,1,.06-.36h.05v.06A.52.52,0,0,0,9.67,9Z" fill="#c81c19"/><path d="M9.78,9.16h.05a.28.28,0,0,1,0,.37c-.06,0-.08,0-.11-.07Z" fill="#b5101a"/><path d="M9.72,9.46l.06.07a.15.15,0,0,1,.07.23s0,0-.07,0S9.74,9.57,9.72,9.46Z" fill="#c10b0f"/><path d="M9.78,9.77h.05a.11.11,0,0,1,.08.08c0,.12.07.28-.13.29a.25.25,0,0,1,0-.25Z" fill="#da4311"/><path d="M9.78,9.89c0,.09,0,.19.06.24s.07,0,0,.09a.17.17,0,0,1-.12,0c-.06,0-.08-.08,0-.15S9.71,9.94,9.78,9.89Z" fill="#bf1214"/><path d="M9.72,10.08a.12.12,0,0,0,.06.12s0,0,0,0v0c-.08,0-.17,0-.23-.06S9.66,10.12,9.72,10.08Z" fill="#c81e1b"/><path d="M12,11.93h-.17s-.07,0-.08-.05-.06-.13-.08-.2,0-.21-.15-.23a.18.18,0,0,1-.16-.18c0-.09.09-.13.14-.19s.1-.17.22-.14a.15.15,0,0,1,0,.11c.14.31.23.37.53.3s.2.15.12.31-.19.07-.18.21a.16.16,0,0,1-.12.08A.14.14,0,0,1,12,11.93Z" fill="#f78f20"/><path d="M11.82,11.86l0,.06c0,.09,0,.15-.07.07s-.14-.21-.27-.07h-.06c0-.13-.05-.26-.22-.19a0,0,0,0,1-.07,0,.46.46,0,0,0-.1-.25l-.34-.37a.16.16,0,0,1,.12-.08.45.45,0,0,1,.19.11l.22.2a1.29,1.29,0,0,0,.37.33C11.68,11.75,11.82,11.73,11.82,11.86Z" fill="#c01414"/><path d="M11.47,11.92h.06c.05,0,.05.08,0,.11s-.1,0-.11,0S11.45,12,11.47,11.92Z" fill="#c71b17"/><path d="M12,11.93h.1l0,0v0h0Z" fill="#af030a"/><path d="M12.26,12.1s-.09,0-.1-.06l.06,0s.06,0,0,.08Z" fill="#febb24"/><path d="M12.21,12h-.05l0-.06h0a0,0,0,0,1,.06,0S12.22,12,12.21,12Z" fill="#febb26"/><path d="M12.84,11.86l-.07.07a.13.13,0,0,1-.12,0,.14.14,0,0,1-.08-.1.78.78,0,0,1,0-.26.31.31,0,0,1,.09-.18.1.1,0,0,1,.14,0,.54.54,0,0,0,.15.15.16.16,0,0,1,0,.07C13,11.8,12.9,11.78,12.84,11.86Z" fill="#f89722"/><path d="M13.74,10.9c0,.18-.22.24-.3.39l-.16,0c-.06,0-.08,0-.08-.08s.3-.23.41-.41S13.75,10.76,13.74,10.9Z" fill="#fb9e22"/><path d="M13.17,11.49l-.06.11c0,.05-.07.05-.11,0h0a.26.26,0,0,1,0-.23.12.12,0,0,1,.09-.09A.16.16,0,0,1,13.17,11.49Z" fill="#f99521"/><path d="M13.17,11.49,13,11.31c0-.13.1-.12.18-.06l.06.06A.2.2,0,0,1,13.17,11.49Z" fill="#e96716"/><path d="M13,11.61h.11a.25.25,0,0,1-.27.26C12.86,11.75,13,11.74,13,11.61Z" fill="#c01217"/><path d="M13,12.19s0,.05,0,.05l-.09-.05s0,0,.05-.06S13,12.13,13,12.19Z" fill="#d03937"/><path d="M11.25,9.77a0,0,0,0,0,.05,0c.1-.1.21.1.3,0a.63.63,0,0,0,.1-.27.19.19,0,0,1,0-.07,1.55,1.55,0,0,1,.06-.23s.05-.06.07-.1A.91.91,0,0,1,12,8.86a.17.17,0,0,1,.26,0,1.35,1.35,0,0,0,.22.43.78.78,0,0,1,.09.24c0,.22.12.32.33.16a.29.29,0,0,1,.36,0c.08.06.07.15.05.24l0,.07-.16.26a1.27,1.27,0,0,0-.13.19,2.2,2.2,0,0,0-.17.25,1.53,1.53,0,0,1-.42.42.09.09,0,0,1-.07,0s0-.09-.09-.08a1.13,1.13,0,0,1-.25,0,.21.21,0,0,1-.11,0c-.13-.12-.09-.4-.33-.42-.07-.08-.1-.18-.18-.24s-.11-.14-.17-.2a.37.37,0,0,1-.07-.14.24.24,0,0,1,0-.12A.24.24,0,0,1,11.25,9.77Z" fill="#fefdfd"/><path d="M11.2,10c.05,0,.05.07.05.12a1.28,1.28,0,0,1,.11.2s0,0,0,.05a.08.08,0,0,1,0-.07.28.28,0,0,1,.17.25c.07.12.22.19.16.38l-.16.18a.58.58,0,0,1-.37-.17c-.14-.2-.4-.31-.37-.63.09-.15,0-.39.17-.49S11.13,10,11.2,10Z" fill="#f68c1f"/><path d="M10.34,9.71c.2.07.21-.14.15-.18-.25-.14-.05-.29,0-.43a.33.33,0,0,1,.32,0,.09.09,0,0,1,0,.07.13.13,0,0,1-.07.09c0,.16-.34.33,0,.5a1.53,1.53,0,0,1,0,.44c0,.1-.12,0-.18,0s-.19,0-.25-.13-.1-.12-.16-.18a.24.24,0,0,1,0-.09C10.18,9.71,10.24,9.64,10.34,9.71Z" fill="#f68c1f"/><path d="M10.17,9.83v.06c0,.09.15.09.17.19l.23.12c-.06.19.13.1.17.18a.17.17,0,0,1-.15.12c-.07,0-.14,0-.21,0h-.07a.3.3,0,0,1-.17-.14c-.05-.09-.13-.09-.21-.1s-.06,0,0-.09l0-.07c0-.09,0-.21.05-.3l0,0a.31.31,0,0,1,.19,0S10.16,9.81,10.17,9.83Z" fill="#f78d1d"/><path d="M12.55,9.59a.33.33,0,0,1-.07-.23.48.48,0,0,1-.09-.26c0-.08,0-.2.15-.19s.09.13.17.12c0,.15.19.22.25.36a.29.29,0,0,1-.14.37C12.65,9.85,12.65,9.63,12.55,9.59Z" fill="#f78e1c"/><path d="M10.57,10.45l.17-.07c.08.08.08,0,.11-.06,0,.28.32.37.4.62s-.08.1-.15.1A.2.2,0,0,1,11,11c-.1-.22-.25-.32-.47-.21s-.24-.06-.19-.24h0C10.41,10.42,10.51,10.52,10.57,10.45Z" fill="#f78f1f"/><path d="M12.83,9V8.85c0-.07,0-.16.08-.2a.2.2,0,0,1,.11,0l.05.05c.06.08.07,0,.11,0a.54.54,0,0,1,.22,0c.12.22.07.33-.21.46,0,.05,0,.1,0,.14a.35.35,0,0,1-.07.23c-.18,0-.14-.25-.26-.34S12.8,9,12.83,9Z" fill="#f8911f"/><path d="M12.26,6.89c-.21-.09,0,.19-.18.2,0-.21-.09-.26-.25-.15h0a.43.43,0,0,1,0-.05,1.67,1.67,0,0,1,.08-.32L12,6.45a.21.21,0,0,1,.32-.06.17.17,0,0,1,0,.1A.47.47,0,0,1,12.26,6.89Z" fill="#f78d1c"/><path d="M11.77,9.42a.05.05,0,0,1,0,0,.88.88,0,0,0-.12.26c-.11.14-.22,0-.33,0a2.07,2.07,0,0,1,.23-.5c.08-.11.15-.18.28-.11a0,0,0,0,1,.06,0l0,.06A.4.4,0,0,0,11.77,9.42Z" fill="#f78c1a"/><path d="M11.81,9c0-.14-.19-.19-.11-.37s0-.23.12-.22a.17.17,0,0,1,.18.21s0,0,0,.07,0,.1,0,.15S11.93,9.06,11.81,9Z" fill="#f78c1b"/><path d="M12.94,8.67c-.09,0,0,.2-.11.18s-.17,0-.15-.19a.67.67,0,0,0-.08-.3c.21-.1.29.05.36.22A.15.15,0,0,1,12.94,8.67Z" fill="#f68c1f"/><path d="M12,8.85,12,8.73a.68.68,0,0,1,.5.18l-.11.19c-.14,0-.1-.15-.18-.19s-.14-.08-.21,0S12,8.87,12,8.85Z" fill="#f68b17"/><path d="M11,8.66H11a.61.61,0,0,1-.11.49.08.08,0,0,1-.12,0h0a.17.17,0,0,1,0-.19C10.84,8.86,10.8,8.7,11,8.66Z" fill="#f68c1f"/><path d="M12.94,8.61c-.1-.11-.15-.28-.34-.25,0,0-.13-.12,0-.09s.09-.08.15-.09l.11.09s.12,0,.15.11a.32.32,0,0,1,0,.17A.09.09,0,0,1,12.94,8.61Z" fill="#fb9922"/><path d="M11.2,10Q11,10,11,9.83c0-.12.06-.19.14-.26s0,.14,0,.2a.09.09,0,0,1,0,.13Z" fill="#f78710"/><path d="M12.26,6.89V6.45s.07,0,.11,0l.07.3A.19.19,0,0,1,12.26,6.89Z" fill="#fea01e"/><path d="M12.83,9l.05.13c.06.09.14.18.06.3-.12-.09-.26-.16-.23-.37A.14.14,0,0,1,12.83,9Z" fill="#f89121"/><path d="M12.94,7.87c.18.12.19.24,0,.36s-.07-.11-.06-.18V7.93C12.87,7.87,12.89,7.86,12.94,7.87Z" fill="#c20e10"/><path d="M12.94,7.87l-.06.06h0a.11.11,0,0,1-.07-.11v-.3C12.83,7.63,13,7.68,12.94,7.87Z" fill="#be080d"/><path d="M12,7.93a.62.62,0,0,1-.11.42V7.93s0-.07.08-.08S12,7.88,12,7.93Z" fill="#f27f1b"/><path d="M11.92,6.58a.36.36,0,0,1-.11.31l-.06-.06s0-.09-.05-.13,0-.15.11-.18S11.9,6.52,11.92,6.58Z" fill="#f78e1e"/><path d="M10.79,9.16h.12c0,.12-.11.25.06.38-.22,0-.14-.2-.23-.26Z" fill="#f58718"/><path d="M11.3,9.71c.09-.07.22.13.29-.06.1,0,.08.08.06.14s0,.24-.15.08-.13-.07-.2-.11Z" fill="#f66f00"/><path d="M12,7.93l-.06-.06A.37.37,0,0,1,12,7.62s.08-.14.1,0A.39.39,0,0,1,12,7.93Z" fill="#ed7217"/><path d="M11.26,7.57c-.11-.2.05-.28.16-.38A.81.81,0,0,1,11.26,7.57Z" fill="#bf050d"/><path d="M11.82,7.48c-.08,0-.18,0-.25-.06s0-.08,0-.08S11.75,7.42,11.82,7.48Z" fill="#f68a1a"/><path d="M12.55,7.07c-.07.07,0,.21-.16.27,0-.16,0-.25.16-.27Z" fill="#f5881d"/><path d="M12.58,7.82c-.07,0-.09,0-.09-.06s0-.09,0-.09.1,0,.1.08S12.59,7.8,12.58,7.82Z" fill="#f17f19"/><path d="M12,8.85l.06.06a.32.32,0,0,1-.17.19h-.06V9A.44.44,0,0,0,12,8.85Z" fill="#f66f00"/><path d="M12.88,8.05c0,.07,0,.14.06.18h0c0,.1,0,.1-.11.06a.12.12,0,0,1-.06-.12Z" fill="#e35b1a"/><path d="M12,7.62a.44.44,0,0,1-.06.25l-.05.06C11.87,7.81,11.85,7.69,12,7.62Z" fill="#fd9920"/><path d="M11.7,6.7s.07,0,.09,0,0,.08,0,.13h-.1C11.65,6.77,11.65,6.73,11.7,6.7Z" fill="#fead22"/><path d="M11.21,9s0,.1-.06.1,0,0,0-.07a.08.08,0,0,1,.07-.1S11.21,9,11.21,9Z" fill="#f78b19"/><path d="M12.61,7.25l.05.12s0,.11-.05.07S12.51,7.32,12.61,7.25Z" fill="#f99a22"/><path d="M12.77,7.81l.07.11s-.06.07-.09,0S12.72,7.85,12.77,7.81Z" fill="#fba023"/><path d="M11.3,8.48c.06,0,.11,0,.11.1s0,0,0,0-.07-.08-.08-.14Z" fill="#f58519"/><path d="M11.19,9.9V9.77h.06C11.24,9.82,11.25,9.88,11.19,9.9Z" fill="#f7a243"/><path d="M12.26,6.4a.25.25,0,0,0-.28.12c-.06,0-.12,0-.16-.06l.06-.18a.21.21,0,0,1,.1-.16.22.22,0,0,1,.14,0l.06,0,.05.09a.41.41,0,0,1,0,.09A.08.08,0,0,1,12.26,6.4Z" fill="#f8911b"/><path d="M12.15,6.14H12a.16.16,0,0,1-.06-.24H12c.08.08.2,0,.28.06v.11a.12.12,0,0,1-.05,0A.2.2,0,0,1,12.15,6.14Z" fill="#d23410"/><path d="M11.92,5.91a.39.39,0,0,0,.06.24l-.1.13A.43.43,0,0,1,11.92,5.91Z" fill="#b5000b"/><path d="M12.32,6c-.1,0-.21,0-.28-.06a.36.36,0,0,0,.22-.07l.06.07Z" fill="#bd040c"/><path d="M11.82,6.46c.06,0,.12,0,.16.06l-.06.06-.11-.06Z" fill="#f27d18"/><path d="M10.17,9.83h-.05s-.07,0-.09-.08a.38.38,0,0,1,0-.21s0,.1-.05.12a.11.11,0,0,1-.13-.07.28.28,0,0,1,0-.13c0-.08,0-.18.08-.24.1.19.35.25.39.49A.18.18,0,0,0,10.17,9.83Z" fill="#f99421"/><path d="M10.79,9v.19c-.1-.05-.23,0-.33-.06s.08-.13.17-.13Z" fill="#f58a1d"/><path d="M10,9.22c0,.08,0,.18,0,.24a.59.59,0,0,1,0-.37c0-.09-.06-.2.07-.24Z" fill="#fdaf24"/><path d="M10.33,9.07a.28.28,0,0,1-.09.07s0,0,0-.06a.16.16,0,0,1,0-.07Z" fill="#ef7b1c"/><path d="M10.06,8.91h0C10.09,9,10.08,9,10.06,8.91Z" fill="#ba070e"/><path d="M12.88,6.21l-.06.09s0,.14-.07.13,0-.1,0-.16,0-.16,0-.26C12.8,6.07,13,6,12.88,6.21Z" fill="#c71917"/><path d="M12.6,6.27c-.13.12.05.24,0,.36-.17-.12,0-.35-.16-.48a.09.09,0,0,1,0-.12C12.58,6,12.54,6.2,12.6,6.27Z" fill="#c8211d"/><path d="M12.27,6.09h.11a.73.73,0,0,1,0,.36h-.13V6.34l0-.06a.17.17,0,0,1,0-.07s0,0,0-.07Z" fill="#e05214"/><path d="M12.39,6.45V6.09l0-.06v.12C12.42,6.25,12.46,6.36,12.39,6.45Z" fill="#b3000a"/><path d="M9.88,9.09l0,.37v.13c0,.08.07.16,0,.24h0l-.06-.06a.33.33,0,0,0-.05-.24c.09-.11.05-.25.05-.37Z" fill="#ec7119"/><path d="M13.11,9c.27-.07.3-.11.28-.37-.18.06-.16-.09-.17-.2a.34.34,0,0,1,0-.1c.06-.06,0-.19.16-.21s.34,0,.29-.28c.05-.08.09-.17.19-.16s.19,0,.25.07a1,1,0,0,1,.06.52,1,1,0,0,0,0,.48.17.17,0,0,1,0,.12v.18a.33.33,0,0,1,0,.24c-.09.15-.17.34-.38.18s-.24-.3-.1-.56c0,0,0,0,0,0s0,0,0,0a1.66,1.66,0,0,1-.4.63.15.15,0,0,1-.21-.1.39.39,0,0,1,.06-.24A.16.16,0,0,1,13.11,9Z" fill="#f78e1d"/><path d="M14.19,8.91l0-.06c-.1-.15,0-.32,0-.48a1.32,1.32,0,0,0,0-.56.16.16,0,0,1,.05-.09s0,0,0,0a4.1,4.1,0,0,1,.06,1.16Z" fill="#c11714"/><path d="M14.3,9.22l-.07.25s-.05,0-.07,0a.11.11,0,0,1,0-.11V9.09Z" fill="#de5718"/><path d="M14.18,7.75h0a.18.18,0,0,1-.05-.07c0-.18,0-.28.21-.24s.09.1.06.18S14.18,7.6,14.18,7.75Z" fill="#c51310"/><path d="M13.28,8.37v.05s0,.07-.07.08h-.07c-.07,0-.08-.11-.15-.13s-.13,0-.16-.07.09,0,.11-.06a.39.39,0,0,1,.28.06C13.28,8.29,13.31,8.3,13.28,8.37Z" fill="#bd0b0e"/><path d="M13.3,7.66s-.05.08-.08.07a.19.19,0,0,1-.15-.19s0-.07.07-.11Z" fill="#c2100d"/><path d="M13.84,7.75c-.05,0-.07.14-.16.13s0-.2.17-.19,0,0,0,0Z" fill="#b9030d"/><path d="M12.94,7v.06a.17.17,0,0,1,0,.21C12.88,7.17,12.79,7.08,12.94,7Z" fill="#c61815"/><path d="M13.84,7.75s0,0,0-.06L14,7.62l.11.07s0,0,0,.06l-.05.06C14,7.72,13.93,7.75,13.84,7.75Z" fill="#e46216"/><path d="M13.28,8.37l-.06-.07c0-.05,0-.21.17-.14C13.31,8.21,13.36,8.33,13.28,8.37Z" fill="#b60008"/><path d="M13.9,7.51s-.07,0-.09,0l0-.06s0,0,.05,0Z" fill="#bf0e0b"/><path d="M10.34,10.51c0,.16.1.19.22.18a.36.36,0,0,1,.16.11c0,.08.14.15.13.27l-.11,0c-.12-.25-.41-.28-.57-.49h0a.28.28,0,0,1-.17-.18v-.06a.12.12,0,0,1,.07-.05.23.23,0,0,1,.11,0Z" fill="#be0e0f"/><path d="M10,10.45a.33.33,0,0,1,.17.18c-.07,0,0,.2-.17.18a.09.09,0,0,1,0-.12A.21.21,0,0,1,10,10.45Z" fill="#c51715"/><path d="M10.07,10.38H10c-.13.08-.21,0-.22-.13V10.2h.1l.06.07C10,10.3,10.08,10.27,10.07,10.38Z" fill="#b00b0c"/><path d="M9.61,11a.31.31,0,0,1-.16-.19c.1-.07.18,0,.27,0S9.6,10.9,9.61,11Z" fill="#c82320"/><path d="M10,10.69v.12s-.07.07-.09,0S9.93,10.7,10,10.69Z" fill="#c11412"/><path d="M12.21,12V12a.06.06,0,0,1,.06,0,.07.07,0,0,1,.06,0,.14.14,0,0,1,0,.06.06.06,0,0,1,0,.06h-.07Z" fill="#de4e19"/><path d="M12.32,12.09V12a.08.08,0,0,1,.1,0,.07.07,0,0,1,0,.06.09.09,0,0,1,0,.07v0Z" fill="#c23b41"/><path d="M11.19,11.73h-.06c-.16,0,0-.17-.05-.24C11.2,11.53,11.23,11.61,11.19,11.73Z" fill="#cc1c19"/><path d="M11.13,11.92s.08,0,.07.05a.06.06,0,0,1,0,0c-.06,0-.07,0-.07-.1Z" fill="#be1310"/><path d="M11.58,11.73c-.11-.12-.3-.15-.33-.36s-.05-.22.07-.26.14,0,.1.13a.27.27,0,0,0,.35.15l0,.28C11.71,11.72,11.66,11.77,11.58,11.73Z" fill="#f68c1e"/><path d="M11.93,11h.12a.62.62,0,0,1,.27.26l0,0a.12.12,0,0,1,0,.08.36.36,0,0,1-.57-.31A.22.22,0,0,1,11.93,11Z" fill="#f68c1f"/><path d="M11.42,11.24s0-.11-.08-.09-.09.13-.09.22-.18-.09-.25-.18,0-.16.08-.19.13,0,.17-.06a.6.6,0,0,1,.34.18Z" fill="#f99521"/><path d="M12.32,11.37V11.3a.32.32,0,0,1,.3-.15c.1.07.16.15.09.28l-.05.18c-.08.05-.15.26-.23,0S12.43,11.41,12.32,11.37Z" fill="#f78e1f"/><path d="M12.43,11.61c.08.17.15-.1.23,0a.44.44,0,0,1-.06.25.23.23,0,0,1-.19.11l-.08,0a.16.16,0,0,1-.07-.09c0-.08-.15-.23.08-.15C12.36,11.72,12.4,11.65,12.43,11.61Z" fill="#f89320"/><path d="M11.93,11c0,.08-.11.08-.18.08v-.12c0-.14-.16-.23-.16-.38C11.73,10.61,11.73,10.61,11.93,11Z" fill="#f58619"/><path d="M11.58,11.73l.17-.06c.15.11.15.13.07.19C11.77,11.74,11.63,11.85,11.58,11.73Z" fill="#fb9820"/><path d="M12.26,11.86l.06.06a.09.09,0,0,1-.07,0,.15.15,0,0,1-.11,0h0A.12.12,0,0,1,12.26,11.86Z" fill="#fea825"/><path d="M11.08,11c-.05.05,0,.15-.08.19l-.15-.12c0-.08-.17-.13-.17-.26.15-.09.23.08.34.13Z" fill="#f89a22"/><path d="M12.14,11.92h.12s0,0,0,0l0,0h-.11S12.14,11.94,12.14,11.92Z" fill="#f3871b"/><path d="M14.18,9.34v.12a3.64,3.64,0,0,1,0,.57c-.08.21,0,.46-.15.66s-.17.22-.33.21-.08-.1-.1,0c-.06.24-.25.3-.42.39a.16.16,0,0,0-.18.06l0,.06s0,.08-.09.07-.07-.17-.09-.27-.06-.15-.07-.23a.28.28,0,0,1,.06-.18c.08-.09.14-.19.21-.28s.1-.15.14-.23.08-.16.13-.24a.13.13,0,0,1,0-.06c.05-.07.1-.14,0-.23a.4.4,0,0,1,0-.19c.06-.26.29-.42.33-.68.09-.07.13,0,.17.06s-.27.19-.1.41S14,9.54,14.18,9.34Z" fill="#f79020"/><path d="M14.23,10.14a.15.15,0,0,1-.05-.12V9.46h.05l.06.61Z" fill="#fba521"/><path d="M14.41,10.33c.1.08,0,.16,0,.24C14.3,10.48,14.43,10.41,14.41,10.33Z" fill="#ce4440"/><path d="M12.88,11.12c0,.1,0,.22.06.31s0,.1-.11.06a.12.12,0,0,0-.12-.06.34.34,0,0,0-.11-.25s0-.06,0-.09A.2.2,0,0,1,12.88,11.12Z" fill="#f99521"/><path d="M12.38,11.92l.22-.06.07.07c0,.11-.07.17-.18.17a0,0,0,0,1-.06,0l0-.07s0,0-.06-.07A.05.05,0,0,1,12.38,11.92Z" fill="#f68c1f"/><path d="M12.83,11.49a.11.11,0,0,0,.11-.06l.05-.06v.24C12.91,11.61,12.83,11.61,12.83,11.49Z" fill="#f78e1f"/><path d="M12.43,12.11h.06l-.06.05Z" fill="#fecc25"/><path d="M16.05,7.14v.09c-.06,0-.14,0-.17.08a.19.19,0,0,0-.12.19c-.16-.08-.23.17-.38.12a2.93,2.93,0,0,0-.18-1.24c.24-.07,0-.2,0-.3h0c0-.21-.07-.42-.07-.62S14.91,5,15,4.73s0-.27-.19-.3.1-.18,0-.29c-.1.07-.1.19-.13.28l-.06.13a.49.49,0,0,0-.14.18c-.06,0,0,.1-.07.14s-.19.31-.29.47-.08.14,0,.19h0a0,0,0,0,0,0,0c-.06,0-.19,0-.17.08s-.13.26-.22.37,0,.14.07.16c-.14.11-.11-.12-.18-.16s0-.1.05-.14,0-.18-.09-.24,0-.33-.15-.44.09-.25-.09-.3A3.77,3.77,0,0,0,13.1,3.7h0A.42.42,0,0,0,13,3.45h0v0l0-.05h0l0-.24h0c0-.06,0-.14-.05-.18A5,5,0,0,0,12.7,2c0-.07,0-.15,0-.2s0,0,0-.05h0c0-.14-.11-.23-.11-.36h0c0-.09,0-.17,0-.23s0-.17-.1-.22.11-.2-.06-.22h-.06s0,0,0-.05c.2-.15-.1-.29,0-.44S12.2.13,12.17.12s-.07.1-.1.15A.43.43,0,0,0,12,.43h0s0,.08-.06.13h0a1,1,0,0,0-.16.37,2,2,0,0,0-.3.76h0c0,.1-.11.17-.08.29V2s0,0,0,.06h0c-.22,0-.1.25-.21.31v.18c-.24.11-.1.38-.19.56h0c-.16-.18-.33-.33-.47-.52s-.24,0-.33-.09a.38.38,0,0,0,0,.1c-.05.5-.1,1-.16,1.5v.24h0c0,.77-.09,1.53-.11,2.3,0,.22-.09.12-.17.09,0-.2-.15-.29-.23-.43a.13.13,0,0,0-.1-.12h0a.82.82,0,0,0-.48-.36c.15-.17,0-.24-.1-.32l0,0,0,0c-.13.11-.1.26-.08.4h0c-.17.07-.17.22-.17.37-.06.36-.16.72-.2,1.09a2.69,2.69,0,0,0-.1.94h0a.06.06,0,0,0,0,0h0a.31.31,0,0,0-.11.25h0L8,9v.3A.13.13,0,0,0,8,9.4a.54.54,0,0,0,0,.48v0l0,.18h.11s0,.06,0,.08.06,0,.09,0h0c.13,0,.19.2.34.15l.17.22c.26.18.46.47.77.57,0,.09.12,0,.18.06a0,0,0,0,1,0,0h0v0a1.38,1.38,0,0,0,.62.55h0a.63.63,0,0,0,.4.3l.11.13c0,.16,0,.16.21.2h0c0,.1.11.13.18.17h0a.57.57,0,0,0,.39.26.07.07,0,0,1,0,.05l.17.12s.06.1.13.06h.07a.12.12,0,0,0,0,.15l.61.48v0a2.07,2.07,0,0,0,.8-.78h0l.89-.88a.05.05,0,0,0,.07,0c.13,0,.18-.18.28-.26a4,4,0,0,1,.47-.54c.17-.24.13-.55.26-.81s.1-.34.16-.52,0-.21-.12-.18c0,0,.08,0,.09-.1s0-.07,0-.1a.22.22,0,0,0,.09.11v0a.39.39,0,0,0,.09-.4c.06,0,.07-.05.08-.11a.26.26,0,0,0-.12-.19,2.06,2.06,0,0,1,.23-.55h0C16,8.2,16,8,16,7.87s0,0,0,0a.87.87,0,0,0,.06-.32h0A.6.6,0,0,0,16.05,7.14ZM8.31,9Zm0,0Zm0-.24Zm4.58-3h0Zm0,.49s0,0-.07.08S12.78,6.08,12.86,6.2ZM12.49,2l0,0,0,0Zm-.32,3.17ZM12,.42h0Zm0,1.52Zm-.51,4.23a.1.1,0,0,0,.05-.1s0,.08,0,.12,0,0,0,0Zm-.62,1.56v0Zm-1.32,3.2a0,0,0,0,1,0-.06S9.58,10.91,9.57,10.93Zm.83.5Zm.06-.19h0v0ZM13,12.9l-.05,0,.06-.07Zm1.18-5.14c0,.15,0,.3,0,.45a1.9,1.9,0,0,0,0,.67l-.06,0a.2.2,0,0,0,0,.17.5.5,0,0,0,.11.17h0a.44.44,0,0,0-.1.22.81.81,0,0,0,.1.57.1.1,0,0,0,0,0s0-.06,0-.07a1.42,1.42,0,0,0-.08.5.24.24,0,0,1-.06.11,3.62,3.62,0,0,1-.32.22c-.08.14-.25.23-.27.41h0a.2.2,0,0,0-.15,0,1.3,1.3,0,0,0-.15.18.64.64,0,0,0-.08.14c0,.13-.13.18-.23.23a.18.18,0,0,0-.08.09h-.07a.8.8,0,0,0-.19.13l0,.06-.08,0h-.09L12.2,12l0-.05L12,11.87a.17.17,0,0,0-.14,0c-.13.08-.24-.21-.37,0v.07s0-.06,0-.08-.09-.3-.27-.16v0h0s0,0,0,0a1.09,1.09,0,0,1,0-.25c-.06-.18-.23-.26-.32-.41s-.39-.26-.51-.48c0-.05-.07,0-.1,0h0c-.08,0-.09.08-.13.12s0,0,0-.05a1.93,1.93,0,0,0,0-.24l0-.07a.52.52,0,0,1-.25-.14s-.08,0-.13,0a.26.26,0,0,0,.13-.14l.06-.2V9.76a.7.7,0,0,1,0-.29,1.36,1.36,0,0,0,0-.29c0-.15.09-.36-.12-.46s-.1.15-.12.25-.08.13-.14.09,0-.11,0-.17a.22.22,0,0,0,0-.16l0,0v0c.08,0,.16,0,.24,0h.08s0,0,0-.08l.12,0H10c.06,0,.12,0,.18,0s.07,0,.1,0l.07,0a.31.31,0,0,1,.22.11c.11.15.21.13.3,0s.07-.06.1-.09a.17.17,0,0,0,0-.12c-.09-.1.11-.12,0-.21A.16.16,0,0,0,11,8.21a.15.15,0,0,1-.07-.09.08.08,0,0,0,.08,0c.15-.1.09-.32.22-.43s.06-.07.06-.12.09-.26.16-.38l.23-.37a.54.54,0,0,0,.09-.12l.1-.16,0-.07a.41.41,0,0,0,0-.19c0-.1,0-.2.07-.28l.1,0a.26.26,0,0,0,.19-.09.08.08,0,0,0,0,0,.05.05,0,0,0,0,0,.21.21,0,0,0,0,.11l.06,0h.1c.05,0,.07.11.11.16s0,0,0,0a.33.33,0,0,0-.08-.18c-.1.05-.07.17-.1.27s0,0,0,.08a.35.35,0,0,0,.11.27l.11.31h0a.22.22,0,0,1,.06.18.11.11,0,0,0,.05.12c.1.08,0,.23.11.31s0-.1.06,0a.58.58,0,0,1,.08.22.28.28,0,0,1,0,.33s0,0,.05.06a.43.43,0,0,0,.25.05c.07,0,.13-.12.22-.12s.36,0,.3-.31c0-.11,0-.16.13-.17a.17.17,0,0,0,.15,0c0,.06.05,0,.1,0-.07-.17.09-.15.15-.21a.39.39,0,0,1,.06.11C14.23,7.59,14.14,7.6,14.14,7.76ZM12.56,6.6a.47.47,0,0,1,0-.17C12.56,6.5,12.6,6.56,12.56,6.6Zm1.87,4.5s-.06,0-.09,0,.07,0,.1,0Zm1.11-2-.06.08a.88.88,0,0,1,0-.15.18.18,0,0,0,.05.07Z" fill="#c3120f"/><polygon points="10.46 11.24 10.46 11.24 10.46 11.24 10.46 11.24 10.46 11.24" fill="#c3120f"/><path d="M14.46,11.12l-.19,0c.06-.05.12-.2.19,0Z" fill="#c4120f"/><path d="M13.34,9.53a.19.19,0,0,1,0,.18.1.1,0,0,1-.06,0c-.13-.1-.23,0-.34.05-.31.21-.32.19-.39-.22,0,0,.1-.14.14,0s-.06.18.06.18a.2.2,0,0,0,.17-.21.5.5,0,0,1,0-.12l-.06-.3c.19,0,.11.27.23.36A.37.37,0,0,0,13.34,9.53Z" fill="#f78c1c"/><path d="M12.6,11.12v.06c-.09,0-.17.12-.28.12h0a.11.11,0,0,1,.07-.17l.44-.44a0,0,0,0,1,0,.07l-.06.19C12.75,11,12.67,11.07,12.6,11.12Z" fill="#f6800e"/><path d="M12.38,11.12c0,.06-.09.09-.07.17-.13,0-.15-.22-.26-.3.07,0,.14-.06.21,0a.26.26,0,0,1,.11.12Z" fill="#fefdfb"/><path d="M12.25,8.91c.1,0,.11.14.18.19l.05.26A.59.59,0,0,1,12.25,8.91Z" fill="#f7780d"/><path d="M12.83,10.75v-.07a.45.45,0,0,1,.17-.25s0,.05.06.08A.64.64,0,0,1,12.83,10.75Z" fill="#f47c16"/><path d="M11.65,9.79s0-.11-.06-.14.05-.18.16-.19A.48.48,0,0,1,11.65,9.79Z" fill="#f58012"/><path d="M11.42,10.31s0,.14-.09.06a.33.33,0,0,1-.08-.24C11.36,10.13,11.37,10.23,11.42,10.31Z" fill="#f5810f"/><path d="M13.05,10.51,13,10.43a.17.17,0,0,1,.11-.17s.05,0,.07,0S13.09,10.42,13.05,10.51Z" fill="#f46c00"/><path d="M12.13,10.47c-.08-.13,0-.2.07-.27Z" fill="#feebd9"/><path d="M13.17,10.26H13.1c.06-.09.07-.21.18-.25C13.28,10.12,13.27,10.21,13.17,10.26Z" fill="#f67706"/><path d="M13.28,9.76l.06,0c.07.1.1.19-.05.24S13.34,9.83,13.28,9.76Z" fill="#f78206"/><path d="M12.37,11.12a.22.22,0,0,1-.11-.12l.16-.1Z" fill="#fdf0e2"/><path d="M12,10S12,10,12,10s0,0,0-.06a.31.31,0,0,1,.05.1Z" fill="#fac893"/><path d="M13,10l.05,0a.41.41,0,0,1-.05.09A.43.43,0,0,1,13,10S13,10,13,10Z" fill="#fef6ed"/><path d="M11.77,9.42a.19.19,0,0,1,.05-.26C11.79,9.24,11.84,9.34,11.77,9.42Z" fill="#f37300"/><path d="M10.34,10.08c0-.08-.24,0-.17-.19.07,0,.15-.09.21,0S10.36,10,10.34,10.08Z" fill="#fb9722"/><path d="M9.9,9.83V9.59l.1.06s0,.09.06.12l.06.06C10,9.83,10,9.89,9.9,9.83Z" fill="#f68a1d"/><path d="M10.07,10.38l-.13-.11c.13-.09.21-.06.24.1Z" fill="#e86717"/><path d="M10.57,10.45c-.06.08-.15.05-.22.05C10.38,10.29,10.5,10.48,10.57,10.45Z" fill="#f68c1f"/><path d="M11,10.94c-.16.1-.2-.16-.34-.13l-.12-.12C10.79,10.55,10.94,10.63,11,10.94Z" fill="#f68c1f"/><path d="M13.22,8.48l.06-.06c0,.09,0,.23.11.25-.06.09-.15.05-.23.06s-.07,0-.11,0H13C13,8.54,13.14,8.55,13.22,8.48Z" fill="#f8911f"/><path d="M13.22,8.48c0,.13-.19.12-.22.25l-.06-.06V8.61L13,8.54s.09-.09.16-.06Z" fill="#ea7018"/><path d="M13.11,9l.06.18C13.05,9.19,13,9.14,13.11,9Z" fill="#f4821a"/><path d="M13.05,8.73h.11s0,.16-.07.15S13.06,8.78,13.05,8.73Z" fill="#d8430e"/><path d="M13.16,8.48c-.05,0-.09.08-.16.06V8.37C13.1,8.32,13.1,8.45,13.16,8.48Z" fill="#af0006"/><path d="M12.27,6.09v.07l0,0,0,0s0,0-.06,0V6.14A.13.13,0,0,1,12.27,6.09Z" fill="#f3831b"/><path d="M12.26,6.27v.07l0-.07,0,0Z" fill="#e15411"/><path d="M12.15,6.21h.06s0,0,0,0,0,0,0,0h0Z" fill="#db430f"/><path d="M10.06,9.77A.17.17,0,0,1,10,9.65s0-.1.06-.14Z" fill="#f17919"/><path d="M12.2,6.27V6.21h0s0,0,.06,0v0Z" fill="#f3861c"/><path d="M12.26,6.22H12.2l.06,0Z" fill="#da4510"/><path d="M14.12,8.37l0,.48A.42.42,0,0,1,14.12,8.37Z" fill="#febc24"/><path d="M13.84,8.91l-.17-.06s0-.09.06-.08A.13.13,0,0,1,13.84,8.91Z" fill="#f78914"/><path d="M12.38,12l0,.06h-.09V12S12.36,12,12.38,12Z" fill="#ca2413"/><path d="M12.38,12h-.12v-.06h.12Z" fill="#d9430f"/><path d="M12.6,11.12a.37.37,0,0,1,.17-.18c0,.06.12.09.11.18Z" fill="#f6891d"/><path d="M13.09,11c-.05,0-.08-.09-.07-.14a0,0,0,0,1,.06,0S13.11,10.94,13.09,11Z" fill="#f6871c"/><path d="M21.66,7.18q0,3.12,0,6.24c0,.53-.09,1-.74,1s-.69-.55-.69-1c0-1.4,0-2.8.08-4.2,0-.53.26-1.24-.71-1.1-.69.11-1.79-.41-1.69,1.1s0,2.79,0,4.19c0,.31.22.91-.51.8-.51-.08-1-.1-1-.89.1-1.55.06-3.12.2-4.67.2-2.12.15-4.23.17-6.35,0-.4,0-.8.05-1.2s.07-.88.63-.84.39.53.4.86c.06,1.51.15,3,.13,4.55,0,.68.15,1,.84.85S20.4,7,20.34,5.6c-.07-1.56.05-3.12.09-4.68,0-.4,0-.8.63-.76s.61.35.6.79c0,2.08,0,4.16,0,6.23Z" fill="#f68d1b"/><path d="M6.05,7.15c0-1.95,0-3.91,0-5.86,0-.79.32-1.1,1-1.16S8.41,0,9.08,0c.38,0,.78.1.8.54s-.36.56-.72.66c-.62.18-1.52-.17-1.83.52a4.59,4.59,0,0,0,0,1.89c.08,3.07.17,6.14.24,9.21,0,.52.18,1.13-.77,1.11s-.68-.66-.68-1.15c0-1.88,0-3.75,0-5.63Z" fill="#f68d1b"/><path d="M26.49,9.77a8.53,8.53,0,0,0-.94-1.51,3.79,3.79,0,0,1-.91-3.42,17.05,17.05,0,0,0,0-3.57c0-.49-.19-.75-.7-.75s-.48.42-.49.76c0,1.36-.1,2.71-.16,4.06-.12,2.86-.07,5.73-.1,8.6,0,.57.27.72.79.77,1.31.15,2-.7,2.76-1.53V11C26.41,10.64,26.73,10.16,26.49,9.77Zm-2.15,3.81V8.76C26.25,10.64,26.18,12.89,24.34,13.58Z" fill="#f68e1c"/><path d="M4.77,13.1A42.39,42.39,0,0,0,3.11,1.68c-.11-.4-.25-1-.69-1s-.65.61-.85,1A8.38,8.38,0,0,0,1,3.32C.25,6.16.27,9.09,0,12V13.9c0,.36-.07.77.51.7.41,0,.63-.2.62-.69,0-.67.14-1.35.1-2-.05-.84.32-.91,1-.92,1.05,0,1.47.35,1.33,1.39a8,8,0,0,0,0,1.2c0,.22,0,.53.3.54a1.19,1.19,0,0,0,.65-.23C4.82,13.7,4.77,13.37,4.77,13.1ZM2.27,9.54c-.38,0-.83.11-.81-.54a18.65,18.65,0,0,1,.7-5.3A17,17,0,0,1,3.34,9C3.41,9.79,2.69,9.5,2.27,9.54Z" fill="#f68d1b"/></svg>