<svg id="Layer_1" data-name="Layer 1" xmlns="http://www.w3.org/2000/svg" viewBox="0 0 26.36 26.57"><title>112px Volk</title><path d="M24,26.57l0-.26c.46.12,1-.19,1.41.26Z" fill="#d1b37a"/><path d="M9.77,23.88l.11-2.11c.24-1.24.2-1.3-1-1.33a1.37,1.37,0,0,1-.8-.1h0c-.14-.62.48-.29.66-.51a.9.9,0,0,0-.88.5c-1.48.37-2.94-.23-4.42-.07-.6.06-.71.31-.71.83,0,1.19,0,2.39-.09,3.58,0,.34.13,1.05-.48.79S.49,25.7.52,24.6C.6,21.74.19,18.88.47,16c.44-.06.44-.06,0-.72,0-.52-.26-1.13.58-1.23a1.79,1.79,0,0,1,1.27,0c.08,0,.1.08.07.15.29,1-.16,2.16.24,3.2.19.08.22.24.23.42.9.44,1.86.09,2.78.19a10.59,10.59,0,0,1,2.25.12h0c.35.47.88-.07,1.27.22.36-.16.82-.18.91-.7.34-.48,0-1,.09-1.5s0-.73.44-.87.94-.62,1.45-.34.26.86.26,1.3a19,19,0,0,1-.08,3.2l-.06,1.83c-.25.89.07,1.83-.18,2.73a.09.09,0,0,1,0,.14.73.73,0,0,1-1.11.54c0,.54.37,1.07-.38,1.25C9.11,25.65,9.86,24.62,9.77,23.88Z" fill="#b07c1b"/><path d="M16.33,9.52c0-2.43,0-4.85-.13-7.28,0-1,.46-1,1.24-1.08s1,.31,1,1c0,1,.17,2,.17,3a1.12,1.12,0,0,0,.93,1.18c2.72.89,3.76,2.86,3,5.6-.31-.59-.57-.22-.86,0a2.86,2.86,0,0,1-1.7.81c-.32,0-.68.06-1-.2-.39-.59-.24-1,.43-1.19s1.1-.42,1.05-1.12A2.09,2.09,0,0,0,19.2,8.63c-.37-.21-.46.15-.56.41s-.16.65-.27,1a1,1,0,0,1-.39.53.35.35,0,0,1-.43-.3C17.42,9.49,16.92,9.44,16.33,9.52Z" fill="#b07c1b"/><path d="M8.56,5.68C9,4.22,9.32,2.75,9.75,1.3,10.12.07,11.28.81,12,.5c.49-.2.55.42.68.78.75,2.15,1.28,4.36,1.85,6.56a1.65,1.65,0,0,1-1.63-.94c-.08-.12,0-.27-.08-.38A1,1,0,0,0,13,7a2,2,0,0,1-.54,1.58C11.8,7.47,11.81,6.15,11.32,5c-.11-.28-.12-.71-.5-.73s-.43.47-.54.79L9.85,6.25A4.27,4.27,0,0,0,8.56,5.68Z" fill="#b07c1b"/><path d="M.23,3.52c0-1.93,0-2,1.88-2.43,1.5-.39,3-.67,4.54-1,.52-.13.77,0,.73.53V.7C7.55,3,7.55,3,5.29,3.42A19,19,0,0,1,3,3.74a1.07,1.07,0,0,0-.85.53.3.3,0,0,1-.31.05s-.07-.06-.08-.09C1.38,2.89,1.38,2.89.23,3.52Z" fill="#b07d1c"/><path d="M25.91,12c.05,1.74,0,1.84-1.22,1.76-.52,0-.68-.23-.68-.73,0-3.87,0-7.76-.37-11.62-.05-.47.07-.7.55-.66s1.21-.08,1.68.41a26.78,26.78,0,0,1-.06,5.73c-.88-1.32-.5-2.78-.61-4.07a40.68,40.68,0,0,0,.05,8.47c.27-1.27-.57-2.72.58-3.93A21.18,21.18,0,0,1,25.91,12Z" fill="#b07d1d"/><path d="M12.92,6.89l1.64,1c.32,1.47,1,2.82,1.26,4.33-.26.31.33.64,0,1h0a4.2,4.2,0,0,1-2.14,0,31.38,31.38,0,0,1-1.22-4.54,4.6,4.6,0,0,1,.48-1.7Z" fill="#b47d12"/><path d="M25.91,12V7.61c-.61.73-.38,1.53-.32,2.3a4.16,4.16,0,0,1-.15,2c-.08.18-.11.42-.36.37a.39.39,0,0,1-.32-.44c0-3.19,0-6.39,0-9.58,0-.35.17-.42.43-.39.46.05.44.39.38.72a10.12,10.12,0,0,0,.27,4V1.16l.25.21c0,3.36,0,6.72,0,10.08Z" fill="#b28020"/><path d="M.23,3.52c.36-.24.15-1.12,1-.8s.72.9.64,1.53a2.71,2.71,0,0,1,.22.8c0,1.15,0,2.3,0,3.45,0,.55-.07,1.07-.76,1.13S.53,9.22.42,8.75A6.35,6.35,0,0,1,.18,5.6,6.05,6.05,0,0,1,.23,3.52Z" fill="#b37d15"/><path d="M16.33,9.52c.87-.72,1.17-.61,1.4.46a2.58,2.58,0,0,0,.23.51,1.32,1.32,0,0,1,.41.69,2.27,2.27,0,0,0,.78,1.46.67.67,0,0,1,.73,0c.47.27,1.24-.08,1.45.72h0a11.5,11.5,0,0,1-3.61,0c-1.13-.18-1.3-.3-1.43-1.23A7.33,7.33,0,0,1,16.33,9.52Z" fill="#b47c12"/><path d="M8.56,5.68c.66-.33,1.16-.3,1.29.57A21.54,21.54,0,0,1,8.38,11c-1.2.18-1.47-.06-1.21-1.16a3.52,3.52,0,0,1,.23-1A13.24,13.24,0,0,1,8.56,5.68Z" fill="#b47d12"/><path d="M.18,5.6A9.09,9.09,0,0,0,.73,8.82c.06.3.16.6.61.58s.54-.38.54-.73c0-1.24,0-2.47,0-3.7.57,0,.34.43.35.68,0,1.55,0,3.09,0,4.64a1.1,1.1,0,0,1-.95,1.22c.28.13.93-.48.91.35,0,.63-.57.37-.92.42a.93.93,0,0,1-.46-.09C-.36,12,.28,11.1.18,10.49c.38-.26-.2-.51,0-.77A11.88,11.88,0,0,1,.18,5.6Z" fill="#b07d1c"/><path d="M12.23,19.47c0-1.1,0-2.21,0-3.32,0-.37.28-1-.4-1a1.83,1.83,0,0,0-1.51,1.36c0,.42.47.93-.21,1.22,0-.95,0-1.91,0-2.87,0-.4.09-1,.57-.77s1.76-.4,1.76.7A18.28,18.28,0,0,1,12.23,19.47Z" fill="#b07d1b"/><path d="M7.4,8.79a2,2,0,0,1,0,.69c-.43,1,0,1.41,1,1.49a1.64,1.64,0,0,1-.33,1.12,1.21,1.21,0,0,1-1.48.43c-.54-.16-.14-.7-.05-1C6.76,10.58,7.1,9.69,7.4,8.79Z" fill="#b28022"/><path d="M.83,12.19c.42-.12,1,.2,1.42-.63-.87.24-1.59.4-1.72-.63,1.06.55,1.63.26,1.58-.92-.08-1.68.3-3.38-.23-5V4.25l.3,0a53.28,53.28,0,0,1,.1,7.58C2.29,12.82,1.37,12.25.83,12.19Z" fill="#b17f20"/><path d="M21.33,13.37c-.32-.57-1.3.18-1.45-.72a5.39,5.39,0,0,0,1.76-1c.55-.54.64,0,.88.29A1.84,1.84,0,0,1,21.33,13.37Z" fill="#b38124"/><path d="M10.76,25.82c0-.59-.78-1.61.77-1.28.11,0,.28-.24.43-.37,0,.65.44,1.34-.23,1.9C11.45,25.82,11,26.13,10.76,25.82Z" fill="#b07d1b"/><path d="M7.89,18.17c-1.32,0-2.64,0-4,0-.37,0-.82.16-1.07-.3C4.52,18.2,6.23,17.73,7.89,18.17Z" fill="#b07e1e"/><path d="M10.76,25.82c.33.08.71-.06,1,.25a2,2,0,0,1-.24,0c-2.16,0-2.21-.06-1.72-2.23A9.76,9.76,0,0,1,9.82,25C9.79,25.64,10.1,25.91,10.76,25.82Z" fill="#c79d5b"/><path d="M8.1,20.34a9.74,9.74,0,0,1,1.43,0c.76.11.9.72.35,1.42l-.07-.48c-.09-.05-.12-.11-.1-.16s.06-.08.09-.08c.11-.39-.07-.48-.43-.48A2.44,2.44,0,0,1,8.1,20.34Z" fill="#b07d1b"/><path d="M17.72,13.35l3.61,0A6.52,6.52,0,0,1,17.72,13.35Z" fill="#b38124"/><path d="M2.63,17.44c-.55-1-.15-2.13-.24-3.2C2.85,15.28,2.44,16.38,2.63,17.44Z" fill="#b07f20"/><path d="M7.88,20.34c0-.89.79-.57,1.3-.84,0,.85-.91.37-1.08.85l-.11,0Z" fill="#b07d1b"/><path d="M12,24c0-.91-.24-1.85.18-2.73A9.64,9.64,0,0,1,12,24Z" fill="#b07d1b"/><path d="M.47,15.29c.53.21.85.54.64,1.19C.83,16.41.84,15.93.47,16Z" fill="#b07f20"/><path d="M9.16,18.38c-.23.05-.51,0-.67.16-.64.53-.58,0-.6-.38Z" fill="#b07e1e"/><path d="M13.66,13.13H15.8A2.44,2.44,0,0,1,13.66,13.13Z" fill="#b7872e"/><path d="M.18,9.72c0,.27.6.07.47.5-.07.23-.27.25-.47.27A.7.7,0,0,1,.18,9.72Z" fill="#b48428"/><path d="M2.32,14.09l-1.27,0A1.1,1.1,0,0,1,2.32,14.09Z" fill="#b07f20"/><path d="M15.8,13.13c.08-.32-.45-.65,0-1C16,12.49,16.12,12.81,15.8,13.13Z" fill="#b7872e"/><path d="M26.17,25.51q-1-2.61-1.9-5.24a23.05,23.05,0,0,0-1.95-4.33c0-1.12-.55-1.62-1.63-1.58-.33.19-.73,0-1.05.19a1.64,1.64,0,0,0-1.51.94c-1.15,1.68-1.83,3.62-2.95,5.32a32.88,32.88,0,0,0-2.33,4.63c-.34.76.09.76.57.85.44.29.93.13,1.4.11a.9.9,0,0,0,.45-.53A2,2,0,0,1,17.5,24.5a24.85,24.85,0,0,0,3,0c1.51-.12,2.86,0,3.31,1.77,0,.15,0-.05.09.09.47.26,1-.09,1.51.22h.72C26.54,26.23,26.31,25.88,26.17,25.51Zm-4.91-3.77-2.57.05c-.64.36-1.26.57-1.74-.25.66-1.22,1.33-2.44,2-3.67a1,1,0,0,1,1.85-.1c.82,1.1,1,2.52,1.72,3.64C22.19,21.91,21.63,21.47,21.26,21.74Z" fill="#af7c1a"/><path d="M20.28,22.17c.57-.05,1.15-.12,1.72-.16.39,0,.76,0,.76.53s.53.88,0,1-1.27.36-1.52-.39C21.05,22.65,20.66,22.5,20.28,22.17Z" fill="#b38224"/><path d="M16.76,23c-.06-.24-.38-.48,0-.72.66-.58,1.23-.57,1.68.24-.32.56-.32,1.6-1.44,1A.64.64,0,0,1,16.76,23Z" fill="#b17f1f"/><path d="M18.44,22.49a1.3,1.3,0,0,0-1.68-.24c0-.25-.05-.52.19-.71.52.48,1.18.05,1.74.25l.85.5C19.18,22.62,18.79,22.43,18.44,22.49Z" fill="#b38224"/><path d="M16.76,23a.47.47,0,0,1,.24.48l-1,.41C15.94,23.26,16.42,23.17,16.76,23Z" fill="#b28123"/><path d="M17.55,18.18c-.16-.23-.23-.31-.22-.33a1,1,0,0,1,.3-.31c.12-.06.22,0,.15.18Z" fill="#b38225"/><path d="M21.26,21.74l1.24-.33C22.22,22,21.69,21.7,21.26,21.74Z" fill="#b38224"/><path d="M22.32,15.93c-.05.17,0,.42-.27.44s-.26-.16-.21-.31.32-.07.48-.12Z" fill="#b38123"/><path d="M6,18.51a.76.76,0,0,1,1,.55c0,.62-.76.56-1.21.69a.56.56,0,0,1-.74-.55A.66.66,0,0,1,6,18.51Z" fill="#b18021"/><path d="M11.62,20.41a7.23,7.23,0,0,1,.1.74c0,.29,0,.66-.42.54s0-.33,0-.52c.18-.67-1.07-1.11-.29-1.9.1-.1-.44-.37,0-.51.11,0,.34.17.46.32C11.87,19.5,11.7,20,11.62,20.41Z" fill="#b07d1b"/><path d="M11.14,24a.38.38,0,0,1-.34-.4c0-.16,0-.34.25-.32a.38.38,0,0,1,.36.39A.31.31,0,0,1,11.14,24Z" fill="#b17f20"/><path d="M1.49,14.85c-.05.06-.16.27-.24.26s-.3-.22-.3-.43.12-.3.31-.26S1.53,14.57,1.49,14.85Z" fill="#b07f20"/><ellipse cx="4.05" cy="18.53" rx="1" ry="0.08" fill="#b17f20"/><path d="M1,18.68c-.05-.49-.32-.77-.08-.9s.36.07.28.34C1.16,18.23,1.12,18.33,1,18.68Z" fill="#b38224"/><path d="M11.24,17c.2-.26.44-.23.54,0s-.18.18-.32.2A.64.64,0,0,1,11.24,17Z" fill="#b07d1b"/><path d="M11.24,17l.22.24C11.37,17.14,11,17.32,11.24,17Z" fill="#c1994e"/><path d="M18.39,9.05V11.8a1.13,1.13,0,0,1,1.3-.14c-.85,0-.65.49-.54,1-.85-.13-1-.73-1-1.45a1.74,1.74,0,0,1,0-1.17C18.25,9.7,18.08,9.32,18.39,9.05Z" fill="#bd9446"/><path d="M17.2,1.82c-.11.1-.18.2-.26.21s-.26,0-.28-.11.06-.27.22-.27S17.06,1.74,17.2,1.82Z" fill="#b28122"/><path d="M18.18,10c0,.39,0,.78,0,1.17-.25-.18-.2-.45-.21-.7A.51.51,0,0,1,18.18,10Z" fill="#b77217"/><path d="M13.08,5l-.47-1.95c.76.63.41,1.35.76,1.86Z" fill="#b17f20"/><path d="M12.92,6.89c-.36-.26-.23-.69-.3-1a.77.77,0,0,1,.3,1Z" fill="#b28021"/><path d="M3.65,1.24,6.27.59c.27-.07.56-.23.63.22s-.2.38-.52.35C5.52,1.07,4.68,1.61,3.65,1.24Z" fill="#b28020"/></svg>