<svg id="Layer_1" data-name="Layer 1" xmlns="http://www.w3.org/2000/svg" viewBox="0 0 26.22 24.67"><title>112px Volk</title><path d="M4,9.31l.1-.38a.11.11,0,0,1,.1-.09c.39,0,0-.2.12-.25a.14.14,0,0,1,.09-.11c.1-.07,0-.2.14-.27s.17-.18.33-.16l.07,0s-.06,0-.07,0,0-.3.15-.43.23-.08,0-.18-.06,0-.07,0l.11-.25s0-.08.08-.11.2-.34.38-.47.12,0,.12-.09a.32.32,0,0,1,.12-.22L6,6.29a.41.41,0,0,0,.2.29c0,.15.17.28.09.45l-.08,0A.28.28,0,0,1,6.1,7c0,.06.05.09.07.14s.13.16.08.26,0,.08.09.09l.21.07a.27.27,0,0,1,.15.33c-.06.08-.23.13-.16.26s.14,0,.2,0l.07,0c.06,0,0,.08.05.12a.17.17,0,0,1,0-.12.16.16,0,0,1,.1,0c.16.15.06.37.2.52a.2.2,0,0,1,0,.13.22.22,0,0,0,.05.24.21.21,0,0,0,.11.07l.1-.07A.23.23,0,0,0,7.51,9c0-.07-.15-.11-.13-.21a.13.13,0,0,1,.08-.1h0a1.19,1.19,0,0,1,.47-.32.38.38,0,0,0,.37-.2A.39.39,0,0,1,8.63,8c.24.07.16.27.24.41a2.83,2.83,0,0,1,0,.77s0,0,0,.06-.1,0-.15,0,.12.08.16.13a.25.25,0,0,1,0,.22.31.31,0,0,0,.06.36.28.28,0,0,1,0,.22c0,.09,0,.18-.08.27a5.26,5.26,0,0,0-.12.78c-.11.2-.42.23-.54.42a7,7,0,0,1-1,.64A.15.15,0,0,1,7,12.18c0-.07,0-.16-.15-.15a.25.25,0,0,1-.1-.41c.06,0,.05-.08,0-.13v-.08a8.56,8.56,0,0,1,.82-.89s.08,0,0,0,0-.22,0-.33.08-.22-.15-.15a.93.93,0,0,1-.41.05S7.06,10,7,10a.22.22,0,0,1,.05.08.26.26,0,0,1-.34.16,2.51,2.51,0,0,1-.47-.8c-.16-.29-.4-.32-.65-.08s-.26.53-.47.77c-.17.07-.34,0-.51,0a2.36,2.36,0,0,1-.37,0l.23.3a.19.19,0,0,1,0,.29c-.12.09-.21.07-.23-.08-.31.13-.43-.16-.67-.2a1.61,1.61,0,0,1-.09-.29A.19.19,0,0,1,3.58,10l.11-.08c.07-.07.09-.17.16-.24C4.08,9.6,4,9.42,4,9.31Z" fill="#18b5f1"/><path d="M5,8.09c-.14,0-.19.08-.25.17s-.13,0-.15,0a.83.83,0,0,1,.17-.32.72.72,0,0,0,.15-.27.38.38,0,0,1,.14-.25h.1c.09.09.07.17,0,.26A.36.36,0,0,0,5,8s0,0,0,.05Z" fill="#19b9f2"/><path d="M3.41,9c.1.09.3.1.31.26s.19.19,0,.3a.37.37,0,0,1-.37-.08.24.24,0,0,1-.07-.12c0-.1-.15-.17-.1-.29A.21.21,0,0,1,3.41,9Z" fill="#19b2f0"/><path d="M3.8,9.51c0-.09-.18-.15-.08-.26A.4.4,0,0,0,4,9.31c.12.18.3.37-.16.39C3.7,9.68,3.75,9.59,3.8,9.51Z" fill="#19b0ef"/><path d="M5.07,7.12c-.26-.29,0-.57,0-.86,0,0,.07-.08.15-.06s0,.09,0,.12c0,.19-.16.35-.09.55S5.14,7.05,5.07,7.12Z" fill="#1c27b8"/><path d="M7.92,8.36a.71.71,0,0,1-.47.32c0-.25.37-.34.46-.57,0-.07.11,0,.16,0s0,.08,0,.12A1.34,1.34,0,0,1,7.92,8.36Z" fill="#191fb7"/><path d="M2.77,9.18c0-.2,0-.41.4-.25,0,.13-.14.21-.18.33A.15.15,0,0,1,2.77,9.18Z" fill="#0caef9"/><path d="M4,8.73l.18-.06a.13.13,0,0,1,0,.2l-.08.06c-.1,0-.23.13-.29,0S4,8.78,4,8.73Z" fill="#1d27b9"/><path d="M3,9.25c-.08-.15,0-.25.16-.32s.19,0,.24.06-.09.06-.16.06-.06.18-.19.21Z" fill="#23b8e8"/><path d="M6.18,6.55c-.07,0-.15.08-.21,0s0-.19,0-.27H6.1c.07,0,0,.18.16.13v.13A0,0,0,0,1,6.18,6.55Z" fill="#1899e6"/><path d="M6.18,6.55h.07l0,.12.07.26a.09.09,0,0,1,0,.12.12.12,0,0,1-.1,0C6.26,6.89,6.14,6.72,6.18,6.55Z" fill="#19bff2"/><path d="M2.77,9.18,3,9.25H3c0,.12-.07.19-.16.27s-.08-.14-.15-.21A.12.12,0,0,1,2.77,9.18Z" fill="#1bc2f4"/><path d="M8.63,7.9c.25.1.13.29.16.45-.15-.1,0-.27-.16-.37Z" fill="#1e3fc3"/><path d="M4.28,8.62V8.41s0-.13.13-.05,0,.09,0,.12l0,.11A.12.12,0,0,1,4.28,8.62Z" fill="#1b1bb5"/><path d="M2.7,9.31l.15.19a.18.18,0,0,1,0,.08.12.12,0,0,1-.06.08H2.73a.17.17,0,0,1-.1-.2.41.41,0,0,1,.05-.09Z" fill="#20aae6"/><path d="M2.68,9.37v.07s-.06.1-.15.07V9.12C2.66,9.17,2.57,9.31,2.68,9.37Z" fill="#201ab3"/><path d="M5.55,5.13h.07c.15,0,.13,0,.08.13s-.31.11-.23-.13C5.49,5.1,5.52,5.1,5.55,5.13Z" fill="#252dbb"/><path d="M5.55,5.13H5.47V5.06s0-.08,0-.13a.23.23,0,0,1,.27,0C5.59,5,5.52,5,5.55,5.13Z" fill="#1d28b9"/><path d="M6.26,6.42c-.17.06-.16,0-.16-.13S6.34,6.27,6.26,6.42Z" fill="#17b7f4"/><path d="M5.47,4.93v.13c-.07,0-.17.1-.2,0S5.4,5,5.47,4.93Z" fill="#242dbc"/><path d="M5.07,7.12l.08-.25A.16.16,0,0,1,5.24,7l-.08.11Z" fill="#1919b2"/><path d="M5.7,5.26c0-.06,0-.11-.08-.13s0-.11.08-.08S5.81,5.19,5.7,5.26Z" fill="#1d28b9"/><path d="M5.86,6.23l-.08.24a.06.06,0,0,1-.09,0C5.71,6.37,5.72,6.26,5.86,6.23Z" fill="#1899e6"/><path d="M5.69,6.47h.09s0,.13,0,.15-.1,0-.13-.08Z" fill="#18bff5"/><path d="M4.91,7.62c0,.12,0,.22-.15.27A.46.46,0,0,1,4.91,7.62Z" fill="#18b5f1"/><path d="M3.8,12.4c0-.05,0-.1,0-.14s.08,0,.12,0,.1.14,0,.21Z" fill="#1b26b8"/><path d="M9,8.8v.13c0,.17.08.35-.08.51a.13.13,0,0,1,0-.19C8.9,9.1,8.8,8.93,9,8.8Z" fill="#210fad"/><path d="M9.19,11.05,9,11.11c0-.11-.17-.28.16-.25v.19Z" fill="#3d47c3"/><path d="M7.12,12.26c-.07,0-.13.09-.23.07s-.16,0-.24,0a1.7,1.7,0,0,0-.32.1c-.18,0-.29.24-.51.11,0-.05,0-.07-.05,0a.22.22,0,0,1,0,.08.07.07,0,0,1-.09,0l-.08-.05-.07,0c-.13-.08-.28-.11-.41-.18H5c-.39-.12-.54-.44-.83-.63a.21.21,0,0,1,.09-.21.26.26,0,0,1,.15,0,2.45,2.45,0,0,0,.27,0c.2-.05.34.08.51.11l.14.05.17.08a.25.25,0,0,0,.21,0c.07,0,.09-.11.16-.14s.23.1.36.11.17-.07.23-.13a.23.23,0,0,1,.2-.14.2.2,0,0,1,.15,0v.06a.08.08,0,0,1,0,.13.29.29,0,0,0,.08.39.21.21,0,0,1,.16.13l.09.06S7.13,12.25,7.12,12.26Z" fill="#19b3f0"/><path d="M4.44,11.5H4.28A.55.55,0,0,1,4,11.32a.14.14,0,0,1,0-.09c.11-.16,0-.27-.15-.35s-.08-.2-.25-.17-.05.23-.23.24a.2.2,0,0,1-.11,0,.34.34,0,0,1,0-.52.3.3,0,0,1,.29-.06c.06.12.37,0,.34.2a.48.48,0,0,0,.18,0c.17,0,.18,0,.23.12.15-.1.21-.18.06-.31A.43.43,0,0,1,4.2,10h.4a.09.09,0,0,1,0,.07s0,.08,0,.11,0,.13.06.19a.26.26,0,0,1,.07.16A.66.66,0,0,0,5,11a.75.75,0,0,1,.35.44.21.21,0,0,1-.08.22l-.08-.06c-.2-.07-.32-.26-.56-.27C4.32,11.11,4.56,11.5,4.44,11.5Z" fill="#18b2f0"/><path d="M6.81,11.44H6.63c-.07-.15,0-.25.14-.34a8.93,8.93,0,0,0,.66-.72c.1-.17,0-.21-.18-.16s-.28.17-.45.22-.13-.1-.1-.18l0,0A.37.37,0,0,0,7.05,10h0A1.52,1.52,0,0,1,7.52,10c.12,0,.21.07.16.19.13.13,0,.26,0,.39h0C7.34,10.8,7.17,11.18,6.81,11.44Z" fill="#11b2f0"/><path d="M5.15,10.08a1.51,1.51,0,0,1,.39-.79A.44.44,0,0,1,6,9.11a.4.4,0,0,1,.35.3,8.34,8.34,0,0,0,.38.8h0a.15.15,0,0,1-.16,0c-.3-.16-.34-.44-.47-.68,0-.08,0-.17-.07-.24l-.09,0c-.12,0-.15.08-.21.14a4.69,4.69,0,0,0-.42.67A.15.15,0,0,1,5.15,10.08Z" fill="#12b1f0"/><path d="M3.41,9.31v.13c.1.17.43.25.32.52L3.65,10a.23.23,0,0,0-.14,0H3.32l-.18-.07L3,9.86a.1.1,0,0,1,0-.07c0-.07.08-.12.11-.19S3.09,9.23,3.41,9.31Z" fill="#19b0ef"/><path d="M8.79,11.1l-.08.08-.13-.06c.17-.22.07-.49.21-.71.09,0,0-.08.08-.09s.06,0,.07,0l-.08.45C8.79,10.89,8.88,11,8.79,11.1Z" fill="#18bbf4"/><path d="M6.48,7.19a2.57,2.57,0,0,1,.26.75c0,.08,0,.14-.08.16a.09.09,0,0,1,0-.14.33.33,0,0,0-.15-.32.83.83,0,0,1-.2-.22.28.28,0,0,1,0-.28C6.39,7.07,6.44,7.12,6.48,7.19Z" fill="#18bcf4"/><path d="M3.73,10c0-.19-.27-.25-.33-.41s0-.07,0-.11a.87.87,0,0,0,.39.07c0,.07,0,.14.08.19A.34.34,0,0,1,3.73,10Z" fill="#18b1f0"/><path d="M6.34,7.12v.32a.08.08,0,0,1,0,.13A.77.77,0,0,1,6,7.52c.31-.06.2-.2.14-.33s-.07-.14.08-.13h.16a0,0,0,0,1,0,0Z" fill="#19aded"/><path d="M5.15,10.08h.14a.21.21,0,0,1-.09.33c-.14.07-.23-.05-.32-.11s-.22-.12-.28-.22V10Z" fill="#15adee"/><path d="M6.65,8v.13a.12.12,0,0,1,.08.13c0,.11-.1.15-.22.11s-.09-.17-.09-.25S6.5,7.9,6.65,8Z" fill="#18aded"/><path d="M4.28,8.62l.15,0c0,.06,0,.14.06.18s0,.17-.06.21-.13-.09-.21-.11v-.2Z" fill="#178de4"/><path d="M5.78,8.22l-.23.51s-.06,0-.08,0l.15-.51c-.06-.08,0-.14.08-.16S5.85,8.14,5.78,8.22Z" fill="#189be6"/><path d="M5.78,8.22a.12.12,0,0,0-.08-.13.12.12,0,0,1,0-.19c0-.05.1-.15.14-.14s.11.1.09.17A.46.46,0,0,1,5.78,8.22Z" fill="#19aded"/><path d="M7.68,10.15,7.52,10c.05-.19.15-.11.24,0S7.9,10.12,7.68,10.15Z" fill="#19b3ed"/><path d="M7.11,8.86a.21.21,0,0,0,.18.08.09.09,0,0,1,0,.06c0,.05.17,0,.12.12a.14.14,0,0,1-.08.13c-.08,0-.1-.09-.16-.13C7,9.08,7,9,7.11,8.86Z" fill="#18a4ea"/><path d="M6.91,9.13c.06,0,.14.07.06.11s0,.2-.13.19-.07-.08-.07-.14S6.78,9.14,6.91,9.13Z" fill="#16b0f1"/><path d="M6.73,8.22a.14.14,0,0,1-.08-.13c.08,0,.08-.09.09-.15s.11.18.16.26l0,.22C6.77,8.37,6.85,8.25,6.73,8.22Z" fill="#19c5f7"/><path d="M7,8.22c.11.16.23.32.16.52C6.89,8.6,7,8.39,7,8.22Z" fill="#1924b8"/><path d="M3.57,10.34l-.24.07c-.08-.07,0-.15,0-.22s0-.16.16-.19,0,0,0,.07S3.67,10.23,3.57,10.34Z" fill="#18a6ee"/><path d="M7.29,9V8.94l.15-.15c0,.06,0,.1.13.09s.11.06,0,.11A.34.34,0,0,1,7.29,9Z" fill="#18aeed"/><path d="M8.39,9.75c0,.13-.07.19-.18.28C8.11,9.83,8.31,9.82,8.39,9.75Z" fill="#1ab3ec"/><path d="M7.05,10C6.9,10,6.88,10,7,9.86s.1-.09.16,0-.08.13-.08.21Z" fill="#19b1ef"/><path d="M5.15,7.64V7.38c.06,0,.16-.07.17,0A.24.24,0,0,1,5.15,7.64Z" fill="#18abed"/><path d="M8.87,9.64v.13a.07.07,0,0,1,0,.06.06.06,0,0,1-.05.06c-.24-.08-.18-.2-.07-.32S8.84,9.62,8.87,9.64Z" fill="#18d4fd"/><path d="M5.47,8.73h.08A.37.37,0,0,1,5.37,9C5.2,8.87,5.4,8.82,5.47,8.73Z" fill="#18a8eb"/><path d="M5.12,8.79a.24.24,0,0,1-.19-.23C5.1,8.59,5.12,8.67,5.12,8.79Z" fill="#1eb1e8"/><path d="M8.86,9.89l0-.06c.19.05.09.15.08.24l0,.28-.06,0c-.07-.06-.06-.12,0-.18Z" fill="#2335be"/><path d="M5.7,7.9v.19a.14.14,0,0,0-.08.13C5.4,8.07,5.58,8,5.7,7.9Z" fill="#19bdf3"/><path d="M7.05,12.15A.27.27,0,0,1,6.89,12c.07,0,.1-.14.18-.1S7.08,12.07,7.05,12.15Z" fill="#18aced"/><path d="M8.78,9.31c-.3,0-.06-.17-.07-.18l.07.12h0s0,0,0,0Z" fill="#19cef9"/><path d="M7.29,9H7.6c0,.08,0,.13-.15.13S7.25,9.11,7.29,9Z" fill="#18bef3"/><path d="M5.7,7.43a.14.14,0,0,1-.08,0c-.06,0-.07,0-.06-.09a.1.1,0,0,1,.12,0S5.74,7.36,5.7,7.43Z" fill="#1ab2ed"/><path d="M8.18,9a.21.21,0,0,1-.1,0C8,9,8,9,8,8.94s.05,0,.07,0Z" fill="#1ab3eb"/><path d="M7.21,9.12c.11,0,.15.05.16.13C7.15,9.34,7.23,9.19,7.21,9.12Z" fill="#1884de"/><path d="M3.9,10.21s-.06-.05,0-.07,0,0,.07,0,.1,0,.08.07S3.94,10.2,3.9,10.21Z" fill="#22b3e5"/><path d="M5.49,7.19s-.06-.05-.06-.07a.12.12,0,0,1,.07,0c.06,0,.1,0,.08.07S5.53,7.17,5.49,7.19Z" fill="#1aafec"/><path d="M8.78,9.31l0-.07h.07v.39l-.08-.07Z" fill="#1e4fca"/><path d="M6.18,7.06a.13.13,0,0,0-.08.13C6,7.11,6,7,6,6.92S6.14,7,6.18,7.06Z" fill="#18c0f6"/><path d="M6.34,7.57V7.44c.16,0,.16.1.16.2S6.37,7.63,6.34,7.57Z" fill="#18b4f1"/><path d="M8.88,10.15v.18l0,.15-.05-.07C8.8,10.32,8.75,10.21,8.88,10.15Z" fill="#1fd7f9"/><path d="M7.76,11.46s0,.08-.07,0a.11.11,0,0,1-.06-.07,0,0,0,0,1,.07,0S7.74,11.44,7.76,11.46Z" fill="#1ab3eb"/><path d="M6.81,11.63V11.5c.07,0,.18,0,.17.08S6.87,11.62,6.81,11.63Z" fill="#17a0eb"/><path d="M3.49,10.07a.11.11,0,0,0,0-.05.08.08,0,0,1,0-.13c.11,0,.16,0,.16.13Z" fill="#51a7b5"/><path d="M7.68,10.54c.07,0,.16,0,.2.05s0,0,0,.05-.13-.05-.17-.1Z" fill="#19b0e9"/><path d="M7.21,9.54s0-.07.08,0l0,.07a.05.05,0,0,1-.07,0S7.23,9.56,7.21,9.54Z" fill="#18abed"/><path d="M5,8.09V8s.11,0,.13,0,0,.07,0,.1S5,8.12,5,8.09Z" fill="#1cb2e9"/><path d="M8.66,8.57a.2.2,0,0,1,0,.23C8.6,8.74,8.63,8.68,8.66,8.57Z" fill="#1ad8fd"/><path d="M7.83,10.91,7.76,11s0-.05,0-.07,0,0,0-.05S7.83,10.86,7.83,10.91Z" fill="#1bb2e8"/><path d="M6.34,7.12V6.93a.36.36,0,0,1,.14.26Z" fill="#18b4f1"/><path d="M2.62,10.15V10a.14.14,0,0,1,0-.08c0-.13.06-.25,0-.37V9.51l.15-.07c0,.07,0,.15.08.2S2.92,10,2.62,10.15Z" fill="#1745cc"/><path d="M2.54,9.57c.14.11,0,.26.07.38s-.11,0-.07-.06V9.57Z" fill="#2816b4"/><path d="M3.41,9.31c-.3,0-.24.25-.32.39s-.18-.06-.23-.13V9.5c0-.12.08-.18.16-.25s.11-.17.24-.2Z" fill="#18b1f0"/><path d="M2.62,10.15c.15-.15,0-.36.15-.51h.08c.08,0,0,.13.08.19h0A.19.19,0,0,1,3,9.94a.34.34,0,0,0,0,.2.57.57,0,0,1,0,.29.25.25,0,0,1-.24.07c-.11-.05-.1-.15-.16-.22Z" fill="#1cb5ed"/><path d="M2.93,9.83c-.09-.05-.07-.13-.08-.19V9.57c.08,0,.11.14.23.13Z" fill="#1da6e9"/><path d="M5.63,12.59H5.7a.14.14,0,0,1,.11,0c.09.06.15,0,.23,0s.29,0,.22.17h0C6.05,12.66,5.76,12.86,5.63,12.59Z" fill="#1f2aba"/><path d="M6.41,13l-.07,0c-.22,0,0-.14-.08-.2C6.43,12.78,6.42,12.88,6.41,13Z" fill="#8085d8"/><path d="M3.41,11.11a.18.18,0,0,1-.16.07c-.09-.12-.28-.17-.31-.33H3a.75.75,0,0,1,.21,0l.08.05c0,.05.12.07.15.12l0,0Z" fill="#1f1eb6"/><path d="M2.7,10.79v-.14c.17,0,.29,0,.25.2h0Z" fill="#1b10af"/><path d="M3,10.85c0-.14-.16-.14-.25-.2l0-.11s0-.06.1-.07L3,10.41a.11.11,0,0,1,.1,0,.58.58,0,0,1,0,.51Z" fill="#18b2f0"/><path d="M2.78,10.47l-.1.07c-.12-.07-.06-.17-.05-.26A.2.2,0,0,1,2.78,10.47Z" fill="#17c7f9"/><path d="M3.8,11.5l0-.08a.49.49,0,0,1,.38.26,6.47,6.47,0,0,1,.8.65.16.16,0,0,1-.23,0C4.47,12,4,11.84,3.8,11.5Z" fill="#1f22b6"/><path d="M5.07,12.34c.19,0,.34,0,.41.18A.39.39,0,0,1,5.07,12.34Z" fill="#2221b7"/><path d="M9.19,10.86c-.22,0-.14.15-.16.25l-.15-.19a0,0,0,0,1,0,0s0,0,0,0C9,10.69,9.08,10.62,9.19,10.86Z" fill="#1d1fb5"/><path d="M9,10.07c0-.08,0-.17-.08-.24a.06.06,0,0,1,0-.06c.16,0,.15.1.15.19A.1.1,0,0,1,9,10.07Z" fill="#1d0bad"/><path d="M8.88,10.86v.06c0,.06,0,.14-.09.18s0-.22.07-.3S8.87,10.84,8.88,10.86Z" fill="#18b5f1"/><path d="M11.49,7.52c-.13.14-.39.15-.48.32a.37.37,0,0,0-.32.18c-.23,0-.14-.14-.16-.23a2.57,2.57,0,0,0-.15-1,.18.18,0,0,1-.13-.18l.13,0c.13-.08.06-.17,0-.26a2,2,0,0,0-.16-.75c-.1-.12,0-.29-.16-.4A.21.21,0,0,0,10,5h0l.07-.3c0-.06,0-.1-.08-.13h0c0-.08-.29-.06-.09-.2,0-.1,0-.14-.14-.11l-.16.38c0,.08-.18.09-.16.19L9.34,5c-.09.09-.24.14-.22.28h0c0,.14-.41.24-.11.41l-.2.16a3.46,3.46,0,0,0-.3.57H8.3l-.2,0h0A.56.56,0,0,0,8.07,6c0-.18-.14-.32-.15-.51a2.58,2.58,0,0,0-.21-.86,9.36,9.36,0,0,1-.39-1.24C7.08,2.61,6.87,1.8,6.58,1L6.49.75,6.33.24l-.06,0c0-.08,0-.19-.11-.21S6,.11,6,.18A.42.42,0,0,0,6,.3L5.79.5,5.55.94h0a.32.32,0,0,0-.15.25,1.08,1.08,0,0,0-.25.39c-.13.06-.06.17-.07.26a4.16,4.16,0,0,0-.5.83.79.79,0,0,0-.07.2c.23.09,0,.15,0,.19S4.31,3,4.22,3l-.1-.11c0-.13-.25-.15-.32-.26s-.25-.08-.39-.07-.14,0-.14.06C3.2,3.36,3,4.1,2.94,4.86s-.09,1.34-.14,2c0,.15,0,.2-.2.07l-.06-.07a2.07,2.07,0,0,0-.84-.82C1.58,6,1.46,6,1.49,5.8s-.1-.19-.23-.18-.15.12-.16.22A.41.41,0,0,1,1,6.41a.52.52,0,0,0-.17.4A.7.7,0,0,1,.82,7a.36.36,0,0,1-.1.18c0,.3-.2.59-.16.9-.12.06-.1.17-.12.25-.15.6-.3,1.2-.44,1.81l.08.07c0,.07,0,.2.16.11s.17,0,.15.13h0c-.08,0-.07.06,0,.07s0,0,0,.06l.47.29,0,0c.11.1.3.12.38.25s.22.07.26.18a3.9,3.9,0,0,1,1.1.65l.06,0h.23V12a.26.26,0,0,0,.24.13c.05.13.28.12.3.27l.08.07a.15.15,0,0,0,.17,0H3.8c.13-.06.11,0,.09.07s.46.17.54.39L4.6,13l.16.19h.09c.3,0,.37.29.6.39l0,0c0,.16.26.19.38.29h0a2.8,2.8,0,0,1,.33.24l.23.1h0c0,.07.1,0,.16,0l1.28-1,.21-.16.26-.19a1.59,1.59,0,0,0,.48-.31c.14,0,.27-.07.31-.21a1.83,1.83,0,0,0,.63-.46l.23-.19v-.09a.69.69,0,0,0,.07-.15.19.19,0,0,0,0-.08v-.08c.18-.25.15-.58.39-.82a1.47,1.47,0,0,1,.08-.35l.06-.15a.31.31,0,0,0,0-.13.4.4,0,0,1,.1-.31l.06-.11A.9.9,0,0,1,11,9.2.24.24,0,0,0,11,9.09a.36.36,0,0,1,.13-.39.94.94,0,0,0,.31-.42,4.5,4.5,0,0,0,.16-.48C11.68,7.68,11.72,7.54,11.49,7.52ZM1.67,7.7ZM8.94,9V9s0,0,0-.06Zm0-1.36ZM5.15,6.39c.06.1,0,.2-.08.31A1,1,0,0,0,5.15,6.39ZM6.35,13c-.09,0-.06-.09,0-.15a.46.46,0,0,1,.07.14ZM7,12.53ZM9.17,11l0,0-.07,0c-.06,0-.1-.11-.19-.09s-.09.11-.14.16a.08.08,0,0,0,0,.11c-.2.11-.46.17-.56.38l-1,.65a.05.05,0,0,0,0,0,.45.45,0,0,0-.23,0,.49.49,0,0,0-.25.16.35.35,0,0,0,0,.08h0a.54.54,0,0,0-.24.09s0,0-.07.06v0l0,0c-.17-.09-.41,0-.56-.13a.16.16,0,0,0-.15,0l-.07,0a2,2,0,0,1-.36-.16.17.17,0,0,0-.1,0,5,5,0,0,1-1.16-.85l0,0a.28.28,0,0,0,0-.09,1.35,1.35,0,0,0-.28-.25.26.26,0,0,0-.15,0,.25.25,0,0,0-.14.08c-.06-.14-.2-.22-.31-.33a.36.36,0,0,0-.23-.08h0a.13.13,0,0,0,0-.08.29.29,0,0,0,0-.13.6.6,0,0,1,0-.26.53.53,0,0,0,0-.13A.21.21,0,0,0,2.65,10h0V10l0,0,0,0a.13.13,0,0,0,0-.11l0,0a.34.34,0,0,0,.07-.19.38.38,0,0,0,0-.1.15.15,0,0,1,0-.11.13.13,0,0,0,.1,0l.07-.06.08-.16c0-.14.11-.23.31-.18a.6.6,0,0,1,.23.06,2.27,2.27,0,0,1,.35.26.34.34,0,0,0,.34,0A.32.32,0,0,0,4.18,9C4,8.91,4,8.83,4.07,8.74a.26.26,0,0,0,.19,0,.21.21,0,0,0,.08-.11.18.18,0,0,0-.06-.17.12.12,0,0,1,.09.06s.07,0,.11,0,.12-.17.18-.26.12-.21.17-.32A1.16,1.16,0,0,1,5,7.65c0-.09.1-.18.16-.27a.29.29,0,0,0,.06-.25.18.18,0,0,0-.05-.07.34.34,0,0,1-.08-.32.18.18,0,0,0,0,.14A.35.35,0,0,0,5.23,7c.3,0,.29-.28.44-.41a.76.76,0,0,1,.08-.11s0-.12.11-.15a.29.29,0,0,1,.16,0l.09,0c.06,0,.09,0,.08.1a.24.24,0,0,0,0,.12.17.17,0,0,0,.08.11c0,.08,0,.16,0,.24l.11.3c0,.26.28.44.28.7a.31.31,0,0,0,.2.27l.06,0a5.16,5.16,0,0,1,.16.52v.12c0,.09.07.1.15.1s.13-.11.18-.17l0-.11h0a2.55,2.55,0,0,0,.46-.47c0,.06-.07.12,0,.17a.34.34,0,0,0,.36-.12A2.16,2.16,0,0,1,8.64,8a.1.1,0,0,0,0,0c.11.12,0,.28.11.41,0,.3,0,.6,0,.9l.05,0a.09.09,0,0,0,.07,0,.61.61,0,0,1-.05.18c0,.06,0,.13,0,.19a.22.22,0,0,0,0,.14c.07.06.12.13.19.19H9a.46.46,0,0,0-.1.18.85.85,0,0,0,0,.23c0,.14-.1.27-.07.41a.36.36,0,0,0,0,.09c.07.07.2-.07.25,0s.05.07.09.09ZM9.5,7.57h0Z" fill="#204bfc"/><path d="M6.65,12.53c-.1,0-.17.15-.3.15s-.2-.14,0-.24.21-.15.37-.1a.12.12,0,0,1,0,.14A.09.09,0,0,1,6.65,12.53Z" fill="#19b3f0"/><path d="M6.66,12.48v-.14s0,0,0-.05l0,0c.07,0,.2-.11.23.06Z" fill="#1ad3fe"/><path d="M4.91,10.23c.32.28.34,0,.38-.15a1.32,1.32,0,0,1,.41-.71c.09-.08.15-.2.32-.13H6c.14.05.08.18.15.26a3.46,3.46,0,0,0,.39.7c.1,0,0,.23.25.2a1.23,1.23,0,0,1,.39-.27c.28-.05.41,0,.31.27s-.69.62-.89,1a.18.18,0,0,0-.15.13.24.24,0,0,1-.23.11c-.2.13-.29,0-.39-.11a.52.52,0,0,1-.53-.27c.06-.11,0-.14-.13-.15-.21-.18-.53-.3-.53-.6l-.07-.13c0-.1.06-.14.12-.19S4.85,10.16,4.91,10.23Z" fill="#fcfdfe"/><path d="M4.67,10.54c.13.22.39.36.57.55,0,.06.12.09.15.15s.32.21.47.32c0,.08,0,.15-.08.2a3.09,3.09,0,0,1-.32-.14c-.08,0-.09-.13-.15-.18-.1-.29-.49-.39-.62-.65C4.65,10.7,4.54,10.63,4.67,10.54Z" fill="#10acee"/><path d="M4.67,11.31c.34-.07.42.16.56.32-.2.08-.35-.18-.55-.06C4.6,11.48,4.58,11.39,4.67,11.31Z" fill="#1ab1ee"/><path d="M4.67,11.31v.26l-.24-.07c0-.14-.21-.25-.12-.42C4.5,11.1,4.55,11.24,4.67,11.31Z" fill="#18b4f3"/><path d="M4.2,11.68l-.39-.26a.09.09,0,0,0,0-.05.11.11,0,0,1,.08-.09.14.14,0,0,1,.14,0c.1,0,.24.06.24.19Z" fill="#18b6f2"/><path d="M6.34,12.47c-.09.07,0,.14,0,.21l-.09.05c0-.1,0-.23-.22-.12a.19.19,0,0,1-.26,0c0-.07,0-.08.08-.07s.27-.19.47-.13c0,0,0,0,0,0Z" fill="#19b2f0"/><path d="M5.47,11.57c.1.07.3,0,.31.19s-.21.12-.31,0S5.4,11.63,5.47,11.57Z" fill="#16b0ec"/><path d="M6.25,11.67a.27.27,0,0,1,.23-.11c.09.15-.06.23-.19.24S6.27,11.72,6.25,11.67Z" fill="#0fa7e6"/><path d="M5.47,11.57v.19l-.16-.07v-.25A.23.23,0,0,1,5.47,11.57Z" fill="#1ab1ee"/><path d="M5.86,12.53l-.08.07H5.7c0-.09,0-.19.08-.32Z" fill="#199de7"/><path d="M6.34,12.47V12.4a.54.54,0,0,1,.33-.13s0,.05,0,.07S6.47,12.48,6.34,12.47Z" fill="#1b98e7"/><path d="M6.26,12.26s-.07.06-.1.06-.1,0-.09-.08.06-.07.07-.06Z" fill="#1b52ca"/><path d="M3.89,11.3l-.07.07c-.09-.08-.26-.1-.26-.25s-.12,0-.15-.07h0c-.05,0-.05-.08,0-.13s0-.24.16-.32.2.18.31.26c.34.05.39.17.16.38C3.91,11.12,4,11.32,3.89,11.3Z" fill="#14b6f5"/><path d="M3.17,10.91l-.08-.5a.67.67,0,0,0,0-.2c0-.1-.15-.15-.16-.25V9.83h.24c.05.05.07.12.12.17s0,.16.12.21l-.08.2c-.14.17-.05.34,0,.51a.05.05,0,0,1-.08,0Z" fill="#18baf3"/><path d="M3.88,10.86c-.18,0-.22-.17-.31-.26C3.87,10.52,3.82,10.74,3.88,10.86Z" fill="#21b2e7"/><path d="M4.91,10.23c-.07,0-.13,0-.16,0s-.19,0-.23-.12l.08-.07C4.72,10.1,4.85,10.12,4.91,10.23Z" fill="#18b5f1"/><path d="M4.52,10.15c.11,0,.08.17.23.12l-.15.14C4.45,10.35,4.47,10.25,4.52,10.15Z" fill="#c2edfe"/><path d="M3.89,11.3c0-.07,0-.18.07-.19s0,.09.08.13v.07Z" fill="#36a7d0"/><path d="M3.25,10.93h.16v.13Z" fill="#29a4da"/><path d="M7.52,10.41c.08-.23-.1-.26-.31-.27a.24.24,0,0,1,.34,0C7.63,10.23,7.64,10.33,7.52,10.41Z" fill="#1fb7f0"/><path d="M6.82,10.41c-.15,0-.23,0-.25-.2h.16C6.74,10.29,6.72,10.36,6.82,10.41Z" fill="#17b1ec"/><path d="M6,9.24c-.14,0-.2.1-.32.13C5.75,9.22,5.82,9.12,6,9.24Z" fill="#18b5f1"/><path d="M6.18,9.51c-.12-.06,0-.2-.15-.26C6.23,9.27,6.17,9.4,6.18,9.51Z" fill="#18b5f1"/><path d="M3.41,10.21c-.16,0-.16-.1-.16-.19A.07.07,0,0,1,3.33,10l.16-.07V10C3.39,10.07,3.41,10.14,3.41,10.21Z" fill="#169be9"/><path d="M3.33,10,3.25,10c-.09,0-.08-.12-.08-.19Z" fill="#1896e5"/><path d="M3.17,10.21c.06.09.05.16-.08.2H3a.18.18,0,0,1,0-.26C3.1,10.11,3.13,10.18,3.17,10.21Z" fill="#1893e5"/><path d="M3.17,10.21,3,10.15c-.2,0-.12-.11-.08-.19C3,10,3.16,10.09,3.17,10.21Z" fill="#1aa9eb"/><path d="M3.41,11.05s.18-.07.15.07H3.41Z" fill="#2288d6"/><path d="M5.24,10.67a.23.23,0,0,1,.22-.28c.13,0,.14.16,0,.18S5.32,10.65,5.24,10.67Z" fill="#def3fc"/><path d="M5.66,10.62a.22.22,0,0,1,.08-.29l.08,0C5.87,10.49,5.73,10.54,5.66,10.62Z" fill="#c0ebfc"/><path d="M5.8,10.86c0-.07.06-.18.08-.18s0,.08,0,.13,0,0-.06.07Z" fill="#d4f1fc"/><path d="M5.65,9.84c.06.1.06.15,0,.2s-.09,0-.09,0A.56.56,0,0,1,5.65,9.84Z" fill="#f6fcfe"/><path d="M5.39,11.24a.18.18,0,0,1-.15-.15c.08.05.18-.06.24,0S5.4,11.19,5.39,11.24Z" fill="#1ab1ee"/><path d="M17.05,6.69c-.83,1.62-1.74,3.15-2.6,4.7a1.26,1.26,0,0,1-1.54.78c-.68-.19-.68-.79-.68-1.37,0-2.52,0-5,0-7.55a10,10,0,0,1,.21-1.54c.09-.48.36-.83.89-.79s.64.5.65,1c0,2.11.3,4.22.21,6.42.46-1.06.91-2.12,1.4-3.16.63-1.33,1.3-2.65,2-4,.14-.28.26-.63.69-.51s.52.44.52.83c0,3.36,0,6.71,0,10.07a.78.78,0,0,1-.8.85.81.81,0,0,1-1-.73,11.34,11.34,0,0,1-.06-3.34C16.94,7.79,17,7.24,17.05,6.69Z" fill="#204bfc"/><path d="M1.73,18.78c0-1.48,0-3,0-4.44,0-.41-.39-1.25.34-1.19a1.45,1.45,0,0,1,1.52,1.38c0,.76,0,1.52,0,2.28s.14.9.81.74a3.36,3.36,0,0,1,.84,0,4.51,4.51,0,0,0,1.88-.06c.6-.32.22-1.16.29-1.77a2.43,2.43,0,0,1,1.47-1.77c.71-.4.49.33.49.63q0,3.9,0,7.8c0,.28,0,.56,0,.84a1,1,0,0,1-1.06.92.88.88,0,0,1-1-.86,10.87,10.87,0,0,1-.07-3.22c.08-.46,0-.66-.51-.67a21.46,21.46,0,0,1-2.26-.16c-.63-.08-1,0-.93.79s0,1.83,0,2.74A2.09,2.09,0,0,1,3,24.33a1,1,0,0,1-1,.3c-.42-.1-.27-.52-.27-.81,0-1.68,0-3.36,0-5Z" fill="#214bfc"/><path d="M15.59,18.1a43.46,43.46,0,0,1-2.41,4.59,5.09,5.09,0,0,1-.74,1.07,1.15,1.15,0,0,1-1.21.34c-.5-.2-.34-.66-.34-1L11,15.74a1.4,1.4,0,0,1,.31-1.11c.29-.28.55-.65,1-.47a.85.85,0,0,1,.44.91c0,1.3.17,2.61.18,4,.45-.86.87-1.73,1.34-2.56.32-.56.71-1.06,1.07-1.59a1.3,1.3,0,0,1,1.42-.67c.63.19.81.77.8,1.44,0,2.32,0,4.64,0,7,0,.57.07,1.23-.74,1.21a1.13,1.13,0,0,1-1.18-1.23C15.59,21.12,15.59,19.61,15.59,18.1Z" fill="#204bfc"/><path d="M22.48,8.44c-.58,1.11-1.11,2-1.53,3-.31.71-.87.67-1.39.54-.71-.18-.39-.8-.27-1.2a8.85,8.85,0,0,1,.89-2.33c1.25-2,.78-3.89.12-5.87-.2-.6-.93-1.46.09-1.83s1.25.63,1.55,1.32.46,1.24.69,1.89c.36-.83.67-1.59,1-2.35a3.22,3.22,0,0,1,.53-.79A1.65,1.65,0,0,1,26,.3c.58.32-.14.85-.34,1.26A13.9,13.9,0,0,1,24.47,3.9c-1.34,1.79-.58,3.41.26,5.06.23.46.53.89.76,1.35s.78,1.12,0,1.52a1.28,1.28,0,0,1-1.79-.7C23.28,10.31,22.94,9.47,22.48,8.44Z" fill="#204bfc"/><path d="M19,18.51c0-1.39,0-2.79,0-4.19,0-.54.09-1,.76-1h5c.56,0,1.13.16,1.15.77s-.7.55-1.11.6a16.85,16.85,0,0,1-2.75.08c-.76,0-1,.21-.92.94a2,2,0,0,1,0,.6c-.22,1.14.18,1.62,1.36,1.36a3.46,3.46,0,0,1,.72,0c.44,0,.82.18.84.67s-.39.64-.78.75l-.24,0c-.65.12-1.66-.31-1.88.27a7.42,7.42,0,0,0-.07,2.71c0,.53.42.32.71.31,1,0,2-.09,3-.09.48,0,1,0,1.14.64s-.54.8-1,.82c-1.71.1-3.43.13-5.14.11-.64,0-.83-.51-.83-1.1,0-1.44,0-2.88,0-4.32Z" fill="#214bfc"/></svg>