<svg id="Layer_1" data-name="Layer 1" xmlns="http://www.w3.org/2000/svg" viewBox="0 0 27.16 27.16"><title>112px Volk</title><path d="M6.74,16.64a3.11,3.11,0,0,1-2.65-1.12,32.88,32.88,0,0,0-.21-4.86c.24-.14.47-.29.71-.41C5.52,9.78,6.34,9.26,6,8a.55.55,0,0,1,.22-.63,1.17,1.17,0,0,1,.63.73c.1.63.08,1.31.73,1.71,1,.61,1.26.08,1.37-.79a2,2,0,0,0-.35-1.91.59.59,0,0,1,.26-.5c1.06-1,1.06-1-.21-1.65V.2A7.87,7.87,0,0,1,12,3c.89,1,1.59,1,2.37-.09.44-.62.9-1.22,1.35-1.83.23-.31.37-.73.9-.61a1.32,1.32,0,0,1,1,1,49.47,49.47,0,0,1,2.15,8.2A18.84,18.84,0,0,0,20,11.74c.78,2.61-1,4-2.79,5a7,7,0,0,1-5.76.53,12.66,12.66,0,0,0-4.25-.58c-.1-.18,0-.33.07-.48a4.51,4.51,0,0,1,1.94-2.34,3.15,3.15,0,0,1,1.4-.05c.62.07.5.7.76,1,.42-.07.57-.43.83-.65,0-.12.45-.26,0-.35a1.41,1.41,0,0,1-1-.1c-.24-.09-.48-.16-.72-.23a1.85,1.85,0,0,0-1.35,0C7.69,14.07,7.27,15.4,6.74,16.64Z" fill="#7c59ae"/><path d="M26.26,4.8V8.28c0,.57-.27.74-.82.73s-.76-.3-.73-.82c0-.2,0-.4,0-.6,0-2.14,0-2.14-2.1-1.87-.5.07-.73.25-.73.74s0,1.12,0,1.68-.09.87-.76.87-.78-.34-.77-.89c0-2.08,0-4.16,0-6.24,0-.56.1-.89.79-.88s.73.33.73.83a3.47,3.47,0,0,0,0,.72c.06.43-.24,1,.42,1.22a2.55,2.55,0,0,0,2.1-.1c.53-.36.21-1.11.25-1.69s.21-1,1-1c.55,0,.76.23.73.8,0,1,0,2,0,3Z" fill="#ed4949"/><path d="M21.12,13.87c.13-1.06-.55-2.54.24-3,1.24-.72,2.88-.22,4.34-.23.37,0,.44.28.4.59a.65.65,0,0,1-.74.62l-2.4,0c-.32,0-.64,0-.64.48s.23.54.6.56,1,.13,1.55.15.7.35.69.86-.41.58-.83.58-1,0-1.43.07a.54.54,0,0,0-.51.56c0,.41.24.45.54.47.83.06,1.67.12,2.51.15.45,0,.79.09.8.64s-.43.56-.83.56c-1.2,0-2.4,0-3.6,0-.51,0-.71-.17-.69-.7C21.15,15.42,21.12,14.62,21.12,13.87Z" fill="#ed4b4b"/><path d="M19.83,21.25c-.7.78-1.3,1.46-1.92,2.11-.23.24-.47.64-.89.44s-.39-.58-.4-.94c-.05-1.08-.06-2.16-.13-3.24,0-.72.3-1.08,1-1.09s.51.58.54,1a3.71,3.71,0,0,0,.25,1.38c.39-.47.82-.93,1.17-1.43A1.37,1.37,0,0,1,21,19c.62.14.34.74.35,1.12,0,1.4,0,2.8,0,4.2,0,.71-.26.87-.93.83s-.82-.25-.77-.87A13.55,13.55,0,0,0,19.83,21.25Z" fill="#7d5aaf"/><path d="M23.53,22.65c0-.56,0-1.12,0-1.67s.17-1.48-1-1.32c-.3,0-.39-.22-.4-.49a.46.46,0,0,1,.4-.51,14.82,14.82,0,0,1,3.45-.3c.35,0,.48.26.45.58s-.24.63-.62.6c-1.29-.1-1.17.73-1,1.55A25.33,25.33,0,0,1,25,24.57c0,.52-.1.95-.76,1s-.66-.51-.66-1c0-.64,0-1.28,0-1.92Z" fill="#7e5cb0"/><path d="M3.88,10.66a6,6,0,0,1,.21,4.86A13.73,13.73,0,0,1,1,13c-.45-.47-.36-.67.17-.92C2.08,11.62,3,11.13,3.88,10.66Z" fill="#030304"/><path d="M6.71,8.1c-.38-.11-.33-.5-.5-.75.41-1.21,1.46-1.77,2.43-2.41.5,0,1.19-.33,1.39.43s-.33,1-.79,1.31l-.56.4A2.27,2.27,0,0,1,6.71,8.1Z" fill="#090809"/><path d="M10.62,13.29c.28,0,.55,0,.72.25-.19.31-.55.24-.82.36-.45.11-1-.17-1.38.2a6.83,6.83,0,0,0-1.7,2.31c-.24-.23-.22-.5-.06-.85-.24.38-.13.81-.41,1.09H6.74A3.39,3.39,0,0,1,9.09,13.3,2.75,2.75,0,0,1,10.62,13.29Z" fill="#130e1b"/><path d="M7,16.65A2,2,0,0,1,7.58,15l-.14,1.38-.21.25Z" fill="#010102"/><path d="M11.57,6.78a1.26,1.26,0,0,1-.3-1.8c.48-.63,1.13-.1,1.6.18A7.31,7.31,0,0,1,15.6,7.92c.49.9.17,1.32-.94,1.32a2.58,2.58,0,0,1-1.18-.82C13.05,7.62,12,7.51,11.57,6.78Z" fill="#030204"/><path d="M13.68,8.3a1.91,1.91,0,0,1,1,.94c-.16.39.23.88-.22,1.22-.89-.07-1.54.21-1.66,1.21-1,.49-1.34-.34-1.74-1a1.78,1.78,0,0,1-.26-1.59C11.08,7.54,12.3,7.22,13.68,8.3Z" fill="#fafafb"/><path d="M6.71,8.1l2-1A1.26,1.26,0,0,1,9.16,9c-1-.41-1.34.27-1.72.93C6.55,9.59,6.54,8.88,6.71,8.1Z" fill="#f5f4f5"/><path d="M13.68,8.3C11.6,7.37,11,7.89,11,10.69c-.75.24-.63-.39-.7-.75-.24-1.29.5-2.23,1.23-3.16A3.51,3.51,0,0,1,13.68,8.3Z" fill="#6f529a"/><path d="M12.78,11.67A1,1,0,0,1,13,10.31a1.07,1.07,0,0,1,1.47.15,1,1,0,0,1-.27,1.35C13.65,12.19,13.22,11.93,12.78,11.67Z" fill="#080708"/><path d="M7.44,10c0-.57,0-1.14.64-1.38A.79.79,0,0,1,9.16,9c0,.49.14,1.07-.46,1.34S7.79,10.3,7.44,10Z" fill="#09090a"/><path d="M10.58,13.79c.18-.29.49-.22.76-.25s.59.32.89,0c.58.06.44.36.23.69a2.61,2.61,0,0,1-.34.46c-.31.26-.56.78-1,.59s0-.63-.11-.94a1.28,1.28,0,0,0-.17-.3C10.73,14,10.59,13.93,10.58,13.79Z" fill="#0b080f"/><path d="M12.46,14.23c0-.27,0-.53-.23-.69.28-.29.52-.15.63.12S12.75,14.15,12.46,14.23Z" fill="#312345"/><path d="M10.58,13.79l.23.25-1.67.06C9.53,13.55,10.1,13.9,10.58,13.79Z" fill="#20172e"/><path d="M10.62,13.29H9.09A1.45,1.45,0,0,1,10.62,13.29Z" fill="#20172e"/><path d="M16.54,24.58c-.87-.3-.83-1.09-1.07-1.72-.39-1-.8-2.09-1.11-3.16-.23-.77-.82-.6-1.34-.69-.72-.13-.61.47-.75.83-.27.7-.51,1.41-.76,2.11-.17.14-.1.37-.18.54-.41.71,0,2-1.28,2.09-1.05.09-.86.53-.45,1.14a1.23,1.23,0,0,0,1.26.5l5.25-.43c.26,0,.63.07.73-.26S16.84,24.68,16.54,24.58Zm-2-.66c-.28.76-1,.34-1.11.39-1.35.3-1.43-.21-1.15-1a2.11,2.11,0,0,1,.17-.44c.37-.54.19-1.49,1.11-1.59A5.67,5.67,0,0,1,14.55,23.92Z" fill="#7d5aaf"/><path d="M8.37,18.12c-1.45-.06-2.55,1.29-2.58,3.07a6.24,6.24,0,0,0,1.17,2H7c2.06.83,2.79.65,4-1,.33-.15.05-.53.27-.72A2.92,2.92,0,0,0,8.37,18.12Zm.12,4.08a1.15,1.15,0,0,1-1.32-1.32c0-.91.52-1.52,1.37-1.49A1.28,1.28,0,0,1,9.86,20.7C9.75,21.49,9.45,22.16,8.49,22.2Z" fill="#7f5db0"/><path d="M6.08,23.63,5.46,22h0c-1.25-1-.09-1.91.13-2.85.07-.3.59-.61.08-.88s-.8-.57-1.2-.31-.52.66-.82,1.08C2.8,17.91,2.57,16.32,1,15.82c-.22,1.6-.3,1.67,0,2.05,1.68,2.09,1.53,4.18.18,6.35-.27.43-.47,1,.24,1.3s1-.14,1.27-.7.36-1.43.94-1.41.87.92,1.16,1.51a1.56,1.56,0,0,1,.14.33c.26.75.74.51,1.25.32s.53-.56.39-1.05S6,24.06,6.08,23.63Z" fill="#7c5aaf"/></svg>